M48
; DRILL file {KiCad (7.0.0-rc1-253-g7844602210-dirty)} date Thu 19 Jan 2023 09:35:18 PM CST
; FORMAT={-:-/ absolute / inch / decimal}
; #@! TF.CreationDate,2023-01-19T21:35:18+08:00
; #@! TF.GenerationSoftware,Kicad,Pcbnew,(7.0.0-rc1-253-g7844602210-dirty)
; #@! TF.FileFunction,Plated,1,2,PTH
FMAT,2
INCH
; #@! TA.AperFunction,Plated,PTH,ComponentDrill
T1C0.0080
; #@! TA.AperFunction,Plated,PTH,ViaDrill
T2C0.0098
; #@! TA.AperFunction,Plated,PTH,ComponentDrill
T3C0.0098
; #@! TA.AperFunction,Plated,PTH,ComponentDrill
T4C0.0236
; #@! TA.AperFunction,Plated,PTH,ComponentDrill
T5C0.0315
; #@! TA.AperFunction,Plated,PTH,ComponentDrill
T6C0.0354
; #@! TA.AperFunction,Plated,PTH,ComponentDrill
T7C0.0362
; #@! TA.AperFunction,Plated,PTH,ComponentDrill
T8C0.0689
; #@! TA.AperFunction,Plated,PTH,ComponentDrill
T9C0.0906
%
G90
G05
T1
X1.8474Y-2.8542
T2
X1.64Y-2.34
X1.66Y-2.84
X1.68Y-2.2358
X1.71Y-2.51
X1.73Y-2.76
X1.74Y-1.76
X1.74Y-1.78
X1.74Y-1.8
X1.74Y-1.82
X1.74Y-1.84
X1.74Y-1.86
X1.75Y-2.66
X1.76Y-1.76
X1.76Y-1.78
X1.76Y-1.8
X1.76Y-1.82
X1.76Y-1.84
X1.76Y-1.86
X1.77Y-2.52
X1.77Y-2.54
X1.77Y-2.56
X1.78Y-1.76
X1.78Y-1.78
X1.78Y-1.8
X1.78Y-1.82
X1.78Y-1.84
X1.78Y-1.86
X1.79Y-2.56
X1.79Y-2.87
X1.8Y-1.7
X1.8Y-1.72
X1.8Y-1.74
X1.8Y-1.76
X1.8Y-1.78
X1.8Y-1.8
X1.8Y-1.82
X1.8Y-1.84
X1.8Y-1.86
X1.8Y-1.88
X1.8Y-1.9
X1.8Y-1.92
X1.8Y-2.96
X1.82Y-2.76
X1.87Y-2.63
X1.89Y-2.31
X1.93Y-2.69
X1.94Y-1.8
X1.94Y-2.54
X1.94Y-2.77
X1.99Y-2.75
X1.9911Y-2.72
X1.9963Y-2.39
X2.0Y-2.57
X2.01Y-2.9301
X2.04Y-2.87
X2.0672Y-2.4
X2.075Y-2.765
X2.11Y-2.29
X2.12Y-2.37
X2.14Y-1.79
X2.16Y-2.96
X2.1679Y-2.88
X2.17Y-2.4
X2.18Y-2.14
X2.18Y-2.16
X2.18Y-2.18
X2.2Y-2.45
X2.22Y-2.79
X2.22Y-2.85
X2.27Y-2.48
X2.2839Y-2.59
X2.31Y-2.2942
X2.32Y-2.9399
X2.34Y-2.26
X2.3457Y-2.47
X2.346Y-1.8011
X2.3784Y-3.09
X2.3799Y-3.15
X2.39Y-2.31
X2.4Y-2.92
X2.41Y-3.06
X2.41Y-3.24
X2.4215Y-2.9162
X2.4274Y-2.2074
X2.436Y-2.79
X2.44Y-2.73
X2.45Y-2.3
X2.4599Y-1.361
X2.46Y-1.4
X2.47Y-2.2
X2.47Y-2.71
X2.49Y-2.37
X2.5Y-1.9016
X2.5Y-1.9244
X2.5Y-2.7
X2.5Y-3.13
X2.51Y-2.45
X2.5101Y-1.81
X2.535Y-2.705
X2.5357Y-2.38
X2.5455Y-3.1345
X2.5672Y-2.3672
X2.5772Y-2.7028
X2.61Y-2.28
X2.61Y-2.33
X2.6105Y-3.02
X2.62Y-1.6899
X2.63Y-2.79
X2.63Y-2.96
X2.6304Y-1.8417
X2.6498Y-3.0002
X2.66Y-1.74
X2.66Y-1.91
X2.67Y-1.93
X2.675Y-2.455
X2.68Y-2.14
X2.685Y-1.565
X2.71Y-1.89
X2.7143Y-1.5557
X2.715Y-3.125
X2.72Y-2.11
X2.73Y-1.87
X2.73Y-2.34
X2.73Y-2.5
X2.73Y-2.56
X2.73Y-2.58
X2.73Y-2.6
X2.73Y-2.62
X2.7457Y-1.57
X2.75Y-2.45
X2.75Y-2.5
X2.75Y-2.62
X2.77Y-2.5
X2.77Y-2.62
X2.7772Y-1.59
X2.78Y-2.1
X2.78Y-3.12
X2.79Y-2.5
X2.79Y-2.62
X2.81Y-2.5
X2.81Y-2.62
X2.82Y-1.9
X2.83Y-2.48
X2.83Y-2.58
X2.83Y-2.62
X2.85Y-2.5
X2.85Y-2.62
X2.87Y-1.93
X2.87Y-2.06
X2.87Y-2.5
X2.87Y-2.52
X2.87Y-2.54
X2.87Y-2.56
X2.87Y-2.58
X2.87Y-2.6
X2.87Y-2.62
X2.87Y-3.1042
X2.87Y-3.2242
X2.89Y-2.28
X2.91Y-1.68
X2.91Y-1.96
X2.91Y-2.51
X2.95Y-1.68
X2.96Y-1.86
X2.97Y-1.91
X2.97Y-2.35
X2.98Y-2.31
X3.0Y-1.66
X3.0016Y-2.48
X3.01Y-2.35
X3.03Y-2.33
X3.04Y-1.61
X3.0495Y-2.3584
X3.06Y-1.86
X3.06Y-1.9023
X3.06Y-2.14
X3.06Y-2.51
X3.0601Y-2.54
X3.07Y-2.33
X3.0765Y-2.3635
X3.08Y-1.7
X3.0999Y-1.6096
X3.1Y-2.28
X3.119Y-2.1697
X3.12Y-2.97
X3.1249Y-3.03
X3.14Y-1.84
X3.15Y-2.4501
X3.15Y-2.59
X3.15Y-3.14
X3.18Y-2.54
X3.2Y-2.38
X3.2Y-2.4
X3.2Y-2.42
X3.2Y-2.44
X3.2Y-2.46
X3.21Y-1.87
X3.22Y-1.71
X3.22Y-1.9693
X3.22Y-1.99
X3.22Y-2.46
X3.23Y-2.26
X3.24Y-2.46
X3.25Y-2.26
X3.255Y-2.935
X3.26Y-1.45
X3.26Y-2.46
X3.2656Y-1.64
X3.27Y-1.87
X3.27Y-2.26
X3.27Y-3.15
X3.2716Y-1.7495
X3.28Y-2.46
X3.28Y-3.05
X3.3Y-2.46
X3.3005Y-2.39
X3.3073Y-1.6768
X3.31Y-3.0
X3.32Y-1.48
X3.32Y-2.26
X3.32Y-2.46
X3.3293Y-1.8105
X3.34Y-2.26
X3.34Y-2.42
X3.34Y-2.44
X3.34Y-2.46
X3.3496Y-1.8
X3.35Y-3.1
X3.36Y-2.26
X3.36Y-2.3401
X3.36Y-2.42
X3.36Y-3.02
X3.36Y-3.165
X3.37Y-1.69
X3.37Y-1.82
X3.38Y-1.63
X3.38Y-2.26
X3.38Y-2.42
X3.3956Y-1.6756
X3.4Y-1.4804
X3.4Y-2.26
X3.4Y-2.28
X3.4Y-2.3
X3.4Y-2.32
X3.4Y-2.34
X3.4Y-2.36
X3.4Y-2.38
X3.4Y-2.4
X3.44Y-1.77
X3.45Y-1.4596
X3.47Y-1.95
X3.49Y-1.59
X3.5Y-1.9596
X3.52Y-3.0305
X3.53Y-2.01
X3.54Y-3.19
X3.55Y-2.9958
X3.55Y-3.12
X3.55Y-3.2401
X3.5639Y-1.94
X3.57Y-1.84
X3.5788Y-1.4596
X3.58Y-3.24
X3.6Y-1.65
X3.6Y-1.73
X3.6Y-1.81
X3.62Y-1.4804
X3.62Y-1.75
X3.6216Y-1.88
X3.655Y-1.525
X3.67Y-1.81
X3.6704Y-1.68
X3.68Y-1.73
X3.71Y-1.4596
X3.71Y-1.98
X3.74Y-1.8401
X3.83Y-2.94
X3.85Y-3.22
X3.89Y-3.12
X3.91Y-2.85
X3.91Y-3.05
X3.93Y-3.0183
X3.95Y-3.09
X3.97Y-2.8
X3.97Y-3.2201
X4.0Y-2.8002
X4.0Y-2.92
X4.021Y-2.92
X4.03Y-1.73
X4.03Y-3.06
X4.04Y-3.22
X4.0483Y-2.26
X4.0616Y-2.83
X4.0744Y-2.1426
X4.0826Y-2.9803
X4.09Y-3.09
X4.0995Y-1.47
X4.11Y-2.32
X4.12Y-1.81
X4.1301Y-1.44
X4.14Y-2.23
X4.14Y-2.9191
X4.15Y-2.0
X4.15Y-3.09
X4.16Y-1.69
X4.18Y-2.0001
X4.18Y-2.3599
X4.18Y-3.21
X4.21Y-2.3704
X4.22Y-2.06
X4.23Y-2.94
X4.24Y-1.79
X4.25Y-3.05
X4.25Y-3.13
X4.26Y-3.21
X4.26Y-3.2586
X4.2798Y-1.4198
X4.28Y-1.92
X4.28Y-2.1
X4.28Y-2.19
X4.29Y-2.31
X4.29Y-2.91
X4.29Y-3.03
X4.3Y-2.81
X4.33Y-1.7583
X4.35Y-2.06
X4.35Y-3.24
X4.36Y-3.13
X4.39Y-1.41
X4.39Y-1.47
X4.4098Y-2.13
X4.41Y-2.16
X4.41Y-2.19
X4.42Y-1.99
X4.42Y-2.9
X4.42Y-3.16
X4.43Y-2.39
X4.45Y-2.6
X4.48Y-2.02
X4.4952Y-2.3526
X4.4952Y-2.4274
X4.5Y-2.59
X4.5016Y-1.68
X4.51Y-2.32
X4.51Y-2.46
X4.53Y-2.5299
X4.54Y-1.61
X4.55Y-1.69
X4.5622Y-1.89
X4.57Y-1.68
X4.57Y-2.07
X4.5738Y-1.51
X4.6Y-2.17
X4.6Y-2.46
X4.61Y-1.78
X4.6236Y-2.4196
X4.6252Y-2.4749
X4.6275Y-2.3419
X4.6335Y-2.3737
X4.6368Y-2.1482
X4.6395Y-1.56
X4.65Y-2.59
X4.65Y-3.2394
X4.6516Y-1.9116
X4.66Y-2.76
X4.6604Y-1.49
X4.67Y-1.68
X4.67Y-3.2394
X4.69Y-3.2394
X4.7002Y-2.11
X4.7028Y-1.8472
X4.71Y-1.911
X4.71Y-2.53
X4.71Y-2.79
X4.71Y-2.92
X4.71Y-2.94
X4.71Y-2.96
X4.71Y-2.98
X4.71Y-3.2394
X4.72Y-1.44
X4.73Y-1.84
X4.7306Y-3.2394
X4.74Y-1.6352
X4.74Y-1.92
X4.7404Y-2.5796
X4.75Y-2.53
X4.76Y-2.5901
X4.7612Y-2.1001
X4.78Y-2.66
X4.7821Y-2.46
X4.79Y-1.37
X4.79Y-1.57
X4.7984Y-2.3675
X4.8Y-1.47
X4.8Y-1.67
X4.8Y-2.1
X4.8Y-2.2202
X4.8Y-2.48
X4.8Y-2.79
X4.805Y-2.545
X4.81Y-2.62
X4.82Y-1.47
X4.82Y-2.3
X4.8221Y-2.6426
X4.8225Y-3.0751
X4.83Y-2.56
X4.83Y-3.24
X4.84Y-2.14
X4.84Y-2.24
X4.84Y-2.7361
X4.84Y-2.8601
X4.84Y-3.0389
X4.84Y-2.9211
X4.85Y-1.37
X4.8568Y-2.48
X4.8585Y-2.7
X4.86Y-2.67
X4.86Y-2.93
X4.87Y-2.43
X4.8787Y-2.86
X4.89Y-2.7401
X4.89Y-2.8011
X4.8945Y-2.9255
X4.8981Y-2.5386
X4.9Y-3.0406
X4.91Y-1.6
X4.91Y-2.21
X4.91Y-2.23
X4.9184Y-2.7779
X4.919Y-2.98
X4.92Y-2.4691
X4.92Y-2.65
X4.92Y-2.81
X4.92Y-2.87
X4.92Y-3.05
X4.92Y-3.1
X4.9201Y-2.4
X4.9215Y-2.7201
X4.93Y-1.6653
X4.93Y-1.73
X4.95Y-2.44
X4.95Y-2.8275
X4.95Y-2.98
X4.9589Y-2.7989
X4.96Y-1.56
X4.96Y-3.04
X4.98Y-2.04
X4.98Y-2.59
X4.9816Y-3.13
X4.9819Y-1.6044
X4.9979Y-2.81
X4.9979Y-2.86
X4.9999Y-1.6506
X5.0001Y-2.6301
X5.03Y-1.38
X5.03Y-2.95
X5.03Y-2.97
X5.03Y-3.07
X5.04Y-1.55
X5.04Y-1.6123
X5.04Y-3.1879
X5.04Y-3.271
X5.0602Y-2.7479
X5.0645Y-2.6989
X5.07Y-2.8
X5.0779Y-1.6
X5.0786Y-1.67
X5.08Y-3.1016
X5.09Y-1.83
X5.09Y-2.54
X5.1Y-1.4901
X5.1Y-1.87
X5.1035Y-2.6534
X5.11Y-3.19
X5.11Y-3.27
X5.1179Y-2.6954
X5.12Y-1.36
X5.1276Y-2.5671
X5.1299Y-2.9496
X5.13Y-2.8716
X5.13Y-3.08
X5.1319Y-1.5865
X5.15Y-1.75
X5.153Y-2.5434
X5.16Y-1.65
X5.16Y-2.86
X5.1674Y-3.0326
X5.17Y-1.97
X5.17Y-2.94
X5.1868Y-2.7633
X5.19Y-1.42
X5.19Y-1.45
X5.19Y-2.66
X5.2Y-2.84
X5.201Y-2.7482
X5.2021Y-2.6
X5.21Y-1.54
X5.21Y-1.56
X5.22Y-2.93
X5.22Y-3.0021
X5.23Y-1.54
X5.23Y-1.56
X5.23Y-2.84
X5.23Y-2.86
X5.24Y-2.5991
X5.24Y-2.92
X5.2474Y-2.3174
X5.2481Y-2.6813
X5.25Y-1.54
X5.25Y-1.56
X5.25Y-2.74
X5.26Y-2.6456
X5.26Y-2.84
X5.26Y-2.86
X5.29Y-2.62
X5.29Y-2.7696
X5.29Y-3.11
X5.3Y-2.59
X5.3Y-2.8127
X5.3091Y-2.37
X5.31Y-2.89
X5.3101Y-1.42
X5.32Y-2.56
X5.32Y-2.59
X5.33Y-2.37
X5.33Y-2.39
X5.33Y-2.41
X5.33Y-2.43
X5.33Y-2.45
X5.33Y-2.47
X5.33Y-2.49
X5.33Y-2.51
X5.33Y-2.53
X5.33Y-2.9
X5.34Y-1.83
X5.34Y-2.56
X5.34Y-2.59
X5.3484Y-2.777
X5.35Y-1.53
X5.35Y-1.55
X5.35Y-1.57
X5.35Y-2.37
X5.35Y-2.39
X5.35Y-2.41
X5.35Y-2.43
X5.35Y-2.45
X5.35Y-2.47
X5.35Y-2.49
X5.35Y-2.51
X5.35Y-2.53
X5.35Y-2.82
X5.36Y-2.56
X5.36Y-2.59
X5.37Y-1.53
X5.37Y-1.55
X5.37Y-1.57
X5.37Y-2.24
X5.37Y-2.37
X5.37Y-2.39
X5.37Y-2.41
X5.37Y-2.43
X5.37Y-2.45
X5.37Y-2.47
X5.37Y-2.49
X5.37Y-2.51
X5.37Y-2.53
X5.39Y-2.37
X5.39Y-2.39
X5.39Y-2.41
X5.39Y-2.43
X5.39Y-2.45
X5.39Y-2.47
X5.39Y-2.49
X5.39Y-2.51
X5.39Y-2.53
X5.42Y-2.43
X5.43Y-1.5399
X5.43Y-2.3
X5.43Y-2.32
X5.43Y-2.34
X5.43Y-2.36
X5.45Y-2.57
X5.46Y-2.3
X5.46Y-2.32
X5.46Y-2.34
X5.46Y-2.36
X5.49Y-2.26
X5.49Y-2.43
X5.49Y-2.46
X5.5074Y-2.02
X5.5074Y-2.1
X5.51Y-1.53
X5.51Y-1.55
X5.5155Y-2.4187
X5.52Y-2.5624
X5.53Y-1.53
X5.53Y-1.55
X5.5405Y-2.4
X5.5471Y-2.99
T3
X2.22Y-2.9103
X2.22Y-2.9497
T5
X1.9575Y-1.41
X2.0362Y-1.41
X2.115Y-1.41
X2.1937Y-1.41
X2.5874Y-1.41
X2.6661Y-1.41
X2.7449Y-1.41
X2.8236Y-1.41
X2.9024Y-1.41
X2.9811Y-1.41
X3.0598Y-1.41
X3.1386Y-1.41
X3.2173Y-1.41
X3.2961Y-1.41
X3.3748Y-1.41
X3.4535Y-1.41
X3.5323Y-1.41
X3.611Y-1.41
X3.6898Y-1.41
X3.7685Y-1.41
X3.8472Y-1.41
X3.926Y-1.41
T7
X1.8122Y-3.0454
X1.9106Y-3.0454
X1.9894Y-3.0454
X2.0878Y-3.0454
T8
X5.47Y-1.6873
X5.47Y-1.8527
T9
X1.6913Y-3.152
X2.2087Y-3.152
T4
G00X2.4699Y-3.1006
M15
G01X2.4699Y-3.0572
M16
G05
G00X2.4699Y-3.2592
M15
G01X2.4699Y-3.2277
M16
G05
G00X2.8101Y-3.1006
M15
G01X2.8101Y-3.0572
M16
G05
G00X2.8101Y-3.2592
M15
G01X2.8101Y-3.2277
M16
G05
G00X5.1899Y-3.1212
M15
G01X5.1899Y-3.0779
M16
G05
G00X5.1899Y-3.2798
M15
G01X5.1899Y-3.2483
M16
G05
G00X5.5301Y-3.1212
M15
G01X5.5301Y-3.0779
M16
G05
G00X5.5301Y-3.2798
M15
G01X5.5301Y-3.2483
M16
G05
T6
G00X2.9394Y-2.9476
M15
G01X2.9394Y-2.9318
M16
G05
G00X2.9394Y-3.1051
M15
G01X2.9394Y-3.0893
M16
G05
G00X2.9394Y-3.2232
M15
G01X2.9394Y-3.2074
M16
G05
G00X3.1206Y-2.9043
M15
G01X3.1206Y-2.8885
M16
G05
T0
M30
