%TF.GenerationSoftware,KiCad,Pcbnew,(7.0.0-rc1-253-g7844602210-dirty)*%
%TF.CreationDate,2023-01-20T20:56:40+08:00*%
%TF.ProjectId,VFDFFT,56464446-4654-42e6-9b69-6361645f7063,rev?*%
%TF.SameCoordinates,Original*%
%TF.FileFunction,Paste,Top*%
%TF.FilePolarity,Positive*%
%FSLAX46Y46*%
G04 Gerber Fmt 4.6, Leading zero omitted, Abs format (unit mm)*
G04 Created by KiCad (PCBNEW (7.0.0-rc1-253-g7844602210-dirty)) date 2023-01-20 20:56:40*
%MOMM*%
%LPD*%
G01*
G04 APERTURE LIST*
G04 Aperture macros list*
%AMRoundRect*
0 Rectangle with rounded corners*
0 $1 Rounding radius*
0 $2 $3 $4 $5 $6 $7 $8 $9 X,Y pos of 4 corners*
0 Add a 4 corners polygon primitive as box body*
4,1,4,$2,$3,$4,$5,$6,$7,$8,$9,$2,$3,0*
0 Add four circle primitives for the rounded corners*
1,1,$1+$1,$2,$3*
1,1,$1+$1,$4,$5*
1,1,$1+$1,$6,$7*
1,1,$1+$1,$8,$9*
0 Add four rect primitives between the rounded corners*
20,1,$1+$1,$2,$3,$4,$5,0*
20,1,$1+$1,$4,$5,$6,$7,0*
20,1,$1+$1,$6,$7,$8,$9,0*
20,1,$1+$1,$8,$9,$2,$3,0*%
%AMFreePoly0*
4,1,9,3.862500,-0.866500,0.737500,-0.866500,0.737500,-0.450000,-0.737500,-0.450000,-0.737500,0.450000,0.737500,0.450000,0.737500,0.866500,3.862500,0.866500,3.862500,-0.866500,3.862500,-0.866500,$1*%
G04 Aperture macros list end*
%ADD10C,0.100000*%
%ADD11R,0.800000X1.100000*%
%ADD12R,2.000000X1.100000*%
%ADD13R,0.900000X0.800000*%
%ADD14R,0.350000X0.430000*%
%ADD15R,1.050000X0.720000*%
%ADD16RoundRect,0.200000X0.200000X0.275000X-0.200000X0.275000X-0.200000X-0.275000X0.200000X-0.275000X0*%
%ADD17RoundRect,0.150000X-0.512500X-0.150000X0.512500X-0.150000X0.512500X0.150000X-0.512500X0.150000X0*%
%ADD18R,0.500000X1.140000*%
%ADD19R,0.300000X1.140000*%
%ADD20RoundRect,0.200000X-0.200000X-0.275000X0.200000X-0.275000X0.200000X0.275000X-0.200000X0.275000X0*%
%ADD21R,2.000000X0.900000*%
%ADD22RoundRect,0.225000X0.250000X-0.225000X0.250000X0.225000X-0.250000X0.225000X-0.250000X-0.225000X0*%
%ADD23RoundRect,0.225000X-0.250000X0.225000X-0.250000X-0.225000X0.250000X-0.225000X0.250000X0.225000X0*%
%ADD24RoundRect,0.075000X0.725000X0.075000X-0.725000X0.075000X-0.725000X-0.075000X0.725000X-0.075000X0*%
%ADD25RoundRect,0.075000X0.075000X0.725000X-0.075000X0.725000X-0.075000X-0.725000X0.075000X-0.725000X0*%
%ADD26R,0.600000X0.700000*%
%ADD27RoundRect,0.200000X-0.275000X0.200000X-0.275000X-0.200000X0.275000X-0.200000X0.275000X0.200000X0*%
%ADD28RoundRect,0.250000X-0.250000X-0.475000X0.250000X-0.475000X0.250000X0.475000X-0.250000X0.475000X0*%
%ADD29RoundRect,0.200000X0.275000X-0.200000X0.275000X0.200000X-0.275000X0.200000X-0.275000X-0.200000X0*%
%ADD30RoundRect,0.100000X-0.637500X-0.100000X0.637500X-0.100000X0.637500X0.100000X-0.637500X0.100000X0*%
%ADD31RoundRect,0.150000X-0.587500X-0.150000X0.587500X-0.150000X0.587500X0.150000X-0.587500X0.150000X0*%
%ADD32R,0.800000X0.900000*%
%ADD33RoundRect,0.250000X0.475000X-0.250000X0.475000X0.250000X-0.475000X0.250000X-0.475000X-0.250000X0*%
%ADD34RoundRect,0.225000X0.225000X0.250000X-0.225000X0.250000X-0.225000X-0.250000X0.225000X-0.250000X0*%
%ADD35RoundRect,0.225000X-0.225000X-0.250000X0.225000X-0.250000X0.225000X0.250000X-0.225000X0.250000X0*%
%ADD36R,0.900000X1.200000*%
%ADD37RoundRect,0.250000X-1.100000X0.325000X-1.100000X-0.325000X1.100000X-0.325000X1.100000X0.325000X0*%
%ADD38RoundRect,0.150000X0.150000X-0.587500X0.150000X0.587500X-0.150000X0.587500X-0.150000X-0.587500X0*%
%ADD39RoundRect,0.250000X-0.925000X0.787500X-0.925000X-0.787500X0.925000X-0.787500X0.925000X0.787500X0*%
%ADD40R,0.900000X2.000000*%
%ADD41O,0.499999X0.249999*%
%ADD42R,0.600000X0.450000*%
%ADD43R,0.400000X0.600000*%
%ADD44R,1.290000X2.350000*%
%ADD45RoundRect,0.150000X0.650000X0.150000X-0.650000X0.150000X-0.650000X-0.150000X0.650000X-0.150000X0*%
%ADD46R,0.600000X0.400000*%
%ADD47R,1.500000X2.400000*%
%ADD48R,2.400000X1.500000*%
%ADD49RoundRect,0.150000X-0.150000X0.587500X-0.150000X-0.587500X0.150000X-0.587500X0.150000X0.587500X0*%
%ADD50RoundRect,0.250000X-1.075000X0.375000X-1.075000X-0.375000X1.075000X-0.375000X1.075000X0.375000X0*%
%ADD51RoundRect,0.250000X0.375000X0.850000X-0.375000X0.850000X-0.375000X-0.850000X0.375000X-0.850000X0*%
%ADD52RoundRect,0.250000X0.787500X1.025000X-0.787500X1.025000X-0.787500X-1.025000X0.787500X-1.025000X0*%
%ADD53R,1.100000X1.100000*%
%ADD54RoundRect,0.250000X-0.450000X0.262500X-0.450000X-0.262500X0.450000X-0.262500X0.450000X0.262500X0*%
%ADD55R,0.700000X0.600000*%
%ADD56RoundRect,0.160000X0.160000X-0.245000X0.160000X0.245000X-0.160000X0.245000X-0.160000X-0.245000X0*%
%ADD57RoundRect,0.093750X0.106250X-0.093750X0.106250X0.093750X-0.106250X0.093750X-0.106250X-0.093750X0*%
%ADD58RoundRect,0.218750X0.256250X-0.218750X0.256250X0.218750X-0.256250X0.218750X-0.256250X-0.218750X0*%
%ADD59RoundRect,0.218750X-0.256250X0.218750X-0.256250X-0.218750X0.256250X-0.218750X0.256250X0.218750X0*%
%ADD60RoundRect,0.150000X-0.725000X-0.150000X0.725000X-0.150000X0.725000X0.150000X-0.725000X0.150000X0*%
%ADD61RoundRect,0.250000X-0.375000X-1.075000X0.375000X-1.075000X0.375000X1.075000X-0.375000X1.075000X0*%
%ADD62R,1.700000X0.600000*%
%ADD63R,0.600000X1.700000*%
%ADD64C,1.200000*%
%ADD65R,1.450000X0.450000*%
%ADD66RoundRect,0.218750X-0.218750X-0.256250X0.218750X-0.256250X0.218750X0.256250X-0.218750X0.256250X0*%
%ADD67RoundRect,0.250000X0.325000X1.100000X-0.325000X1.100000X-0.325000X-1.100000X0.325000X-1.100000X0*%
%ADD68R,2.600000X2.050000*%
%ADD69RoundRect,0.250000X1.075000X-0.375000X1.075000X0.375000X-1.075000X0.375000X-1.075000X-0.375000X0*%
%ADD70R,3.500000X4.100000*%
%ADD71R,0.400000X0.900000*%
%ADD72RoundRect,0.250000X0.625000X-0.312500X0.625000X0.312500X-0.625000X0.312500X-0.625000X-0.312500X0*%
%ADD73RoundRect,0.250000X-0.625000X0.312500X-0.625000X-0.312500X0.625000X-0.312500X0.625000X0.312500X0*%
%ADD74R,0.750000X0.650000*%
%ADD75R,0.500000X0.250000*%
%ADD76RoundRect,0.250000X0.262500X0.450000X-0.262500X0.450000X-0.262500X-0.450000X0.262500X-0.450000X0*%
%ADD77R,0.450000X1.450000*%
%ADD78R,1.400000X0.300000*%
%ADD79R,1.300000X0.900000*%
%ADD80FreePoly0,0.000000*%
%ADD81RoundRect,0.167500X0.167500X0.312500X-0.167500X0.312500X-0.167500X-0.312500X0.167500X-0.312500X0*%
%ADD82RoundRect,0.062500X0.362500X0.062500X-0.362500X0.062500X-0.362500X-0.062500X0.362500X-0.062500X0*%
%ADD83RoundRect,0.250000X0.250000X0.475000X-0.250000X0.475000X-0.250000X-0.475000X0.250000X-0.475000X0*%
%ADD84RoundRect,0.250000X-0.475000X0.250000X-0.475000X-0.250000X0.475000X-0.250000X0.475000X0.250000X0*%
%ADD85RoundRect,0.218750X-0.218750X-0.581250X0.218750X-0.581250X0.218750X0.581250X-0.218750X0.581250X0*%
%ADD86RoundRect,0.250000X0.285000X0.285000X-0.285000X0.285000X-0.285000X-0.285000X0.285000X-0.285000X0*%
%ADD87RoundRect,0.062500X0.337500X0.062500X-0.337500X0.062500X-0.337500X-0.062500X0.337500X-0.062500X0*%
%ADD88RoundRect,0.062500X0.062500X0.337500X-0.062500X0.337500X-0.062500X-0.337500X0.062500X-0.337500X0*%
%ADD89RoundRect,0.150000X0.587500X0.150000X-0.587500X0.150000X-0.587500X-0.150000X0.587500X-0.150000X0*%
%ADD90R,0.450000X0.600000*%
%ADD91R,2.350000X1.290000*%
%ADD92RoundRect,0.250000X0.850000X-0.375000X0.850000X0.375000X-0.850000X0.375000X-0.850000X-0.375000X0*%
G04 APERTURE END LIST*
%TO.C,U9*%
G36*
X47234000Y-73122000D02*
G01*
X46614002Y-73122000D01*
X46614002Y-71872000D01*
X47234000Y-71872000D01*
X47234000Y-73122000D01*
G37*
D10*
X47234000Y-73122000D02*
X46614002Y-73122000D01*
X46614002Y-71872000D01*
X47234000Y-71872000D01*
X47234000Y-73122000D01*
%TD*%
D11*
%TO.C,D9*%
X107065999Y-37083999D03*
D12*
X108965999Y-37083999D03*
%TD*%
D13*
%TO.C,X2*%
X70419999Y-65573999D03*
X71819999Y-65573999D03*
X71819999Y-64473999D03*
X70419999Y-64473999D03*
%TD*%
D14*
%TO.C,Q5*%
X129381999Y-41431999D03*
X129381999Y-40781999D03*
D15*
X130349999Y-40296999D03*
D14*
X129381999Y-40131999D03*
X131317999Y-40131999D03*
X131317999Y-40781999D03*
X131317999Y-41431999D03*
D15*
X130349999Y-41266999D03*
%TD*%
D16*
%TO.C,R16*%
X125793000Y-62738000D03*
X124143000Y-62738000D03*
%TD*%
D17*
%TO.C,Q6*%
X114178500Y-59756000D03*
X114178500Y-60706000D03*
X114178500Y-61656000D03*
X116453500Y-61656000D03*
X116453500Y-60706000D03*
X116453500Y-59756000D03*
%TD*%
D16*
%TO.C,R28*%
X112585000Y-35814000D03*
X110935000Y-35814000D03*
%TD*%
D18*
%TO.C,J15*%
X70255999Y-77636999D03*
X69455999Y-77636999D03*
D19*
X68305999Y-77636999D03*
X67305999Y-77636999D03*
X66805999Y-77636999D03*
X65805999Y-77636999D03*
D18*
X64655999Y-77636999D03*
X63855999Y-77636999D03*
D19*
X65305999Y-77636999D03*
X66305999Y-77636999D03*
X67805999Y-77636999D03*
X68805999Y-77636999D03*
%TD*%
D20*
%TO.C,R29*%
X111189000Y-55626000D03*
X112839000Y-55626000D03*
%TD*%
D21*
%TO.C,J7*%
X87451999Y-55847999D03*
X84251999Y-53847999D03*
X87451999Y-51847999D03*
%TD*%
D16*
%TO.C,R68*%
X82359000Y-44450000D03*
X80709000Y-44450000D03*
%TD*%
D22*
%TO.C,C41*%
X121920000Y-57163000D03*
X121920000Y-55613000D03*
%TD*%
D23*
%TO.C,C96*%
X72898000Y-77965000D03*
X72898000Y-79515000D03*
%TD*%
D24*
%TO.C,U6*%
X80319000Y-59340000D03*
X80319000Y-58840000D03*
X80319000Y-58340000D03*
X80319000Y-57840000D03*
X80319000Y-57340000D03*
X80319000Y-56840000D03*
X80319000Y-56340000D03*
X80319000Y-55840000D03*
X80319000Y-55340000D03*
X80319000Y-54840000D03*
X80319000Y-54340000D03*
X80319000Y-53840000D03*
X80319000Y-53340000D03*
X80319000Y-52840000D03*
X80319000Y-52340000D03*
X80319000Y-51840000D03*
X80319000Y-51340000D03*
X80319000Y-50840000D03*
X80319000Y-50340000D03*
X80319000Y-49840000D03*
X80319000Y-49340000D03*
X80319000Y-48840000D03*
X80319000Y-48340000D03*
X80319000Y-47840000D03*
X80319000Y-47340000D03*
D25*
X78644000Y-45665000D03*
X78144000Y-45665000D03*
X77644000Y-45665000D03*
X77144000Y-45665000D03*
X76644000Y-45665000D03*
X76144000Y-45665000D03*
X75644000Y-45665000D03*
X75144000Y-45665000D03*
X74644000Y-45665000D03*
X74144000Y-45665000D03*
X73644000Y-45665000D03*
X73144000Y-45665000D03*
X72644000Y-45665000D03*
X72144000Y-45665000D03*
X71644000Y-45665000D03*
X71144000Y-45665000D03*
X70644000Y-45665000D03*
X70144000Y-45665000D03*
X69644000Y-45665000D03*
X69144000Y-45665000D03*
X68644000Y-45665000D03*
X68144000Y-45665000D03*
X67644000Y-45665000D03*
X67144000Y-45665000D03*
X66644000Y-45665000D03*
D24*
X64969000Y-47340000D03*
X64969000Y-47840000D03*
X64969000Y-48340000D03*
X64969000Y-48840000D03*
X64969000Y-49340000D03*
X64969000Y-49840000D03*
X64969000Y-50340000D03*
X64969000Y-50840000D03*
X64969000Y-51340000D03*
X64969000Y-51840000D03*
X64969000Y-52340000D03*
X64969000Y-52840000D03*
X64969000Y-53340000D03*
X64969000Y-53840000D03*
X64969000Y-54340000D03*
X64969000Y-54840000D03*
X64969000Y-55340000D03*
X64969000Y-55840000D03*
X64969000Y-56340000D03*
X64969000Y-56840000D03*
X64969000Y-57340000D03*
X64969000Y-57840000D03*
X64969000Y-58340000D03*
X64969000Y-58840000D03*
X64969000Y-59340000D03*
D25*
X66644000Y-61015000D03*
X67144000Y-61015000D03*
X67644000Y-61015000D03*
X68144000Y-61015000D03*
X68644000Y-61015000D03*
X69144000Y-61015000D03*
X69644000Y-61015000D03*
X70144000Y-61015000D03*
X70644000Y-61015000D03*
X71144000Y-61015000D03*
X71644000Y-61015000D03*
X72144000Y-61015000D03*
X72644000Y-61015000D03*
X73144000Y-61015000D03*
X73644000Y-61015000D03*
X74144000Y-61015000D03*
X74644000Y-61015000D03*
X75144000Y-61015000D03*
X75644000Y-61015000D03*
X76144000Y-61015000D03*
X76644000Y-61015000D03*
X77144000Y-61015000D03*
X77644000Y-61015000D03*
X78144000Y-61015000D03*
X78644000Y-61015000D03*
%TD*%
D16*
%TO.C,R43*%
X46799000Y-69088000D03*
X45149000Y-69088000D03*
%TD*%
D26*
%TO.C,D16*%
X103061999Y-79501999D03*
X101661999Y-79501999D03*
%TD*%
D27*
%TO.C,R80*%
X47498000Y-45403000D03*
X47498000Y-47053000D03*
%TD*%
D28*
%TO.C,C15*%
X137988000Y-50292000D03*
X139888000Y-50292000D03*
%TD*%
D29*
%TO.C,R31*%
X121920000Y-54165000D03*
X121920000Y-52515000D03*
%TD*%
D30*
%TO.C,U15*%
X84005500Y-38690000D03*
X84005500Y-39340000D03*
X84005500Y-39990000D03*
X84005500Y-40640000D03*
X84005500Y-41290000D03*
X84005500Y-41940000D03*
X84005500Y-42590000D03*
X89730500Y-42590000D03*
X89730500Y-41940000D03*
X89730500Y-41290000D03*
X89730500Y-40640000D03*
X89730500Y-39990000D03*
X89730500Y-39340000D03*
X89730500Y-38690000D03*
%TD*%
D31*
%TO.C,Q8*%
X121158000Y-41534000D03*
X121158000Y-43434000D03*
X123033000Y-42484000D03*
%TD*%
D22*
%TO.C,C23*%
X118110000Y-65037000D03*
X118110000Y-63487000D03*
%TD*%
D27*
%TO.C,R74*%
X86614000Y-44133000D03*
X86614000Y-45783000D03*
%TD*%
D29*
%TO.C,R8*%
X125730000Y-73469000D03*
X125730000Y-71819000D03*
%TD*%
D20*
%TO.C,R76*%
X59373000Y-43180000D03*
X61023000Y-43180000D03*
%TD*%
D32*
%TO.C,X1*%
X58631999Y-64323999D03*
X58631999Y-65723999D03*
X59731999Y-65723999D03*
X59731999Y-64323999D03*
%TD*%
D33*
%TO.C,C88*%
X99822000Y-75880000D03*
X99822000Y-73980000D03*
%TD*%
D27*
%TO.C,R34*%
X124968000Y-39815000D03*
X124968000Y-41465000D03*
%TD*%
D20*
%TO.C,R84*%
X108332000Y-71374000D03*
X109982000Y-71374000D03*
%TD*%
%TO.C,R35*%
X120841000Y-39878000D03*
X122491000Y-39878000D03*
%TD*%
D34*
%TO.C,C46*%
X44717000Y-43688000D03*
X43167000Y-43688000D03*
%TD*%
D35*
%TO.C,C79*%
X89662000Y-47752000D03*
X91212000Y-47752000D03*
%TD*%
D36*
%TO.C,D14*%
X106807999Y-77469999D03*
X110107999Y-77469999D03*
%TD*%
D29*
%TO.C,R45*%
X73914000Y-64579000D03*
X73914000Y-62929000D03*
%TD*%
D22*
%TO.C,C10*%
X131826000Y-66815000D03*
X131826000Y-65265000D03*
%TD*%
D37*
%TO.C,C42*%
X119380000Y-55167000D03*
X119380000Y-58117000D03*
%TD*%
D38*
%TO.C,Q11*%
X49088000Y-46911500D03*
X50988000Y-46911500D03*
X50038000Y-45036500D03*
%TD*%
D20*
%TO.C,R22*%
X115253000Y-54102000D03*
X116903000Y-54102000D03*
%TD*%
D22*
%TO.C,C66*%
X85344000Y-60211000D03*
X85344000Y-58661000D03*
%TD*%
%TO.C,C43*%
X58674000Y-62751000D03*
X58674000Y-61201000D03*
%TD*%
D20*
%TO.C,R48*%
X61659000Y-36322000D03*
X63309000Y-36322000D03*
%TD*%
D35*
%TO.C,C80*%
X92697000Y-47752000D03*
X94247000Y-47752000D03*
%TD*%
D39*
%TO.C,C31*%
X112268000Y-47067500D03*
X112268000Y-51992500D03*
%TD*%
D35*
%TO.C,C21*%
X134099000Y-36068000D03*
X135649000Y-36068000D03*
%TD*%
D20*
%TO.C,R33*%
X117793000Y-41910000D03*
X119443000Y-41910000D03*
%TD*%
D23*
%TO.C,C7*%
X124206000Y-71869000D03*
X124206000Y-73419000D03*
%TD*%
D29*
%TO.C,R91*%
X88646000Y-77025000D03*
X88646000Y-75375000D03*
%TD*%
D20*
%TO.C,R77*%
X52769000Y-43180000D03*
X54419000Y-43180000D03*
%TD*%
D40*
%TO.C,J10*%
X49037999Y-39039999D03*
X51037999Y-42239999D03*
%TD*%
D39*
%TO.C,C39*%
X124714000Y-53163500D03*
X124714000Y-58088500D03*
%TD*%
D41*
%TO.C,U9*%
X45973999Y-71846998D03*
X45973999Y-72496999D03*
X45973999Y-73151999D03*
X47874001Y-73147000D03*
X47874001Y-72496999D03*
X47874001Y-71846998D03*
%TD*%
D27*
%TO.C,R50*%
X137922000Y-35243000D03*
X137922000Y-36893000D03*
%TD*%
D23*
%TO.C,C76*%
X81788000Y-38150000D03*
X81788000Y-39700000D03*
%TD*%
D16*
%TO.C,R71*%
X82359000Y-45974000D03*
X80709000Y-45974000D03*
%TD*%
D22*
%TO.C,C70*%
X106172000Y-60719000D03*
X106172000Y-59169000D03*
%TD*%
D42*
%TO.C,D17*%
X100329999Y-79247999D03*
X98229999Y-79247999D03*
%TD*%
D23*
%TO.C,C6*%
X124206000Y-74904000D03*
X124206000Y-76454000D03*
%TD*%
D29*
%TO.C,R92*%
X61214000Y-78549000D03*
X61214000Y-76899000D03*
%TD*%
D16*
%TO.C,R60*%
X46545000Y-75184000D03*
X44895000Y-75184000D03*
%TD*%
D43*
%TO.C,Q3*%
X140095999Y-60959999D03*
X139445999Y-60959999D03*
X138795999Y-60959999D03*
X138145999Y-60959999D03*
D44*
X138350999Y-59135999D03*
D43*
X138145999Y-57909999D03*
X138795999Y-57909999D03*
D44*
X139890999Y-59135999D03*
D43*
X139445999Y-57909999D03*
X140095999Y-57909999D03*
%TD*%
D45*
%TO.C,U12*%
X79800000Y-42545000D03*
X79800000Y-41275000D03*
X79800000Y-40005000D03*
X79800000Y-38735000D03*
X72600000Y-38735000D03*
X72600000Y-40005000D03*
X72600000Y-41275000D03*
X72600000Y-42545000D03*
%TD*%
D23*
%TO.C,C19*%
X129540000Y-37071000D03*
X129540000Y-38621000D03*
%TD*%
D11*
%TO.C,D10*%
X124683999Y-43179999D03*
D12*
X126583999Y-43179999D03*
%TD*%
D29*
%TO.C,R95*%
X61214000Y-83121000D03*
X61214000Y-81471000D03*
%TD*%
D23*
%TO.C,C63*%
X80010000Y-63005000D03*
X80010000Y-61455000D03*
%TD*%
D40*
%TO.C,J9*%
X54879999Y-39039999D03*
X56879999Y-42239999D03*
%TD*%
D34*
%TO.C,C34*%
X125489000Y-34798000D03*
X123939000Y-34798000D03*
%TD*%
D32*
%TO.C,Y1*%
X42121999Y-64577999D03*
X42121999Y-65977999D03*
X43221999Y-65977999D03*
X43221999Y-64577999D03*
%TD*%
D22*
%TO.C,C84*%
X98025000Y-75451000D03*
X98025000Y-73901000D03*
%TD*%
D46*
%TO.C,U8*%
X42033999Y-70865999D03*
X42033999Y-71815999D03*
X42033999Y-72765999D03*
X44833999Y-72765999D03*
X44833999Y-71815999D03*
X44833999Y-70865999D03*
D47*
X43433999Y-71815999D03*
%TD*%
D22*
%TO.C,C12*%
X122682000Y-73419000D03*
X122682000Y-71869000D03*
%TD*%
D48*
%TO.C,L4*%
X124459999Y-50755999D03*
X124459999Y-45255999D03*
%TD*%
D39*
%TO.C,C85*%
X119634000Y-72136000D03*
X119634000Y-77061000D03*
%TD*%
D49*
%TO.C,D13*%
X95184000Y-40464500D03*
X93284000Y-40464500D03*
X94234000Y-42339500D03*
%TD*%
D50*
%TO.C,L7*%
X103632000Y-50670000D03*
X103632000Y-53470000D03*
%TD*%
D51*
%TO.C,L5*%
X56955000Y-65024000D03*
X54805000Y-65024000D03*
%TD*%
D27*
%TO.C,R57*%
X102362000Y-43117000D03*
X102362000Y-44767000D03*
%TD*%
D22*
%TO.C,C91*%
X100838000Y-82563000D03*
X100838000Y-81013000D03*
%TD*%
D35*
%TO.C,C40*%
X117843000Y-38862000D03*
X119393000Y-38862000D03*
%TD*%
D20*
%TO.C,R27*%
X110935000Y-37338000D03*
X112585000Y-37338000D03*
%TD*%
D27*
%TO.C,R55*%
X102362000Y-40069000D03*
X102362000Y-41719000D03*
%TD*%
%TO.C,R85*%
X101600000Y-76391000D03*
X101600000Y-78041000D03*
%TD*%
D52*
%TO.C,C14*%
X135700500Y-49276000D03*
X129475500Y-49276000D03*
%TD*%
D37*
%TO.C,C100*%
X108712000Y-46531000D03*
X108712000Y-49481000D03*
%TD*%
D23*
%TO.C,C18*%
X137922000Y-38341000D03*
X137922000Y-39891000D03*
%TD*%
D22*
%TO.C,C92*%
X88646000Y-83071000D03*
X88646000Y-81521000D03*
%TD*%
D53*
%TO.C,D6*%
X127761999Y-71757999D03*
X127761999Y-68957999D03*
%TD*%
D29*
%TO.C,R90*%
X90170000Y-80073000D03*
X90170000Y-78423000D03*
%TD*%
D54*
%TO.C,R10*%
X128524000Y-65381500D03*
X128524000Y-67206500D03*
%TD*%
D55*
%TO.C,D8*%
X131063999Y-38799999D03*
X131063999Y-37399999D03*
%TD*%
D23*
%TO.C,C11*%
X122682000Y-65773000D03*
X122682000Y-67323000D03*
%TD*%
D29*
%TO.C,R64*%
X88138000Y-48831000D03*
X88138000Y-47181000D03*
%TD*%
%TO.C,R15*%
X128016000Y-38671000D03*
X128016000Y-37021000D03*
%TD*%
D34*
%TO.C,C62*%
X76949000Y-62992000D03*
X78499000Y-62992000D03*
%TD*%
%TO.C,C24*%
X125743000Y-60960000D03*
X124193000Y-60960000D03*
%TD*%
D29*
%TO.C,R81*%
X97790000Y-82613000D03*
X97790000Y-80963000D03*
%TD*%
D20*
%TO.C,R32*%
X117793000Y-43434000D03*
X119443000Y-43434000D03*
%TD*%
%TO.C,R18*%
X131001000Y-36068000D03*
X132651000Y-36068000D03*
%TD*%
%TO.C,R62*%
X93346000Y-38608000D03*
X94996000Y-38608000D03*
%TD*%
D37*
%TO.C,C101*%
X108712000Y-51357000D03*
X108712000Y-54307000D03*
%TD*%
D56*
%TO.C,U11*%
X103090000Y-46861500D03*
X103890000Y-46861500D03*
D57*
X102840000Y-47749000D03*
X103490000Y-47749000D03*
X104140000Y-47749000D03*
X104140000Y-45974000D03*
X103490000Y-45974000D03*
X102840000Y-45974000D03*
%TD*%
D42*
%TO.C,D12*%
X103851999Y-39877999D03*
X105951999Y-39877999D03*
%TD*%
D58*
%TO.C,D4*%
X127254000Y-83083500D03*
X127254000Y-81508500D03*
%TD*%
D20*
%TO.C,R56*%
X102553000Y-49022000D03*
X104203000Y-49022000D03*
%TD*%
D16*
%TO.C,R49*%
X52895000Y-69088000D03*
X51245000Y-69088000D03*
%TD*%
D23*
%TO.C,C74*%
X106172000Y-50025000D03*
X106172000Y-51575000D03*
%TD*%
D29*
%TO.C,R41*%
X46990000Y-67627000D03*
X46990000Y-65977000D03*
%TD*%
D33*
%TO.C,C89*%
X102616000Y-82992000D03*
X102616000Y-81092000D03*
%TD*%
D59*
%TO.C,D3*%
X125730000Y-81508500D03*
X125730000Y-83083500D03*
%TD*%
D28*
%TO.C,C68*%
X107762000Y-57658000D03*
X109662000Y-57658000D03*
%TD*%
D22*
%TO.C,C26*%
X121158000Y-66561000D03*
X121158000Y-65011000D03*
%TD*%
D23*
%TO.C,C86*%
X101600000Y-70345000D03*
X101600000Y-71895000D03*
%TD*%
D20*
%TO.C,R23*%
X115253000Y-52578000D03*
X116903000Y-52578000D03*
%TD*%
D34*
%TO.C,C38*%
X120155000Y-53594000D03*
X118605000Y-53594000D03*
%TD*%
D38*
%TO.C,Q10*%
X54168000Y-46911500D03*
X56068000Y-46911500D03*
X55118000Y-45036500D03*
%TD*%
D20*
%TO.C,R47*%
X48197000Y-69088000D03*
X49847000Y-69088000D03*
%TD*%
D34*
%TO.C,C67*%
X63259000Y-34798000D03*
X61709000Y-34798000D03*
%TD*%
%TO.C,C33*%
X116599000Y-46482000D03*
X115049000Y-46482000D03*
%TD*%
D28*
%TO.C,C16*%
X137988000Y-52324000D03*
X139888000Y-52324000D03*
%TD*%
D23*
%TO.C,C44*%
X58674000Y-57391000D03*
X58674000Y-58941000D03*
%TD*%
D29*
%TO.C,R54*%
X104394000Y-59753000D03*
X104394000Y-58103000D03*
%TD*%
D34*
%TO.C,C65*%
X83833000Y-61468000D03*
X82283000Y-61468000D03*
%TD*%
D33*
%TO.C,C5*%
X138176000Y-66228000D03*
X138176000Y-64328000D03*
%TD*%
D20*
%TO.C,R88*%
X109919000Y-79502000D03*
X111569000Y-79502000D03*
%TD*%
%TO.C,R79*%
X47689000Y-43180000D03*
X49339000Y-43180000D03*
%TD*%
D60*
%TO.C,U18*%
X81499000Y-74041000D03*
X81499000Y-75311000D03*
X81499000Y-76581000D03*
X81499000Y-77851000D03*
X81499000Y-79121000D03*
X81499000Y-80391000D03*
X81499000Y-81661000D03*
X81499000Y-82931000D03*
X86649000Y-82931000D03*
X86649000Y-81661000D03*
X86649000Y-80391000D03*
X86649000Y-79121000D03*
X86649000Y-77851000D03*
X86649000Y-76581000D03*
X86649000Y-75311000D03*
X86649000Y-74041000D03*
%TD*%
D27*
%TO.C,R75*%
X57658000Y-45403000D03*
X57658000Y-47053000D03*
%TD*%
D56*
%TO.C,U10*%
X103594000Y-55751500D03*
X104394000Y-55751500D03*
D57*
X103344000Y-56639000D03*
X103994000Y-56639000D03*
X104644000Y-56639000D03*
X104644000Y-54864000D03*
X103994000Y-54864000D03*
X103344000Y-54864000D03*
%TD*%
D20*
%TO.C,R86*%
X98489000Y-77470000D03*
X100139000Y-77470000D03*
%TD*%
D16*
%TO.C,R82*%
X100139000Y-72390000D03*
X98489000Y-72390000D03*
%TD*%
D34*
%TO.C,C27*%
X116853000Y-58166000D03*
X115303000Y-58166000D03*
%TD*%
D16*
%TO.C,R51*%
X103758000Y-35052000D03*
X102108000Y-35052000D03*
%TD*%
D29*
%TO.C,R83*%
X101600000Y-74993000D03*
X101600000Y-73343000D03*
%TD*%
D20*
%TO.C,R87*%
X112967000Y-79502000D03*
X114617000Y-79502000D03*
%TD*%
D35*
%TO.C,C8*%
X124193000Y-65786000D03*
X125743000Y-65786000D03*
%TD*%
D52*
%TO.C,C2*%
X135700500Y-44450000D03*
X129475500Y-44450000D03*
%TD*%
D23*
%TO.C,C29*%
X116586000Y-49517000D03*
X116586000Y-51067000D03*
%TD*%
D61*
%TO.C,L11*%
X111630000Y-82042000D03*
X114430000Y-82042000D03*
%TD*%
D27*
%TO.C,R58*%
X81788000Y-41148000D03*
X81788000Y-42798000D03*
%TD*%
D20*
%TO.C,R36*%
X117793000Y-40386000D03*
X119443000Y-40386000D03*
%TD*%
D28*
%TO.C,C17*%
X137988000Y-54356000D03*
X139888000Y-54356000D03*
%TD*%
D62*
%TO.C,U7*%
X44691999Y-51931999D03*
X44691999Y-52831999D03*
X44691999Y-53731999D03*
X44691999Y-54631999D03*
X44691999Y-55531999D03*
X44691999Y-56431999D03*
X44691999Y-57331999D03*
X44691999Y-58231999D03*
X44691999Y-59131999D03*
X44691999Y-60031999D03*
X44691999Y-60931999D03*
D63*
X46205999Y-62445999D03*
X47105999Y-62445999D03*
X48005999Y-62445999D03*
X48905999Y-62445999D03*
X49805999Y-62445999D03*
X50705999Y-62445999D03*
X51605999Y-62445999D03*
X52505999Y-62445999D03*
X53405999Y-62445999D03*
X54305999Y-62445999D03*
X55205999Y-62445999D03*
D62*
X56719999Y-60931999D03*
X56719999Y-60031999D03*
X56719999Y-59131999D03*
X56719999Y-58231999D03*
X56719999Y-57331999D03*
X56719999Y-56431999D03*
X56719999Y-55531999D03*
X56719999Y-54631999D03*
X56719999Y-53731999D03*
X56719999Y-52831999D03*
X56719999Y-51931999D03*
D63*
X55205999Y-50417999D03*
X54305999Y-50417999D03*
X53405999Y-50417999D03*
X52505999Y-50417999D03*
X51605999Y-50417999D03*
X50705999Y-50417999D03*
X49805999Y-50417999D03*
X48905999Y-50417999D03*
X48005999Y-50417999D03*
X47105999Y-50417999D03*
X46205999Y-50417999D03*
D64*
X48006000Y-52832000D03*
X49806000Y-52832000D03*
X51606000Y-52832000D03*
%TD*%
D65*
%TO.C,U14*%
X94655999Y-46186999D03*
X94655999Y-45536999D03*
X94655999Y-44886999D03*
X94655999Y-44236999D03*
X90255999Y-44236999D03*
X90255999Y-44886999D03*
X90255999Y-45536999D03*
X90255999Y-46186999D03*
%TD*%
D34*
%TO.C,C37*%
X120155000Y-52070000D03*
X118605000Y-52070000D03*
%TD*%
D29*
%TO.C,R37*%
X51562000Y-67627000D03*
X51562000Y-65977000D03*
%TD*%
D66*
%TO.C,F1*%
X138150500Y-76454000D03*
X139725500Y-76454000D03*
%TD*%
D27*
%TO.C,R24*%
X122682000Y-60135000D03*
X122682000Y-61785000D03*
%TD*%
D35*
%TO.C,C72*%
X104127000Y-38100000D03*
X105677000Y-38100000D03*
%TD*%
D20*
%TO.C,R65*%
X82233000Y-49022000D03*
X83883000Y-49022000D03*
%TD*%
D23*
%TO.C,C48*%
X45212000Y-66027000D03*
X45212000Y-67577000D03*
%TD*%
D22*
%TO.C,C81*%
X91694000Y-39637000D03*
X91694000Y-38087000D03*
%TD*%
D27*
%TO.C,R4*%
X125730000Y-77915000D03*
X125730000Y-79565000D03*
%TD*%
D67*
%TO.C,C99*%
X123903000Y-37338000D03*
X120953000Y-37338000D03*
%TD*%
D16*
%TO.C,R6*%
X128841000Y-79502000D03*
X127191000Y-79502000D03*
%TD*%
D23*
%TO.C,C93*%
X90170000Y-81521000D03*
X90170000Y-83071000D03*
%TD*%
D35*
%TO.C,C47*%
X42151000Y-67564000D03*
X43701000Y-67564000D03*
%TD*%
D43*
%TO.C,Q1*%
X140420999Y-75179999D03*
X138470999Y-75179999D03*
X139120999Y-75179999D03*
X139770999Y-75179999D03*
X138470999Y-72139999D03*
X139120999Y-72139999D03*
D68*
X139445999Y-73309999D03*
D43*
X139770999Y-72139999D03*
X140420999Y-72139999D03*
%TD*%
D29*
%TO.C,R46*%
X75438000Y-64579000D03*
X75438000Y-62929000D03*
%TD*%
D69*
%TO.C,L8*%
X104902000Y-44580000D03*
X104902000Y-41780000D03*
%TD*%
D70*
%TO.C,L1*%
X132079999Y-62265999D03*
X132079999Y-54065999D03*
%TD*%
D22*
%TO.C,C9*%
X124206000Y-70371000D03*
X124206000Y-68821000D03*
%TD*%
D28*
%TO.C,C71*%
X107762000Y-59690000D03*
X109662000Y-59690000D03*
%TD*%
D29*
%TO.C,R69*%
X91694000Y-42735000D03*
X91694000Y-41085000D03*
%TD*%
D20*
%TO.C,R26*%
X120841000Y-34798000D03*
X122491000Y-34798000D03*
%TD*%
D16*
%TO.C,R11*%
X125793000Y-67310000D03*
X124143000Y-67310000D03*
%TD*%
D29*
%TO.C,R21*%
X115062000Y-51117000D03*
X115062000Y-49467000D03*
%TD*%
D27*
%TO.C,R67*%
X95758000Y-47689000D03*
X95758000Y-49339000D03*
%TD*%
D48*
%TO.C,L10*%
X114299999Y-71925999D03*
X114299999Y-77425999D03*
%TD*%
D40*
%TO.C,J6*%
X94963999Y-51739999D03*
X92963999Y-54939999D03*
X90963999Y-51739999D03*
%TD*%
D23*
%TO.C,C28*%
X115062000Y-63487000D03*
X115062000Y-65037000D03*
%TD*%
D71*
%TO.C,RN1*%
X70541999Y-41313999D03*
X69741999Y-41313999D03*
X68941999Y-41313999D03*
X68141999Y-41313999D03*
X68141999Y-43013999D03*
X68941999Y-43013999D03*
X69741999Y-43013999D03*
X70541999Y-43013999D03*
%TD*%
D72*
%TO.C,AE1*%
X43180000Y-38038500D03*
X43180000Y-35113500D03*
%TD*%
D26*
%TO.C,D15*%
X108649999Y-79501999D03*
X107249999Y-79501999D03*
%TD*%
D22*
%TO.C,C61*%
X62992000Y-59195000D03*
X62992000Y-57645000D03*
%TD*%
D27*
%TO.C,R3*%
X124206000Y-77915000D03*
X124206000Y-79565000D03*
%TD*%
D53*
%TO.C,D7*%
X127761999Y-76329999D03*
X127761999Y-73529999D03*
%TD*%
D35*
%TO.C,C30*%
X115049000Y-48006000D03*
X116599000Y-48006000D03*
%TD*%
D18*
%TO.C,J1*%
X139343999Y-78160999D03*
X138543999Y-78160999D03*
D19*
X137393999Y-78160999D03*
X136393999Y-78160999D03*
X135893999Y-78160999D03*
X134893999Y-78160999D03*
D18*
X133743999Y-78160999D03*
X132943999Y-78160999D03*
D19*
X134393999Y-78160999D03*
X135393999Y-78160999D03*
X136893999Y-78160999D03*
X137893999Y-78160999D03*
%TD*%
D35*
%TO.C,C50*%
X79984000Y-64516000D03*
X81534000Y-64516000D03*
%TD*%
D29*
%TO.C,R52*%
X106172000Y-57721000D03*
X106172000Y-56071000D03*
%TD*%
D73*
%TO.C,R9*%
X138430000Y-67879500D03*
X138430000Y-70804500D03*
%TD*%
D23*
%TO.C,C77*%
X58928000Y-73901000D03*
X58928000Y-75451000D03*
%TD*%
D22*
%TO.C,C83*%
X96501000Y-75451000D03*
X96501000Y-73901000D03*
%TD*%
D74*
%TO.C,U13*%
X56387999Y-74821999D03*
X56387999Y-74021999D03*
D75*
X57337999Y-75171999D03*
X57337999Y-74671999D03*
X57337999Y-74171999D03*
X57337999Y-73671999D03*
X55437999Y-73671999D03*
X55437999Y-74171999D03*
X55437999Y-74671999D03*
X55437999Y-75171999D03*
%TD*%
D29*
%TO.C,R20*%
X113538000Y-65087000D03*
X113538000Y-63437000D03*
%TD*%
D35*
%TO.C,C32*%
X111239000Y-54102000D03*
X112789000Y-54102000D03*
%TD*%
D76*
%TO.C,R12*%
X139850500Y-56388000D03*
X138025500Y-56388000D03*
%TD*%
D59*
%TO.C,D5*%
X128778000Y-81508500D03*
X128778000Y-83083500D03*
%TD*%
D23*
%TO.C,C49*%
X42672000Y-56121000D03*
X42672000Y-57671000D03*
%TD*%
D35*
%TO.C,C90*%
X104394000Y-79502000D03*
X105944000Y-79502000D03*
%TD*%
D29*
%TO.C,R19*%
X119634000Y-65087000D03*
X119634000Y-63437000D03*
%TD*%
D22*
%TO.C,C95*%
X88646000Y-80023000D03*
X88646000Y-78473000D03*
%TD*%
D58*
%TO.C,D2*%
X124206000Y-83083500D03*
X124206000Y-81508500D03*
%TD*%
D29*
%TO.C,R17*%
X126492000Y-38671000D03*
X126492000Y-37021000D03*
%TD*%
%TO.C,R7*%
X125730000Y-70421000D03*
X125730000Y-68771000D03*
%TD*%
D34*
%TO.C,C60*%
X64529000Y-45974000D03*
X62979000Y-45974000D03*
%TD*%
D58*
%TO.C,L6*%
X43193000Y-46761500D03*
X43193000Y-45186500D03*
%TD*%
D34*
%TO.C,C45*%
X44717000Y-48260000D03*
X43167000Y-48260000D03*
%TD*%
%TO.C,C35*%
X109487000Y-35306000D03*
X107937000Y-35306000D03*
%TD*%
D23*
%TO.C,C78*%
X51054000Y-73647000D03*
X51054000Y-75197000D03*
%TD*%
D27*
%TO.C,R42*%
X42672000Y-61405000D03*
X42672000Y-63055000D03*
%TD*%
D77*
%TO.C,U5*%
X118150999Y-49951999D03*
X118800999Y-49951999D03*
X119450999Y-49951999D03*
X120100999Y-49951999D03*
X120100999Y-45551999D03*
X119450999Y-45551999D03*
X118800999Y-45551999D03*
X118150999Y-45551999D03*
%TD*%
D16*
%TO.C,R44*%
X43751000Y-69088000D03*
X42101000Y-69088000D03*
%TD*%
%TO.C,R5*%
X128841000Y-77978000D03*
X127191000Y-77978000D03*
%TD*%
%TO.C,R72*%
X91249000Y-49276000D03*
X89599000Y-49276000D03*
%TD*%
D29*
%TO.C,R1*%
X122682000Y-79565000D03*
X122682000Y-77915000D03*
%TD*%
D78*
%TO.C,U19*%
X68239999Y-75929999D03*
X68239999Y-75429999D03*
X68239999Y-74929999D03*
X68239999Y-74429999D03*
X68239999Y-73929999D03*
X63839999Y-73929999D03*
X63839999Y-74429999D03*
X63839999Y-74929999D03*
X63839999Y-75429999D03*
X63839999Y-75929999D03*
%TD*%
D20*
%TO.C,R61*%
X55563000Y-72390000D03*
X57213000Y-72390000D03*
%TD*%
D79*
%TO.C,U2*%
X132715999Y-37869999D03*
D80*
X132803500Y-39370000D03*
D79*
X132715999Y-40869999D03*
%TD*%
D34*
%TO.C,C25*%
X122695000Y-63500000D03*
X121145000Y-63500000D03*
%TD*%
D35*
%TO.C,C87*%
X119113000Y-70104000D03*
X120663000Y-70104000D03*
%TD*%
D81*
%TO.C,U3*%
X120142000Y-61388000D03*
X120142000Y-60198000D03*
X119322000Y-61388000D03*
X119322000Y-60198000D03*
D82*
X121182000Y-61793000D03*
X121182000Y-61293000D03*
X121182000Y-60793000D03*
X121182000Y-60293000D03*
X121182000Y-59793000D03*
X118282000Y-59793000D03*
X118282000Y-60293000D03*
X118282000Y-60793000D03*
X118282000Y-61293000D03*
X118282000Y-61793000D03*
%TD*%
D65*
%TO.C,U17*%
X104987999Y-81066999D03*
X104987999Y-81716999D03*
X104987999Y-82366999D03*
X104987999Y-83016999D03*
X109387999Y-83016999D03*
X109387999Y-82366999D03*
X109387999Y-81716999D03*
X109387999Y-81066999D03*
%TD*%
D20*
%TO.C,R53*%
X101283000Y-58674000D03*
X102933000Y-58674000D03*
%TD*%
D83*
%TO.C,C3*%
X140396000Y-62484000D03*
X138496000Y-62484000D03*
%TD*%
D40*
%TO.C,J8*%
X60737999Y-39039999D03*
X62737999Y-42239999D03*
%TD*%
D20*
%TO.C,R30*%
X107887000Y-55880000D03*
X109537000Y-55880000D03*
%TD*%
D29*
%TO.C,R39*%
X50038000Y-67627000D03*
X50038000Y-65977000D03*
%TD*%
D49*
%TO.C,Q12*%
X109916000Y-73230500D03*
X108016000Y-73230500D03*
X108966000Y-75105500D03*
%TD*%
D27*
%TO.C,R13*%
X122682000Y-74867000D03*
X122682000Y-76517000D03*
%TD*%
D34*
%TO.C,C73*%
X105677000Y-36576000D03*
X104127000Y-36576000D03*
%TD*%
D22*
%TO.C,C55*%
X66548000Y-43701000D03*
X66548000Y-42151000D03*
%TD*%
%TO.C,C94*%
X90170000Y-76975000D03*
X90170000Y-75425000D03*
%TD*%
D77*
%TO.C,U16*%
X103164999Y-77383999D03*
X103814999Y-77383999D03*
X104464999Y-77383999D03*
X105114999Y-77383999D03*
X105114999Y-72983999D03*
X104464999Y-72983999D03*
X103814999Y-72983999D03*
X103164999Y-72983999D03*
%TD*%
D23*
%TO.C,C97*%
X72898000Y-81013000D03*
X72898000Y-82563000D03*
%TD*%
D84*
%TO.C,C75*%
X105918000Y-46548000D03*
X105918000Y-48448000D03*
%TD*%
D48*
%TO.C,L3*%
X109981999Y-44659999D03*
X109981999Y-39159999D03*
%TD*%
D22*
%TO.C,C69*%
X106172000Y-54623000D03*
X106172000Y-53073000D03*
%TD*%
D35*
%TO.C,C20*%
X124193000Y-64262000D03*
X125743000Y-64262000D03*
%TD*%
D85*
%TO.C,L2*%
X114715000Y-56134000D03*
X116840000Y-56134000D03*
%TD*%
D21*
%TO.C,J11*%
X120217999Y-80279999D03*
X117017999Y-82279999D03*
%TD*%
D22*
%TO.C,C22*%
X116586000Y-65037000D03*
X116586000Y-63487000D03*
%TD*%
D29*
%TO.C,R94*%
X59690000Y-83121000D03*
X59690000Y-81471000D03*
%TD*%
D16*
%TO.C,R25*%
X128587000Y-34798000D03*
X126937000Y-34798000D03*
%TD*%
D86*
%TO.C,U1*%
X133198000Y-72238000D03*
D87*
X136648000Y-74938000D03*
X136648000Y-74438000D03*
X136648000Y-73938000D03*
X136648000Y-73438000D03*
X136648000Y-72938000D03*
X136648000Y-72438000D03*
X136648000Y-71938000D03*
X136648000Y-71438000D03*
X136648000Y-70938000D03*
X136648000Y-70438000D03*
X136648000Y-69938000D03*
X136648000Y-69438000D03*
D88*
X135948000Y-68738000D03*
X135448000Y-68738000D03*
X134948000Y-68738000D03*
X134448000Y-68738000D03*
X133948000Y-68738000D03*
X133448000Y-68738000D03*
X132948000Y-68738000D03*
X132448000Y-68738000D03*
X131948000Y-68738000D03*
X131448000Y-68738000D03*
X130948000Y-68738000D03*
X130448000Y-68738000D03*
D87*
X129748000Y-69438000D03*
X129748000Y-69938000D03*
X129748000Y-70438000D03*
X129748000Y-70938000D03*
X129748000Y-71438000D03*
X129748000Y-71938000D03*
X129748000Y-72438000D03*
X129748000Y-72938000D03*
X129748000Y-73438000D03*
X129748000Y-73938000D03*
X129748000Y-74438000D03*
X129748000Y-74938000D03*
D88*
X130448000Y-75638000D03*
X130948000Y-75638000D03*
X131448000Y-75638000D03*
X131948000Y-75638000D03*
X132448000Y-75638000D03*
X132948000Y-75638000D03*
X133448000Y-75638000D03*
X133948000Y-75638000D03*
X134448000Y-75638000D03*
X134948000Y-75638000D03*
X135448000Y-75638000D03*
X135948000Y-75638000D03*
%TD*%
D33*
%TO.C,C4*%
X140208000Y-66228000D03*
X140208000Y-64328000D03*
%TD*%
D89*
%TO.C,Q7*%
X119126000Y-37206000D03*
X119126000Y-35306000D03*
X117251000Y-36256000D03*
%TD*%
D29*
%TO.C,R63*%
X88138000Y-45783000D03*
X88138000Y-44133000D03*
%TD*%
%TO.C,R93*%
X59690000Y-78549000D03*
X59690000Y-76899000D03*
%TD*%
%TO.C,R38*%
X53086000Y-67627000D03*
X53086000Y-65977000D03*
%TD*%
%TO.C,C1*%
X130302000Y-81851000D03*
X130302000Y-80201000D03*
%TD*%
D20*
%TO.C,R66*%
X82233000Y-47498000D03*
X83883000Y-47498000D03*
%TD*%
D14*
%TO.C,Q4*%
X126539999Y-41401999D03*
X126539999Y-40751999D03*
D15*
X127507999Y-40266999D03*
D14*
X126539999Y-40101999D03*
X128475999Y-40101999D03*
X128475999Y-40751999D03*
X128475999Y-41401999D03*
D15*
X127507999Y-41236999D03*
%TD*%
D27*
%TO.C,R14*%
X122682000Y-68771000D03*
X122682000Y-70421000D03*
%TD*%
D90*
%TO.C,D11*%
X101599999Y-57183999D03*
X101599999Y-55083999D03*
%TD*%
D34*
%TO.C,C64*%
X78499000Y-64516000D03*
X76949000Y-64516000D03*
%TD*%
D71*
%TO.C,RN2*%
X62807999Y-63079999D03*
X63607999Y-63079999D03*
X64407999Y-63079999D03*
X65207999Y-63079999D03*
X65207999Y-61379999D03*
X64407999Y-61379999D03*
X63607999Y-61379999D03*
X62807999Y-61379999D03*
%TD*%
D22*
%TO.C,C82*%
X83820000Y-45987000D03*
X83820000Y-44437000D03*
%TD*%
D46*
%TO.C,Q2*%
X133603999Y-67197999D03*
X133603999Y-66547999D03*
X133603999Y-65897999D03*
X133603999Y-65247999D03*
D91*
X135427999Y-65452999D03*
D46*
X136653999Y-65247999D03*
X136653999Y-65897999D03*
D91*
X135427999Y-66992999D03*
D46*
X136653999Y-66547999D03*
X136653999Y-67197999D03*
%TD*%
D29*
%TO.C,R40*%
X48514000Y-67627000D03*
X48514000Y-65977000D03*
%TD*%
D13*
%TO.C,Y2*%
X83757999Y-58631999D03*
X82357999Y-58631999D03*
X82357999Y-59731999D03*
X83757999Y-59731999D03*
%TD*%
D38*
%TO.C,Q9*%
X59248000Y-46911500D03*
X61148000Y-46911500D03*
X60198000Y-45036500D03*
%TD*%
D58*
%TO.C,D1*%
X122682000Y-83083500D03*
X122682000Y-81508500D03*
%TD*%
D20*
%TO.C,R73*%
X92647000Y-49276000D03*
X94297000Y-49276000D03*
%TD*%
D22*
%TO.C,C13*%
X130302000Y-66815000D03*
X130302000Y-65265000D03*
%TD*%
D34*
%TO.C,C98*%
X61227000Y-80010000D03*
X59677000Y-80010000D03*
%TD*%
D29*
%TO.C,R70*%
X86614000Y-48831000D03*
X86614000Y-47181000D03*
%TD*%
D27*
%TO.C,R2*%
X125730000Y-74867000D03*
X125730000Y-76517000D03*
%TD*%
D29*
%TO.C,TH1*%
X130302000Y-78803000D03*
X130302000Y-77153000D03*
%TD*%
D92*
%TO.C,L9*%
X53340000Y-74676000D03*
X53340000Y-72526000D03*
%TD*%
D27*
%TO.C,R78*%
X52578000Y-45403000D03*
X52578000Y-47053000D03*
%TD*%
D16*
%TO.C,R59*%
X49593000Y-75184000D03*
X47943000Y-75184000D03*
%TD*%
D77*
%TO.C,U4*%
X114340999Y-43855999D03*
X114990999Y-43855999D03*
X115640999Y-43855999D03*
X116290999Y-43855999D03*
X116290999Y-39455999D03*
X115640999Y-39455999D03*
X114990999Y-39455999D03*
X114340999Y-39455999D03*
%TD*%
D29*
%TO.C,R89*%
X99314000Y-82613000D03*
X99314000Y-80963000D03*
%TD*%
M02*
