%TF.GenerationSoftware,KiCad,Pcbnew,(7.0.0-rc1-253-g7844602210-dirty)*%
%TF.CreationDate,2023-01-19T21:35:18+08:00*%
%TF.ProjectId,VFDFFT,56464446-4654-42e6-9b69-6361645f7063,rev?*%
%TF.SameCoordinates,Original*%
%TF.FileFunction,Drillmap*%
%TF.FilePolarity,Positive*%
%FSLAX45Y45*%
G04 Gerber Fmt 4.5, Leading zero omitted, Abs format (unit mm)*
G04 Created by KiCad (PCBNEW (7.0.0-rc1-253-g7844602210-dirty)) date 2023-01-19 21:35:18*
%MOMM*%
%LPD*%
G01*
G04 APERTURE LIST*
%ADD10C,0.100000*%
%ADD11C,0.200000*%
%ADD12C,0.020320*%
%ADD13C,0.025000*%
%ADD14C,0.060000*%
%ADD15C,0.080000*%
%ADD16C,0.090000*%
%ADD17C,0.092000*%
%ADD18C,0.175000*%
%ADD19C,0.230000*%
G04 APERTURE END LIST*
D10*
X4122400Y-3403600D02*
X14122400Y-3403600D01*
X14122400Y-3403600D02*
X14122400Y-8403600D01*
X14122400Y-8403600D02*
X4122400Y-8403600D01*
X4122400Y-8403600D02*
X4122400Y-3403600D01*
D11*
D12*
X4682240Y-7239540D02*
X4702560Y-7259860D01*
X4702560Y-7239540D02*
X4682240Y-7259860D01*
D13*
X4178100Y-5943600D02*
G75*
G03*
X4178100Y-5943600I-12500J0D01*
G01*
X4228900Y-7213600D02*
G75*
G03*
X4228900Y-7213600I-12500J0D01*
G01*
X4279700Y-5678920D02*
G75*
G03*
X4279700Y-5678920I-12500J0D01*
G01*
X4355900Y-6375400D02*
G75*
G03*
X4355900Y-6375400I-12500J0D01*
G01*
X4406700Y-7010400D02*
G75*
G03*
X4406700Y-7010400I-12500J0D01*
G01*
X4432100Y-4470400D02*
G75*
G03*
X4432100Y-4470400I-12500J0D01*
G01*
X4432100Y-4521200D02*
G75*
G03*
X4432100Y-4521200I-12500J0D01*
G01*
X4432100Y-4572000D02*
G75*
G03*
X4432100Y-4572000I-12500J0D01*
G01*
X4432100Y-4622800D02*
G75*
G03*
X4432100Y-4622800I-12500J0D01*
G01*
X4432100Y-4673600D02*
G75*
G03*
X4432100Y-4673600I-12500J0D01*
G01*
X4432100Y-4724400D02*
G75*
G03*
X4432100Y-4724400I-12500J0D01*
G01*
X4457500Y-6756400D02*
G75*
G03*
X4457500Y-6756400I-12500J0D01*
G01*
X4482900Y-4470400D02*
G75*
G03*
X4482900Y-4470400I-12500J0D01*
G01*
X4482900Y-4521200D02*
G75*
G03*
X4482900Y-4521200I-12500J0D01*
G01*
X4482900Y-4572000D02*
G75*
G03*
X4482900Y-4572000I-12500J0D01*
G01*
X4482900Y-4622800D02*
G75*
G03*
X4482900Y-4622800I-12500J0D01*
G01*
X4482900Y-4673600D02*
G75*
G03*
X4482900Y-4673600I-12500J0D01*
G01*
X4482900Y-4724400D02*
G75*
G03*
X4482900Y-4724400I-12500J0D01*
G01*
X4508300Y-6400800D02*
G75*
G03*
X4508300Y-6400800I-12500J0D01*
G01*
X4508300Y-6451600D02*
G75*
G03*
X4508300Y-6451600I-12500J0D01*
G01*
X4508300Y-6502400D02*
G75*
G03*
X4508300Y-6502400I-12500J0D01*
G01*
X4533700Y-4470400D02*
G75*
G03*
X4533700Y-4470400I-12500J0D01*
G01*
X4533700Y-4521200D02*
G75*
G03*
X4533700Y-4521200I-12500J0D01*
G01*
X4533700Y-4572000D02*
G75*
G03*
X4533700Y-4572000I-12500J0D01*
G01*
X4533700Y-4622800D02*
G75*
G03*
X4533700Y-4622800I-12500J0D01*
G01*
X4533700Y-4673600D02*
G75*
G03*
X4533700Y-4673600I-12500J0D01*
G01*
X4533700Y-4724400D02*
G75*
G03*
X4533700Y-4724400I-12500J0D01*
G01*
X4559100Y-6502400D02*
G75*
G03*
X4559100Y-6502400I-12500J0D01*
G01*
X4559100Y-7289800D02*
G75*
G03*
X4559100Y-7289800I-12500J0D01*
G01*
X4584500Y-4318000D02*
G75*
G03*
X4584500Y-4318000I-12500J0D01*
G01*
X4584500Y-4368800D02*
G75*
G03*
X4584500Y-4368800I-12500J0D01*
G01*
X4584500Y-4419600D02*
G75*
G03*
X4584500Y-4419600I-12500J0D01*
G01*
X4584500Y-4470400D02*
G75*
G03*
X4584500Y-4470400I-12500J0D01*
G01*
X4584500Y-4521200D02*
G75*
G03*
X4584500Y-4521200I-12500J0D01*
G01*
X4584500Y-4572000D02*
G75*
G03*
X4584500Y-4572000I-12500J0D01*
G01*
X4584500Y-4622800D02*
G75*
G03*
X4584500Y-4622800I-12500J0D01*
G01*
X4584500Y-4673600D02*
G75*
G03*
X4584500Y-4673600I-12500J0D01*
G01*
X4584500Y-4724400D02*
G75*
G03*
X4584500Y-4724400I-12500J0D01*
G01*
X4584500Y-4775200D02*
G75*
G03*
X4584500Y-4775200I-12500J0D01*
G01*
X4584500Y-4826000D02*
G75*
G03*
X4584500Y-4826000I-12500J0D01*
G01*
X4584500Y-4876800D02*
G75*
G03*
X4584500Y-4876800I-12500J0D01*
G01*
X4584500Y-7518400D02*
G75*
G03*
X4584500Y-7518400I-12500J0D01*
G01*
X4635300Y-7010400D02*
G75*
G03*
X4635300Y-7010400I-12500J0D01*
G01*
X4762300Y-6680200D02*
G75*
G03*
X4762300Y-6680200I-12500J0D01*
G01*
X4813100Y-5867400D02*
G75*
G03*
X4813100Y-5867400I-12500J0D01*
G01*
X4914700Y-6832600D02*
G75*
G03*
X4914700Y-6832600I-12500J0D01*
G01*
X4940100Y-4572000D02*
G75*
G03*
X4940100Y-4572000I-12500J0D01*
G01*
X4940100Y-6451600D02*
G75*
G03*
X4940100Y-6451600I-12500J0D01*
G01*
X4940100Y-7035800D02*
G75*
G03*
X4940100Y-7035800I-12500J0D01*
G01*
X5067100Y-6985000D02*
G75*
G03*
X5067100Y-6985000I-12500J0D01*
G01*
X5069850Y-6908800D02*
G75*
G03*
X5069850Y-6908800I-12500J0D01*
G01*
X5083100Y-6070600D02*
G75*
G03*
X5083100Y-6070600I-12500J0D01*
G01*
X5092500Y-6527800D02*
G75*
G03*
X5092500Y-6527800I-12500J0D01*
G01*
X5117900Y-7442350D02*
G75*
G03*
X5117900Y-7442350I-12500J0D01*
G01*
X5194100Y-7289800D02*
G75*
G03*
X5194100Y-7289800I-12500J0D01*
G01*
X5263100Y-6096000D02*
G75*
G03*
X5263100Y-6096000I-12500J0D01*
G01*
X5283000Y-7023100D02*
G75*
G03*
X5283000Y-7023100I-12500J0D01*
G01*
X5371900Y-5816600D02*
G75*
G03*
X5371900Y-5816600I-12500J0D01*
G01*
X5397300Y-6019800D02*
G75*
G03*
X5397300Y-6019800I-12500J0D01*
G01*
X5448100Y-4546600D02*
G75*
G03*
X5448100Y-4546600I-12500J0D01*
G01*
X5498900Y-7518400D02*
G75*
G03*
X5498900Y-7518400I-12500J0D01*
G01*
X5518850Y-7315200D02*
G75*
G03*
X5518850Y-7315200I-12500J0D01*
G01*
X5524300Y-6096000D02*
G75*
G03*
X5524300Y-6096000I-12500J0D01*
G01*
X5549700Y-5435600D02*
G75*
G03*
X5549700Y-5435600I-12500J0D01*
G01*
X5549700Y-5486400D02*
G75*
G03*
X5549700Y-5486400I-12500J0D01*
G01*
X5549700Y-5537200D02*
G75*
G03*
X5549700Y-5537200I-12500J0D01*
G01*
X5600500Y-6223000D02*
G75*
G03*
X5600500Y-6223000I-12500J0D01*
G01*
X5651300Y-7086600D02*
G75*
G03*
X5651300Y-7086600I-12500J0D01*
G01*
X5651300Y-7239000D02*
G75*
G03*
X5651300Y-7239000I-12500J0D01*
G01*
X5778300Y-6299200D02*
G75*
G03*
X5778300Y-6299200I-12500J0D01*
G01*
X5813680Y-6578600D02*
G75*
G03*
X5813680Y-6578600I-12500J0D01*
G01*
X5879900Y-5827280D02*
G75*
G03*
X5879900Y-5827280I-12500J0D01*
G01*
X5905300Y-7467450D02*
G75*
G03*
X5905300Y-7467450I-12500J0D01*
G01*
X5956100Y-5740400D02*
G75*
G03*
X5956100Y-5740400I-12500J0D01*
G01*
X5970580Y-6273800D02*
G75*
G03*
X5970580Y-6273800I-12500J0D01*
G01*
X5971276Y-4574742D02*
G75*
G03*
X5971276Y-4574742I-12500J0D01*
G01*
X6053750Y-7848600D02*
G75*
G03*
X6053750Y-7848600I-12500J0D01*
G01*
X6057550Y-8001000D02*
G75*
G03*
X6057550Y-8001000I-12500J0D01*
G01*
X6083100Y-5867400D02*
G75*
G03*
X6083100Y-5867400I-12500J0D01*
G01*
X6108500Y-7416800D02*
G75*
G03*
X6108500Y-7416800I-12500J0D01*
G01*
X6133900Y-7772400D02*
G75*
G03*
X6133900Y-7772400I-12500J0D01*
G01*
X6133900Y-8229600D02*
G75*
G03*
X6133900Y-8229600I-12500J0D01*
G01*
X6163004Y-7407099D02*
G75*
G03*
X6163004Y-7407099I-12500J0D01*
G01*
X6178033Y-5606733D02*
G75*
G03*
X6178033Y-5606733I-12500J0D01*
G01*
X6199940Y-7086600D02*
G75*
G03*
X6199940Y-7086600I-12500J0D01*
G01*
X6210100Y-6934200D02*
G75*
G03*
X6210100Y-6934200I-12500J0D01*
G01*
X6235500Y-5842000D02*
G75*
G03*
X6235500Y-5842000I-12500J0D01*
G01*
X6260750Y-3456940D02*
G75*
G03*
X6260750Y-3456940I-12500J0D01*
G01*
X6260900Y-3556000D02*
G75*
G03*
X6260900Y-3556000I-12500J0D01*
G01*
X6286300Y-5588000D02*
G75*
G03*
X6286300Y-5588000I-12500J0D01*
G01*
X6286300Y-6883400D02*
G75*
G03*
X6286300Y-6883400I-12500J0D01*
G01*
X6337100Y-6019800D02*
G75*
G03*
X6337100Y-6019800I-12500J0D01*
G01*
X6362500Y-4830110D02*
G75*
G03*
X6362500Y-4830110I-12500J0D01*
G01*
X6362500Y-4887890D02*
G75*
G03*
X6362500Y-4887890I-12500J0D01*
G01*
X6362500Y-6858000D02*
G75*
G03*
X6362500Y-6858000I-12500J0D01*
G01*
X6362500Y-7950200D02*
G75*
G03*
X6362500Y-7950200I-12500J0D01*
G01*
X6387900Y-6223000D02*
G75*
G03*
X6387900Y-6223000I-12500J0D01*
G01*
X6388050Y-4597400D02*
G75*
G03*
X6388050Y-4597400I-12500J0D01*
G01*
X6451400Y-6870700D02*
G75*
G03*
X6451400Y-6870700I-12500J0D01*
G01*
X6453300Y-6045200D02*
G75*
G03*
X6453300Y-6045200I-12500J0D01*
G01*
X6478100Y-7961600D02*
G75*
G03*
X6478100Y-7961600I-12500J0D01*
G01*
X6533300Y-6012800D02*
G75*
G03*
X6533300Y-6012800I-12500J0D01*
G01*
X6558700Y-6865000D02*
G75*
G03*
X6558700Y-6865000I-12500J0D01*
G01*
X6641900Y-5791200D02*
G75*
G03*
X6641900Y-5791200I-12500J0D01*
G01*
X6641900Y-5918200D02*
G75*
G03*
X6641900Y-5918200I-12500J0D01*
G01*
X6643100Y-7670800D02*
G75*
G03*
X6643100Y-7670800I-12500J0D01*
G01*
X6667300Y-4292450D02*
G75*
G03*
X6667300Y-4292450I-12500J0D01*
G01*
X6692700Y-7086600D02*
G75*
G03*
X6692700Y-7086600I-12500J0D01*
G01*
X6692700Y-7518400D02*
G75*
G03*
X6692700Y-7518400I-12500J0D01*
G01*
X6693766Y-4678043D02*
G75*
G03*
X6693766Y-4678043I-12500J0D01*
G01*
X6743100Y-7620400D02*
G75*
G03*
X6743100Y-7620400I-12500J0D01*
G01*
X6768900Y-4419600D02*
G75*
G03*
X6768900Y-4419600I-12500J0D01*
G01*
X6768900Y-4851400D02*
G75*
G03*
X6768900Y-4851400I-12500J0D01*
G01*
X6794300Y-4902200D02*
G75*
G03*
X6794300Y-4902200I-12500J0D01*
G01*
X6807000Y-6235700D02*
G75*
G03*
X6807000Y-6235700I-12500J0D01*
G01*
X6819700Y-5435600D02*
G75*
G03*
X6819700Y-5435600I-12500J0D01*
G01*
X6832400Y-3975100D02*
G75*
G03*
X6832400Y-3975100I-12500J0D01*
G01*
X6895900Y-4800600D02*
G75*
G03*
X6895900Y-4800600I-12500J0D01*
G01*
X6906700Y-3951600D02*
G75*
G03*
X6906700Y-3951600I-12500J0D01*
G01*
X6908600Y-7937500D02*
G75*
G03*
X6908600Y-7937500I-12500J0D01*
G01*
X6921300Y-5359400D02*
G75*
G03*
X6921300Y-5359400I-12500J0D01*
G01*
X6946700Y-4749800D02*
G75*
G03*
X6946700Y-4749800I-12500J0D01*
G01*
X6946700Y-5943600D02*
G75*
G03*
X6946700Y-5943600I-12500J0D01*
G01*
X6946700Y-6350000D02*
G75*
G03*
X6946700Y-6350000I-12500J0D01*
G01*
X6946700Y-6502400D02*
G75*
G03*
X6946700Y-6502400I-12500J0D01*
G01*
X6946700Y-6553200D02*
G75*
G03*
X6946700Y-6553200I-12500J0D01*
G01*
X6946700Y-6604000D02*
G75*
G03*
X6946700Y-6604000I-12500J0D01*
G01*
X6946700Y-6654800D02*
G75*
G03*
X6946700Y-6654800I-12500J0D01*
G01*
X6986700Y-3987800D02*
G75*
G03*
X6986700Y-3987800I-12500J0D01*
G01*
X6997500Y-6223000D02*
G75*
G03*
X6997500Y-6223000I-12500J0D01*
G01*
X6997500Y-6350000D02*
G75*
G03*
X6997500Y-6350000I-12500J0D01*
G01*
X6997500Y-6654800D02*
G75*
G03*
X6997500Y-6654800I-12500J0D01*
G01*
X7048300Y-6350000D02*
G75*
G03*
X7048300Y-6350000I-12500J0D01*
G01*
X7048300Y-6654800D02*
G75*
G03*
X7048300Y-6654800I-12500J0D01*
G01*
X7066700Y-4038600D02*
G75*
G03*
X7066700Y-4038600I-12500J0D01*
G01*
X7073700Y-5334000D02*
G75*
G03*
X7073700Y-5334000I-12500J0D01*
G01*
X7073700Y-7924800D02*
G75*
G03*
X7073700Y-7924800I-12500J0D01*
G01*
X7099100Y-6350000D02*
G75*
G03*
X7099100Y-6350000I-12500J0D01*
G01*
X7099100Y-6654800D02*
G75*
G03*
X7099100Y-6654800I-12500J0D01*
G01*
X7149900Y-6350000D02*
G75*
G03*
X7149900Y-6350000I-12500J0D01*
G01*
X7149900Y-6654800D02*
G75*
G03*
X7149900Y-6654800I-12500J0D01*
G01*
X7175300Y-4826000D02*
G75*
G03*
X7175300Y-4826000I-12500J0D01*
G01*
X7200700Y-6299200D02*
G75*
G03*
X7200700Y-6299200I-12500J0D01*
G01*
X7200700Y-6553200D02*
G75*
G03*
X7200700Y-6553200I-12500J0D01*
G01*
X7200700Y-6654800D02*
G75*
G03*
X7200700Y-6654800I-12500J0D01*
G01*
X7251500Y-6350000D02*
G75*
G03*
X7251500Y-6350000I-12500J0D01*
G01*
X7251500Y-6654800D02*
G75*
G03*
X7251500Y-6654800I-12500J0D01*
G01*
X7302300Y-4902200D02*
G75*
G03*
X7302300Y-4902200I-12500J0D01*
G01*
X7302300Y-5232400D02*
G75*
G03*
X7302300Y-5232400I-12500J0D01*
G01*
X7302300Y-6350000D02*
G75*
G03*
X7302300Y-6350000I-12500J0D01*
G01*
X7302300Y-6400800D02*
G75*
G03*
X7302300Y-6400800I-12500J0D01*
G01*
X7302300Y-6451600D02*
G75*
G03*
X7302300Y-6451600I-12500J0D01*
G01*
X7302300Y-6502400D02*
G75*
G03*
X7302300Y-6502400I-12500J0D01*
G01*
X7302300Y-6553200D02*
G75*
G03*
X7302300Y-6553200I-12500J0D01*
G01*
X7302300Y-6604000D02*
G75*
G03*
X7302300Y-6604000I-12500J0D01*
G01*
X7302300Y-6654800D02*
G75*
G03*
X7302300Y-6654800I-12500J0D01*
G01*
X7302300Y-7884680D02*
G75*
G03*
X7302300Y-7884680I-12500J0D01*
G01*
X7302300Y-8189480D02*
G75*
G03*
X7302300Y-8189480I-12500J0D01*
G01*
X7353100Y-5791200D02*
G75*
G03*
X7353100Y-5791200I-12500J0D01*
G01*
X7403900Y-4267200D02*
G75*
G03*
X7403900Y-4267200I-12500J0D01*
G01*
X7403900Y-4978400D02*
G75*
G03*
X7403900Y-4978400I-12500J0D01*
G01*
X7403900Y-6375400D02*
G75*
G03*
X7403900Y-6375400I-12500J0D01*
G01*
X7505500Y-4267200D02*
G75*
G03*
X7505500Y-4267200I-12500J0D01*
G01*
X7530900Y-4724400D02*
G75*
G03*
X7530900Y-4724400I-12500J0D01*
G01*
X7556300Y-4851400D02*
G75*
G03*
X7556300Y-4851400I-12500J0D01*
G01*
X7556300Y-5969000D02*
G75*
G03*
X7556300Y-5969000I-12500J0D01*
G01*
X7581700Y-5867400D02*
G75*
G03*
X7581700Y-5867400I-12500J0D01*
G01*
X7632500Y-4216400D02*
G75*
G03*
X7632500Y-4216400I-12500J0D01*
G01*
X7636450Y-6299200D02*
G75*
G03*
X7636450Y-6299200I-12500J0D01*
G01*
X7657900Y-5969000D02*
G75*
G03*
X7657900Y-5969000I-12500J0D01*
G01*
X7708700Y-5918200D02*
G75*
G03*
X7708700Y-5918200I-12500J0D01*
G01*
X7734100Y-4089400D02*
G75*
G03*
X7734100Y-4089400I-12500J0D01*
G01*
X7758355Y-5990399D02*
G75*
G03*
X7758355Y-5990399I-12500J0D01*
G01*
X7784900Y-4724400D02*
G75*
G03*
X7784900Y-4724400I-12500J0D01*
G01*
X7784900Y-4831890D02*
G75*
G03*
X7784900Y-4831890I-12500J0D01*
G01*
X7784900Y-5435600D02*
G75*
G03*
X7784900Y-5435600I-12500J0D01*
G01*
X7784900Y-6375400D02*
G75*
G03*
X7784900Y-6375400I-12500J0D01*
G01*
X7785050Y-6451600D02*
G75*
G03*
X7785050Y-6451600I-12500J0D01*
G01*
X7810300Y-5918200D02*
G75*
G03*
X7810300Y-5918200I-12500J0D01*
G01*
X7826900Y-6003200D02*
G75*
G03*
X7826900Y-6003200I-12500J0D01*
G01*
X7835700Y-4318000D02*
G75*
G03*
X7835700Y-4318000I-12500J0D01*
G01*
X7886335Y-4088500D02*
G75*
G03*
X7886335Y-4088500I-12500J0D01*
G01*
X7886500Y-5791200D02*
G75*
G03*
X7886500Y-5791200I-12500J0D01*
G01*
X7934886Y-5510944D02*
G75*
G03*
X7934886Y-5510944I-12500J0D01*
G01*
X7937300Y-7543800D02*
G75*
G03*
X7937300Y-7543800I-12500J0D01*
G01*
X7949630Y-7696200D02*
G75*
G03*
X7949630Y-7696200I-12500J0D01*
G01*
X7988100Y-4673600D02*
G75*
G03*
X7988100Y-4673600I-12500J0D01*
G01*
X8013500Y-6223150D02*
G75*
G03*
X8013500Y-6223150I-12500J0D01*
G01*
X8013500Y-6578600D02*
G75*
G03*
X8013500Y-6578600I-12500J0D01*
G01*
X8013500Y-7975600D02*
G75*
G03*
X8013500Y-7975600I-12500J0D01*
G01*
X8089700Y-6451600D02*
G75*
G03*
X8089700Y-6451600I-12500J0D01*
G01*
X8140500Y-6045200D02*
G75*
G03*
X8140500Y-6045200I-12500J0D01*
G01*
X8140500Y-6096000D02*
G75*
G03*
X8140500Y-6096000I-12500J0D01*
G01*
X8140500Y-6146800D02*
G75*
G03*
X8140500Y-6146800I-12500J0D01*
G01*
X8140500Y-6197600D02*
G75*
G03*
X8140500Y-6197600I-12500J0D01*
G01*
X8140500Y-6248400D02*
G75*
G03*
X8140500Y-6248400I-12500J0D01*
G01*
X8165900Y-4749800D02*
G75*
G03*
X8165900Y-4749800I-12500J0D01*
G01*
X8191300Y-4343400D02*
G75*
G03*
X8191300Y-4343400I-12500J0D01*
G01*
X8191300Y-5001950D02*
G75*
G03*
X8191300Y-5001950I-12500J0D01*
G01*
X8191300Y-5054600D02*
G75*
G03*
X8191300Y-5054600I-12500J0D01*
G01*
X8191300Y-6248400D02*
G75*
G03*
X8191300Y-6248400I-12500J0D01*
G01*
X8216700Y-5740400D02*
G75*
G03*
X8216700Y-5740400I-12500J0D01*
G01*
X8242100Y-6248400D02*
G75*
G03*
X8242100Y-6248400I-12500J0D01*
G01*
X8267500Y-5740400D02*
G75*
G03*
X8267500Y-5740400I-12500J0D01*
G01*
X8280200Y-7454900D02*
G75*
G03*
X8280200Y-7454900I-12500J0D01*
G01*
X8292900Y-3683000D02*
G75*
G03*
X8292900Y-3683000I-12500J0D01*
G01*
X8292900Y-6248400D02*
G75*
G03*
X8292900Y-6248400I-12500J0D01*
G01*
X8307036Y-4165600D02*
G75*
G03*
X8307036Y-4165600I-12500J0D01*
G01*
X8318300Y-4749800D02*
G75*
G03*
X8318300Y-4749800I-12500J0D01*
G01*
X8318300Y-5740400D02*
G75*
G03*
X8318300Y-5740400I-12500J0D01*
G01*
X8318300Y-8001000D02*
G75*
G03*
X8318300Y-8001000I-12500J0D01*
G01*
X8322350Y-4443700D02*
G75*
G03*
X8322350Y-4443700I-12500J0D01*
G01*
X8343700Y-6248400D02*
G75*
G03*
X8343700Y-6248400I-12500J0D01*
G01*
X8343700Y-7747000D02*
G75*
G03*
X8343700Y-7747000I-12500J0D01*
G01*
X8394500Y-6248400D02*
G75*
G03*
X8394500Y-6248400I-12500J0D01*
G01*
X8395800Y-6070600D02*
G75*
G03*
X8395800Y-6070600I-12500J0D01*
G01*
X8413050Y-4259000D02*
G75*
G03*
X8413050Y-4259000I-12500J0D01*
G01*
X8419900Y-7620000D02*
G75*
G03*
X8419900Y-7620000I-12500J0D01*
G01*
X8445300Y-3759200D02*
G75*
G03*
X8445300Y-3759200I-12500J0D01*
G01*
X8445300Y-5740400D02*
G75*
G03*
X8445300Y-5740400I-12500J0D01*
G01*
X8445300Y-6248400D02*
G75*
G03*
X8445300Y-6248400I-12500J0D01*
G01*
X8468850Y-4598700D02*
G75*
G03*
X8468850Y-4598700I-12500J0D01*
G01*
X8496100Y-5740400D02*
G75*
G03*
X8496100Y-5740400I-12500J0D01*
G01*
X8496100Y-6146800D02*
G75*
G03*
X8496100Y-6146800I-12500J0D01*
G01*
X8496100Y-6197600D02*
G75*
G03*
X8496100Y-6197600I-12500J0D01*
G01*
X8496100Y-6248400D02*
G75*
G03*
X8496100Y-6248400I-12500J0D01*
G01*
X8520600Y-4572000D02*
G75*
G03*
X8520600Y-4572000I-12500J0D01*
G01*
X8521500Y-7874000D02*
G75*
G03*
X8521500Y-7874000I-12500J0D01*
G01*
X8546900Y-5740400D02*
G75*
G03*
X8546900Y-5740400I-12500J0D01*
G01*
X8546900Y-5943750D02*
G75*
G03*
X8546900Y-5943750I-12500J0D01*
G01*
X8546900Y-6146800D02*
G75*
G03*
X8546900Y-6146800I-12500J0D01*
G01*
X8546900Y-7670800D02*
G75*
G03*
X8546900Y-7670800I-12500J0D01*
G01*
X8546900Y-8039100D02*
G75*
G03*
X8546900Y-8039100I-12500J0D01*
G01*
X8572300Y-4292600D02*
G75*
G03*
X8572300Y-4292600I-12500J0D01*
G01*
X8572300Y-4622800D02*
G75*
G03*
X8572300Y-4622800I-12500J0D01*
G01*
X8597700Y-4140200D02*
G75*
G03*
X8597700Y-4140200I-12500J0D01*
G01*
X8597700Y-5740400D02*
G75*
G03*
X8597700Y-5740400I-12500J0D01*
G01*
X8597700Y-6146800D02*
G75*
G03*
X8597700Y-6146800I-12500J0D01*
G01*
X8637346Y-4256039D02*
G75*
G03*
X8637346Y-4256039I-12500J0D01*
G01*
X8648500Y-3760100D02*
G75*
G03*
X8648500Y-3760100I-12500J0D01*
G01*
X8648500Y-5740400D02*
G75*
G03*
X8648500Y-5740400I-12500J0D01*
G01*
X8648500Y-5791200D02*
G75*
G03*
X8648500Y-5791200I-12500J0D01*
G01*
X8648500Y-5842000D02*
G75*
G03*
X8648500Y-5842000I-12500J0D01*
G01*
X8648500Y-5892800D02*
G75*
G03*
X8648500Y-5892800I-12500J0D01*
G01*
X8648500Y-5943600D02*
G75*
G03*
X8648500Y-5943600I-12500J0D01*
G01*
X8648500Y-5994400D02*
G75*
G03*
X8648500Y-5994400I-12500J0D01*
G01*
X8648500Y-6045200D02*
G75*
G03*
X8648500Y-6045200I-12500J0D01*
G01*
X8648500Y-6096000D02*
G75*
G03*
X8648500Y-6096000I-12500J0D01*
G01*
X8750100Y-4495800D02*
G75*
G03*
X8750100Y-4495800I-12500J0D01*
G01*
X8775500Y-3707500D02*
G75*
G03*
X8775500Y-3707500I-12500J0D01*
G01*
X8826300Y-4953000D02*
G75*
G03*
X8826300Y-4953000I-12500J0D01*
G01*
X8877100Y-4038600D02*
G75*
G03*
X8877100Y-4038600I-12500J0D01*
G01*
X8902500Y-4977500D02*
G75*
G03*
X8902500Y-4977500I-12500J0D01*
G01*
X8953300Y-7697500D02*
G75*
G03*
X8953300Y-7697500I-12500J0D01*
G01*
X8978700Y-5105400D02*
G75*
G03*
X8978700Y-5105400I-12500J0D01*
G01*
X9004100Y-8102600D02*
G75*
G03*
X9004100Y-8102600I-12500J0D01*
G01*
X9029500Y-7609320D02*
G75*
G03*
X9029500Y-7609320I-12500J0D01*
G01*
X9029500Y-7924800D02*
G75*
G03*
X9029500Y-7924800I-12500J0D01*
G01*
X9029500Y-8229750D02*
G75*
G03*
X9029500Y-8229750I-12500J0D01*
G01*
X9064750Y-4927600D02*
G75*
G03*
X9064750Y-4927600I-12500J0D01*
G01*
X9080300Y-4673600D02*
G75*
G03*
X9080300Y-4673600I-12500J0D01*
G01*
X9102650Y-3707500D02*
G75*
G03*
X9102650Y-3707500I-12500J0D01*
G01*
X9105700Y-8229600D02*
G75*
G03*
X9105700Y-8229600I-12500J0D01*
G01*
X9156500Y-4191000D02*
G75*
G03*
X9156500Y-4191000I-12500J0D01*
G01*
X9156500Y-4394200D02*
G75*
G03*
X9156500Y-4394200I-12500J0D01*
G01*
X9156500Y-4597400D02*
G75*
G03*
X9156500Y-4597400I-12500J0D01*
G01*
X9207300Y-3760100D02*
G75*
G03*
X9207300Y-3760100I-12500J0D01*
G01*
X9207300Y-4445000D02*
G75*
G03*
X9207300Y-4445000I-12500J0D01*
G01*
X9211350Y-4775200D02*
G75*
G03*
X9211350Y-4775200I-12500J0D01*
G01*
X9296200Y-3873500D02*
G75*
G03*
X9296200Y-3873500I-12500J0D01*
G01*
X9334300Y-4597400D02*
G75*
G03*
X9334300Y-4597400I-12500J0D01*
G01*
X9335200Y-4267200D02*
G75*
G03*
X9335200Y-4267200I-12500J0D01*
G01*
X9359700Y-4394200D02*
G75*
G03*
X9359700Y-4394200I-12500J0D01*
G01*
X9435900Y-3707500D02*
G75*
G03*
X9435900Y-3707500I-12500J0D01*
G01*
X9435900Y-5029200D02*
G75*
G03*
X9435900Y-5029200I-12500J0D01*
G01*
X9512100Y-4673850D02*
G75*
G03*
X9512100Y-4673850I-12500J0D01*
G01*
X9740700Y-7467600D02*
G75*
G03*
X9740700Y-7467600I-12500J0D01*
G01*
X9791500Y-8178800D02*
G75*
G03*
X9791500Y-8178800I-12500J0D01*
G01*
X9893100Y-7924800D02*
G75*
G03*
X9893100Y-7924800I-12500J0D01*
G01*
X9943900Y-7239000D02*
G75*
G03*
X9943900Y-7239000I-12500J0D01*
G01*
X9943900Y-7747000D02*
G75*
G03*
X9943900Y-7747000I-12500J0D01*
G01*
X9994700Y-7666480D02*
G75*
G03*
X9994700Y-7666480I-12500J0D01*
G01*
X10045500Y-7848600D02*
G75*
G03*
X10045500Y-7848600I-12500J0D01*
G01*
X10096300Y-7112000D02*
G75*
G03*
X10096300Y-7112000I-12500J0D01*
G01*
X10096300Y-8178950D02*
G75*
G03*
X10096300Y-8178950I-12500J0D01*
G01*
X10172500Y-7112520D02*
G75*
G03*
X10172500Y-7112520I-12500J0D01*
G01*
X10172500Y-7416800D02*
G75*
G03*
X10172500Y-7416800I-12500J0D01*
G01*
X10225840Y-7416800D02*
G75*
G03*
X10225840Y-7416800I-12500J0D01*
G01*
X10248700Y-4394200D02*
G75*
G03*
X10248700Y-4394200I-12500J0D01*
G01*
X10248700Y-7772400D02*
G75*
G03*
X10248700Y-7772400I-12500J0D01*
G01*
X10274100Y-8178800D02*
G75*
G03*
X10274100Y-8178800I-12500J0D01*
G01*
X10295200Y-5740400D02*
G75*
G03*
X10295200Y-5740400I-12500J0D01*
G01*
X10329000Y-7188200D02*
G75*
G03*
X10329000Y-7188200I-12500J0D01*
G01*
X10361500Y-5442150D02*
G75*
G03*
X10361500Y-5442150I-12500J0D01*
G01*
X10382340Y-7569881D02*
G75*
G03*
X10382340Y-7569881I-12500J0D01*
G01*
X10401100Y-7848600D02*
G75*
G03*
X10401100Y-7848600I-12500J0D01*
G01*
X10425200Y-3733800D02*
G75*
G03*
X10425200Y-3733800I-12500J0D01*
G01*
X10451900Y-5892800D02*
G75*
G03*
X10451900Y-5892800I-12500J0D01*
G01*
X10477300Y-4597400D02*
G75*
G03*
X10477300Y-4597400I-12500J0D01*
G01*
X10502850Y-3657600D02*
G75*
G03*
X10502850Y-3657600I-12500J0D01*
G01*
X10528100Y-5664200D02*
G75*
G03*
X10528100Y-5664200I-12500J0D01*
G01*
X10528100Y-7414630D02*
G75*
G03*
X10528100Y-7414630I-12500J0D01*
G01*
X10553500Y-5080000D02*
G75*
G03*
X10553500Y-5080000I-12500J0D01*
G01*
X10553500Y-7848600D02*
G75*
G03*
X10553500Y-7848600I-12500J0D01*
G01*
X10578900Y-4292600D02*
G75*
G03*
X10578900Y-4292600I-12500J0D01*
G01*
X10629700Y-5080150D02*
G75*
G03*
X10629700Y-5080150I-12500J0D01*
G01*
X10629700Y-5994250D02*
G75*
G03*
X10629700Y-5994250I-12500J0D01*
G01*
X10629700Y-8153400D02*
G75*
G03*
X10629700Y-8153400I-12500J0D01*
G01*
X10705900Y-6020700D02*
G75*
G03*
X10705900Y-6020700I-12500J0D01*
G01*
X10731300Y-5232400D02*
G75*
G03*
X10731300Y-5232400I-12500J0D01*
G01*
X10756700Y-7467600D02*
G75*
G03*
X10756700Y-7467600I-12500J0D01*
G01*
X10782100Y-4546600D02*
G75*
G03*
X10782100Y-4546600I-12500J0D01*
G01*
X10807500Y-7747000D02*
G75*
G03*
X10807500Y-7747000I-12500J0D01*
G01*
X10807500Y-7950200D02*
G75*
G03*
X10807500Y-7950200I-12500J0D01*
G01*
X10832900Y-8153400D02*
G75*
G03*
X10832900Y-8153400I-12500J0D01*
G01*
X10832900Y-8276970D02*
G75*
G03*
X10832900Y-8276970I-12500J0D01*
G01*
X10883180Y-3606280D02*
G75*
G03*
X10883180Y-3606280I-12500J0D01*
G01*
X10883700Y-4876800D02*
G75*
G03*
X10883700Y-4876800I-12500J0D01*
G01*
X10883700Y-5334000D02*
G75*
G03*
X10883700Y-5334000I-12500J0D01*
G01*
X10883700Y-5562600D02*
G75*
G03*
X10883700Y-5562600I-12500J0D01*
G01*
X10909100Y-5867400D02*
G75*
G03*
X10909100Y-5867400I-12500J0D01*
G01*
X10909100Y-7391400D02*
G75*
G03*
X10909100Y-7391400I-12500J0D01*
G01*
X10909100Y-7696200D02*
G75*
G03*
X10909100Y-7696200I-12500J0D01*
G01*
X10934500Y-7137400D02*
G75*
G03*
X10934500Y-7137400I-12500J0D01*
G01*
X11010700Y-4466000D02*
G75*
G03*
X11010700Y-4466000I-12500J0D01*
G01*
X11061500Y-5232400D02*
G75*
G03*
X11061500Y-5232400I-12500J0D01*
G01*
X11061500Y-8229600D02*
G75*
G03*
X11061500Y-8229600I-12500J0D01*
G01*
X11086900Y-7950200D02*
G75*
G03*
X11086900Y-7950200I-12500J0D01*
G01*
X11163100Y-3581400D02*
G75*
G03*
X11163100Y-3581400I-12500J0D01*
G01*
X11163100Y-3733800D02*
G75*
G03*
X11163100Y-3733800I-12500J0D01*
G01*
X11213380Y-5410200D02*
G75*
G03*
X11213380Y-5410200I-12500J0D01*
G01*
X11213900Y-5486400D02*
G75*
G03*
X11213900Y-5486400I-12500J0D01*
G01*
X11213900Y-5562600D02*
G75*
G03*
X11213900Y-5562600I-12500J0D01*
G01*
X11239300Y-5054600D02*
G75*
G03*
X11239300Y-5054600I-12500J0D01*
G01*
X11239300Y-7366000D02*
G75*
G03*
X11239300Y-7366000I-12500J0D01*
G01*
X11239300Y-8026400D02*
G75*
G03*
X11239300Y-8026400I-12500J0D01*
G01*
X11264700Y-6070600D02*
G75*
G03*
X11264700Y-6070600I-12500J0D01*
G01*
X11315500Y-6604000D02*
G75*
G03*
X11315500Y-6604000I-12500J0D01*
G01*
X11391700Y-5130800D02*
G75*
G03*
X11391700Y-5130800I-12500J0D01*
G01*
X11430350Y-5975600D02*
G75*
G03*
X11430350Y-5975600I-12500J0D01*
G01*
X11430350Y-6165600D02*
G75*
G03*
X11430350Y-6165600I-12500J0D01*
G01*
X11442500Y-6578600D02*
G75*
G03*
X11442500Y-6578600I-12500J0D01*
G01*
X11446600Y-4267200D02*
G75*
G03*
X11446600Y-4267200I-12500J0D01*
G01*
X11467900Y-5892800D02*
G75*
G03*
X11467900Y-5892800I-12500J0D01*
G01*
X11467900Y-6248400D02*
G75*
G03*
X11467900Y-6248400I-12500J0D01*
G01*
X11518700Y-6426050D02*
G75*
G03*
X11518700Y-6426050I-12500J0D01*
G01*
X11544100Y-4089400D02*
G75*
G03*
X11544100Y-4089400I-12500J0D01*
G01*
X11569500Y-4292600D02*
G75*
G03*
X11569500Y-4292600I-12500J0D01*
G01*
X11600500Y-4800600D02*
G75*
G03*
X11600500Y-4800600I-12500J0D01*
G01*
X11620300Y-4267200D02*
G75*
G03*
X11620300Y-4267200I-12500J0D01*
G01*
X11620300Y-5257800D02*
G75*
G03*
X11620300Y-5257800I-12500J0D01*
G01*
X11629940Y-3835400D02*
G75*
G03*
X11629940Y-3835400I-12500J0D01*
G01*
X11696500Y-5511800D02*
G75*
G03*
X11696500Y-5511800I-12500J0D01*
G01*
X11696500Y-6248400D02*
G75*
G03*
X11696500Y-6248400I-12500J0D01*
G01*
X11721900Y-4521200D02*
G75*
G03*
X11721900Y-4521200I-12500J0D01*
G01*
X11756516Y-6145883D02*
G75*
G03*
X11756516Y-6145883I-12500J0D01*
G01*
X11760399Y-6286327D02*
G75*
G03*
X11760399Y-6286327I-12500J0D01*
G01*
X11766350Y-5948430D02*
G75*
G03*
X11766350Y-5948430I-12500J0D01*
G01*
X11781704Y-6029300D02*
G75*
G03*
X11781704Y-6029300I-12500J0D01*
G01*
X11789926Y-5456527D02*
G75*
G03*
X11789926Y-5456527I-12500J0D01*
G01*
X11796800Y-3962400D02*
G75*
G03*
X11796800Y-3962400I-12500J0D01*
G01*
X11823500Y-6578600D02*
G75*
G03*
X11823500Y-6578600I-12500J0D01*
G01*
X11823500Y-8228000D02*
G75*
G03*
X11823500Y-8228000I-12500J0D01*
G01*
X11827600Y-4855500D02*
G75*
G03*
X11827600Y-4855500I-12500J0D01*
G01*
X11848900Y-7010400D02*
G75*
G03*
X11848900Y-7010400I-12500J0D01*
G01*
X11849820Y-3784600D02*
G75*
G03*
X11849820Y-3784600I-12500J0D01*
G01*
X11874300Y-4267200D02*
G75*
G03*
X11874300Y-4267200I-12500J0D01*
G01*
X11874300Y-8228000D02*
G75*
G03*
X11874300Y-8228000I-12500J0D01*
G01*
X11925100Y-8228000D02*
G75*
G03*
X11925100Y-8228000I-12500J0D01*
G01*
X11951020Y-5359400D02*
G75*
G03*
X11951020Y-5359400I-12500J0D01*
G01*
X11957600Y-4691900D02*
G75*
G03*
X11957600Y-4691900I-12500J0D01*
G01*
X11975900Y-4853940D02*
G75*
G03*
X11975900Y-4853940I-12500J0D01*
G01*
X11975900Y-6426200D02*
G75*
G03*
X11975900Y-6426200I-12500J0D01*
G01*
X11975900Y-7086600D02*
G75*
G03*
X11975900Y-7086600I-12500J0D01*
G01*
X11975900Y-7416800D02*
G75*
G03*
X11975900Y-7416800I-12500J0D01*
G01*
X11975900Y-7467600D02*
G75*
G03*
X11975900Y-7467600I-12500J0D01*
G01*
X11975900Y-7518400D02*
G75*
G03*
X11975900Y-7518400I-12500J0D01*
G01*
X11975900Y-7569200D02*
G75*
G03*
X11975900Y-7569200I-12500J0D01*
G01*
X11975900Y-8228000D02*
G75*
G03*
X11975900Y-8228000I-12500J0D01*
G01*
X12001300Y-3657600D02*
G75*
G03*
X12001300Y-3657600I-12500J0D01*
G01*
X12026700Y-4673600D02*
G75*
G03*
X12026700Y-4673600I-12500J0D01*
G01*
X12028300Y-8228000D02*
G75*
G03*
X12028300Y-8228000I-12500J0D01*
G01*
X12052100Y-4153400D02*
G75*
G03*
X12052100Y-4153400I-12500J0D01*
G01*
X12052100Y-4876800D02*
G75*
G03*
X12052100Y-4876800I-12500J0D01*
G01*
X12053124Y-6552176D02*
G75*
G03*
X12053124Y-6552176I-12500J0D01*
G01*
X12077500Y-6426200D02*
G75*
G03*
X12077500Y-6426200I-12500J0D01*
G01*
X12102899Y-6578749D02*
G75*
G03*
X12102899Y-6578749I-12500J0D01*
G01*
X12106020Y-5334351D02*
G75*
G03*
X12106020Y-5334351I-12500J0D01*
G01*
X12153700Y-6756400D02*
G75*
G03*
X12153700Y-6756400I-12500J0D01*
G01*
X12159150Y-6248400D02*
G75*
G03*
X12159150Y-6248400I-12500J0D01*
G01*
X12179100Y-3479800D02*
G75*
G03*
X12179100Y-3479800I-12500J0D01*
G01*
X12179100Y-3987800D02*
G75*
G03*
X12179100Y-3987800I-12500J0D01*
G01*
X12200550Y-6013567D02*
G75*
G03*
X12200550Y-6013567I-12500J0D01*
G01*
X12204500Y-3733800D02*
G75*
G03*
X12204500Y-3733800I-12500J0D01*
G01*
X12204500Y-4241800D02*
G75*
G03*
X12204500Y-4241800I-12500J0D01*
G01*
X12204500Y-5334000D02*
G75*
G03*
X12204500Y-5334000I-12500J0D01*
G01*
X12204500Y-5639320D02*
G75*
G03*
X12204500Y-5639320I-12500J0D01*
G01*
X12204500Y-6299200D02*
G75*
G03*
X12204500Y-6299200I-12500J0D01*
G01*
X12204500Y-7086600D02*
G75*
G03*
X12204500Y-7086600I-12500J0D01*
G01*
X12217200Y-6464300D02*
G75*
G03*
X12217200Y-6464300I-12500J0D01*
G01*
X12229900Y-6654800D02*
G75*
G03*
X12229900Y-6654800I-12500J0D01*
G01*
X12255300Y-3733800D02*
G75*
G03*
X12255300Y-3733800I-12500J0D01*
G01*
X12255300Y-5842000D02*
G75*
G03*
X12255300Y-5842000I-12500J0D01*
G01*
X12260683Y-6712283D02*
G75*
G03*
X12260683Y-6712283I-12500J0D01*
G01*
X12261534Y-7810666D02*
G75*
G03*
X12261534Y-7810666I-12500J0D01*
G01*
X12280700Y-6502400D02*
G75*
G03*
X12280700Y-6502400I-12500J0D01*
G01*
X12280700Y-8229600D02*
G75*
G03*
X12280700Y-8229600I-12500J0D01*
G01*
X12306100Y-5435600D02*
G75*
G03*
X12306100Y-5435600I-12500J0D01*
G01*
X12306100Y-5689600D02*
G75*
G03*
X12306100Y-5689600I-12500J0D01*
G01*
X12306100Y-6949750D02*
G75*
G03*
X12306100Y-6949750I-12500J0D01*
G01*
X12306100Y-7264550D02*
G75*
G03*
X12306100Y-7264550I-12500J0D01*
G01*
X12306100Y-7718850D02*
G75*
G03*
X12306100Y-7718850I-12500J0D01*
G01*
X12306121Y-7419548D02*
G75*
G03*
X12306121Y-7419548I-12500J0D01*
G01*
X12331500Y-3479800D02*
G75*
G03*
X12331500Y-3479800I-12500J0D01*
G01*
X12348700Y-6299200D02*
G75*
G03*
X12348700Y-6299200I-12500J0D01*
G01*
X12352977Y-6857877D02*
G75*
G03*
X12352977Y-6857877I-12500J0D01*
G01*
X12356900Y-6781800D02*
G75*
G03*
X12356900Y-6781800I-12500J0D01*
G01*
X12356900Y-7442200D02*
G75*
G03*
X12356900Y-7442200I-12500J0D01*
G01*
X12382300Y-6172200D02*
G75*
G03*
X12382300Y-6172200I-12500J0D01*
G01*
X12404316Y-7264420D02*
G75*
G03*
X12404316Y-7264420I-12500J0D01*
G01*
X12433100Y-6959750D02*
G75*
G03*
X12433100Y-6959750I-12500J0D01*
G01*
X12433100Y-7114750D02*
G75*
G03*
X12433100Y-7114750I-12500J0D01*
G01*
X12444426Y-7430874D02*
G75*
G03*
X12444426Y-7430874I-12500J0D01*
G01*
X12453613Y-6448013D02*
G75*
G03*
X12453613Y-6448013I-12500J0D01*
G01*
X12458511Y-7723049D02*
G75*
G03*
X12458511Y-7723049I-12500J0D01*
G01*
X12483900Y-4064000D02*
G75*
G03*
X12483900Y-4064000I-12500J0D01*
G01*
X12483900Y-5613400D02*
G75*
G03*
X12483900Y-5613400I-12500J0D01*
G01*
X12483900Y-5664200D02*
G75*
G03*
X12483900Y-5664200I-12500J0D01*
G01*
X12505350Y-7055750D02*
G75*
G03*
X12505350Y-7055750I-12500J0D01*
G01*
X12506807Y-7569200D02*
G75*
G03*
X12506807Y-7569200I-12500J0D01*
G01*
X12509300Y-6271630D02*
G75*
G03*
X12509300Y-6271630I-12500J0D01*
G01*
X12509300Y-6731000D02*
G75*
G03*
X12509300Y-6731000I-12500J0D01*
G01*
X12509300Y-7137400D02*
G75*
G03*
X12509300Y-7137400I-12500J0D01*
G01*
X12509300Y-7289800D02*
G75*
G03*
X12509300Y-7289800I-12500J0D01*
G01*
X12509300Y-7747000D02*
G75*
G03*
X12509300Y-7747000I-12500J0D01*
G01*
X12509300Y-7874000D02*
G75*
G03*
X12509300Y-7874000I-12500J0D01*
G01*
X12509450Y-6096000D02*
G75*
G03*
X12509450Y-6096000I-12500J0D01*
G01*
X12513065Y-6909109D02*
G75*
G03*
X12513065Y-6909109I-12500J0D01*
G01*
X12534700Y-4229980D02*
G75*
G03*
X12534700Y-4229980I-12500J0D01*
G01*
X12534700Y-4394200D02*
G75*
G03*
X12534700Y-4394200I-12500J0D01*
G01*
X12585500Y-6197600D02*
G75*
G03*
X12585500Y-6197600I-12500J0D01*
G01*
X12585500Y-7181900D02*
G75*
G03*
X12585500Y-7181900I-12500J0D01*
G01*
X12585500Y-7569200D02*
G75*
G03*
X12585500Y-7569200I-12500J0D01*
G01*
X12608150Y-7109250D02*
G75*
G03*
X12608150Y-7109250I-12500J0D01*
G01*
X12610900Y-3962400D02*
G75*
G03*
X12610900Y-3962400I-12500J0D01*
G01*
X12610900Y-7721600D02*
G75*
G03*
X12610900Y-7721600I-12500J0D01*
G01*
X12661700Y-5181600D02*
G75*
G03*
X12661700Y-5181600I-12500J0D01*
G01*
X12661700Y-6578600D02*
G75*
G03*
X12661700Y-6578600I-12500J0D01*
G01*
X12665650Y-7950200D02*
G75*
G03*
X12665650Y-7950200I-12500J0D01*
G01*
X12666500Y-4075200D02*
G75*
G03*
X12666500Y-4075200I-12500J0D01*
G01*
X12707050Y-7137400D02*
G75*
G03*
X12707050Y-7137400I-12500J0D01*
G01*
X12707050Y-7264400D02*
G75*
G03*
X12707050Y-7264400I-12500J0D01*
G01*
X12712279Y-4192571D02*
G75*
G03*
X12712279Y-4192571I-12500J0D01*
G01*
X12712817Y-6680517D02*
G75*
G03*
X12712817Y-6680517I-12500J0D01*
G01*
X12788700Y-3505200D02*
G75*
G03*
X12788700Y-3505200I-12500J0D01*
G01*
X12788700Y-7493000D02*
G75*
G03*
X12788700Y-7493000I-12500J0D01*
G01*
X12788700Y-7543800D02*
G75*
G03*
X12788700Y-7543800I-12500J0D01*
G01*
X12788700Y-7797800D02*
G75*
G03*
X12788700Y-7797800I-12500J0D01*
G01*
X12814100Y-3937000D02*
G75*
G03*
X12814100Y-3937000I-12500J0D01*
G01*
X12814100Y-4095350D02*
G75*
G03*
X12814100Y-4095350I-12500J0D01*
G01*
X12814100Y-8097150D02*
G75*
G03*
X12814100Y-8097150I-12500J0D01*
G01*
X12814100Y-8308350D02*
G75*
G03*
X12814100Y-8308350I-12500J0D01*
G01*
X12865367Y-6979550D02*
G75*
G03*
X12865367Y-6979550I-12500J0D01*
G01*
X12876350Y-6855090D02*
G75*
G03*
X12876350Y-6855090I-12500J0D01*
G01*
X12890300Y-7112000D02*
G75*
G03*
X12890300Y-7112000I-12500J0D01*
G01*
X12910250Y-4064000D02*
G75*
G03*
X12910250Y-4064000I-12500J0D01*
G01*
X12912160Y-4241800D02*
G75*
G03*
X12912160Y-4241800I-12500J0D01*
G01*
X12915700Y-7877950D02*
G75*
G03*
X12915700Y-7877950I-12500J0D01*
G01*
X12941100Y-4648200D02*
G75*
G03*
X12941100Y-4648200I-12500J0D01*
G01*
X12941100Y-6451600D02*
G75*
G03*
X12941100Y-6451600I-12500J0D01*
G01*
X12966500Y-3784750D02*
G75*
G03*
X12966500Y-3784750I-12500J0D01*
G01*
X12966500Y-4749800D02*
G75*
G03*
X12966500Y-4749800I-12500J0D01*
G01*
X12975508Y-6739516D02*
G75*
G03*
X12975508Y-6739516I-12500J0D01*
G01*
X12991900Y-8102600D02*
G75*
G03*
X12991900Y-8102600I-12500J0D01*
G01*
X12991900Y-8305800D02*
G75*
G03*
X12991900Y-8305800I-12500J0D01*
G01*
X13011950Y-6846195D02*
G75*
G03*
X13011950Y-6846195I-12500J0D01*
G01*
X13017300Y-3454400D02*
G75*
G03*
X13017300Y-3454400I-12500J0D01*
G01*
X13036683Y-6520483D02*
G75*
G03*
X13036683Y-6520483I-12500J0D01*
G01*
X13042498Y-7492102D02*
G75*
G03*
X13042498Y-7492102I-12500J0D01*
G01*
X13042700Y-7293800D02*
G75*
G03*
X13042700Y-7293800I-12500J0D01*
G01*
X13042700Y-7823200D02*
G75*
G03*
X13042700Y-7823200I-12500J0D01*
G01*
X13047500Y-4029700D02*
G75*
G03*
X13047500Y-4029700I-12500J0D01*
G01*
X13093500Y-4445000D02*
G75*
G03*
X13093500Y-4445000I-12500J0D01*
G01*
X13101245Y-6460225D02*
G75*
G03*
X13101245Y-6460225I-12500J0D01*
G01*
X13118900Y-4191000D02*
G75*
G03*
X13118900Y-4191000I-12500J0D01*
G01*
X13118900Y-7264400D02*
G75*
G03*
X13118900Y-7264400I-12500J0D01*
G01*
X13137633Y-7702867D02*
G75*
G03*
X13137633Y-7702867I-12500J0D01*
G01*
X13144300Y-5003800D02*
G75*
G03*
X13144300Y-5003800I-12500J0D01*
G01*
X13144300Y-7467600D02*
G75*
G03*
X13144300Y-7467600I-12500J0D01*
G01*
X13186929Y-7018890D02*
G75*
G03*
X13186929Y-7018890I-12500J0D01*
G01*
X13195100Y-3606800D02*
G75*
G03*
X13195100Y-3606800I-12500J0D01*
G01*
X13195100Y-3683000D02*
G75*
G03*
X13195100Y-3683000I-12500J0D01*
G01*
X13195100Y-6756400D02*
G75*
G03*
X13195100Y-6756400I-12500J0D01*
G01*
X13220500Y-7213600D02*
G75*
G03*
X13220500Y-7213600I-12500J0D01*
G01*
X13222986Y-6980523D02*
G75*
G03*
X13222986Y-6980523I-12500J0D01*
G01*
X13225950Y-6604000D02*
G75*
G03*
X13225950Y-6604000I-12500J0D01*
G01*
X13245900Y-3911600D02*
G75*
G03*
X13245900Y-3911600I-12500J0D01*
G01*
X13245900Y-3962400D02*
G75*
G03*
X13245900Y-3962400I-12500J0D01*
G01*
X13271300Y-7442200D02*
G75*
G03*
X13271300Y-7442200I-12500J0D01*
G01*
X13271300Y-7625450D02*
G75*
G03*
X13271300Y-7625450I-12500J0D01*
G01*
X13296700Y-3911600D02*
G75*
G03*
X13296700Y-3911600I-12500J0D01*
G01*
X13296700Y-3962400D02*
G75*
G03*
X13296700Y-3962400I-12500J0D01*
G01*
X13296700Y-7213600D02*
G75*
G03*
X13296700Y-7213600I-12500J0D01*
G01*
X13296700Y-7264400D02*
G75*
G03*
X13296700Y-7264400I-12500J0D01*
G01*
X13322100Y-6601780D02*
G75*
G03*
X13322100Y-6601780I-12500J0D01*
G01*
X13322100Y-7416800D02*
G75*
G03*
X13322100Y-7416800I-12500J0D01*
G01*
X13340833Y-5886133D02*
G75*
G03*
X13340833Y-5886133I-12500J0D01*
G01*
X13342584Y-6810550D02*
G75*
G03*
X13342584Y-6810550I-12500J0D01*
G01*
X13347500Y-3911600D02*
G75*
G03*
X13347500Y-3911600I-12500J0D01*
G01*
X13347500Y-3962400D02*
G75*
G03*
X13347500Y-3962400I-12500J0D01*
G01*
X13347500Y-6959600D02*
G75*
G03*
X13347500Y-6959600I-12500J0D01*
G01*
X13372900Y-6719800D02*
G75*
G03*
X13372900Y-6719800I-12500J0D01*
G01*
X13372900Y-7213600D02*
G75*
G03*
X13372900Y-7213600I-12500J0D01*
G01*
X13372900Y-7264400D02*
G75*
G03*
X13372900Y-7264400I-12500J0D01*
G01*
X13449100Y-6654800D02*
G75*
G03*
X13449100Y-6654800I-12500J0D01*
G01*
X13449100Y-7034674D02*
G75*
G03*
X13449100Y-7034674I-12500J0D01*
G01*
X13449100Y-7899400D02*
G75*
G03*
X13449100Y-7899400I-12500J0D01*
G01*
X13474500Y-6578600D02*
G75*
G03*
X13474500Y-6578600I-12500J0D01*
G01*
X13474500Y-7144298D02*
G75*
G03*
X13474500Y-7144298I-12500J0D01*
G01*
X13497680Y-6019800D02*
G75*
G03*
X13497680Y-6019800I-12500J0D01*
G01*
X13499900Y-7340600D02*
G75*
G03*
X13499900Y-7340600I-12500J0D01*
G01*
X13500050Y-3606800D02*
G75*
G03*
X13500050Y-3606800I-12500J0D01*
G01*
X13525300Y-6502400D02*
G75*
G03*
X13525300Y-6502400I-12500J0D01*
G01*
X13525300Y-6578600D02*
G75*
G03*
X13525300Y-6578600I-12500J0D01*
G01*
X13550700Y-6019800D02*
G75*
G03*
X13550700Y-6019800I-12500J0D01*
G01*
X13550700Y-6070600D02*
G75*
G03*
X13550700Y-6070600I-12500J0D01*
G01*
X13550700Y-6121400D02*
G75*
G03*
X13550700Y-6121400I-12500J0D01*
G01*
X13550700Y-6172200D02*
G75*
G03*
X13550700Y-6172200I-12500J0D01*
G01*
X13550700Y-6223000D02*
G75*
G03*
X13550700Y-6223000I-12500J0D01*
G01*
X13550700Y-6273800D02*
G75*
G03*
X13550700Y-6273800I-12500J0D01*
G01*
X13550700Y-6324600D02*
G75*
G03*
X13550700Y-6324600I-12500J0D01*
G01*
X13550700Y-6375400D02*
G75*
G03*
X13550700Y-6375400I-12500J0D01*
G01*
X13550700Y-6426200D02*
G75*
G03*
X13550700Y-6426200I-12500J0D01*
G01*
X13550700Y-7366000D02*
G75*
G03*
X13550700Y-7366000I-12500J0D01*
G01*
X13576100Y-4648200D02*
G75*
G03*
X13576100Y-4648200I-12500J0D01*
G01*
X13576100Y-6502400D02*
G75*
G03*
X13576100Y-6502400I-12500J0D01*
G01*
X13576100Y-6578600D02*
G75*
G03*
X13576100Y-6578600I-12500J0D01*
G01*
X13597529Y-7053548D02*
G75*
G03*
X13597529Y-7053548I-12500J0D01*
G01*
X13601500Y-3886200D02*
G75*
G03*
X13601500Y-3886200I-12500J0D01*
G01*
X13601500Y-3937000D02*
G75*
G03*
X13601500Y-3937000I-12500J0D01*
G01*
X13601500Y-3987800D02*
G75*
G03*
X13601500Y-3987800I-12500J0D01*
G01*
X13601500Y-6019800D02*
G75*
G03*
X13601500Y-6019800I-12500J0D01*
G01*
X13601500Y-6070600D02*
G75*
G03*
X13601500Y-6070600I-12500J0D01*
G01*
X13601500Y-6121400D02*
G75*
G03*
X13601500Y-6121400I-12500J0D01*
G01*
X13601500Y-6172200D02*
G75*
G03*
X13601500Y-6172200I-12500J0D01*
G01*
X13601500Y-6223000D02*
G75*
G03*
X13601500Y-6223000I-12500J0D01*
G01*
X13601500Y-6273800D02*
G75*
G03*
X13601500Y-6273800I-12500J0D01*
G01*
X13601500Y-6324600D02*
G75*
G03*
X13601500Y-6324600I-12500J0D01*
G01*
X13601500Y-6375400D02*
G75*
G03*
X13601500Y-6375400I-12500J0D01*
G01*
X13601500Y-6426200D02*
G75*
G03*
X13601500Y-6426200I-12500J0D01*
G01*
X13601500Y-7162800D02*
G75*
G03*
X13601500Y-7162800I-12500J0D01*
G01*
X13626900Y-6502400D02*
G75*
G03*
X13626900Y-6502400I-12500J0D01*
G01*
X13626900Y-6578600D02*
G75*
G03*
X13626900Y-6578600I-12500J0D01*
G01*
X13652300Y-3886200D02*
G75*
G03*
X13652300Y-3886200I-12500J0D01*
G01*
X13652300Y-3937000D02*
G75*
G03*
X13652300Y-3937000I-12500J0D01*
G01*
X13652300Y-3987800D02*
G75*
G03*
X13652300Y-3987800I-12500J0D01*
G01*
X13652300Y-5689600D02*
G75*
G03*
X13652300Y-5689600I-12500J0D01*
G01*
X13652300Y-6019800D02*
G75*
G03*
X13652300Y-6019800I-12500J0D01*
G01*
X13652300Y-6070600D02*
G75*
G03*
X13652300Y-6070600I-12500J0D01*
G01*
X13652300Y-6121400D02*
G75*
G03*
X13652300Y-6121400I-12500J0D01*
G01*
X13652300Y-6172200D02*
G75*
G03*
X13652300Y-6172200I-12500J0D01*
G01*
X13652300Y-6223000D02*
G75*
G03*
X13652300Y-6223000I-12500J0D01*
G01*
X13652300Y-6273800D02*
G75*
G03*
X13652300Y-6273800I-12500J0D01*
G01*
X13652300Y-6324600D02*
G75*
G03*
X13652300Y-6324600I-12500J0D01*
G01*
X13652300Y-6375400D02*
G75*
G03*
X13652300Y-6375400I-12500J0D01*
G01*
X13652300Y-6426200D02*
G75*
G03*
X13652300Y-6426200I-12500J0D01*
G01*
X13703100Y-6019800D02*
G75*
G03*
X13703100Y-6019800I-12500J0D01*
G01*
X13703100Y-6070600D02*
G75*
G03*
X13703100Y-6070600I-12500J0D01*
G01*
X13703100Y-6121400D02*
G75*
G03*
X13703100Y-6121400I-12500J0D01*
G01*
X13703100Y-6172200D02*
G75*
G03*
X13703100Y-6172200I-12500J0D01*
G01*
X13703100Y-6223000D02*
G75*
G03*
X13703100Y-6223000I-12500J0D01*
G01*
X13703100Y-6273800D02*
G75*
G03*
X13703100Y-6273800I-12500J0D01*
G01*
X13703100Y-6324600D02*
G75*
G03*
X13703100Y-6324600I-12500J0D01*
G01*
X13703100Y-6375400D02*
G75*
G03*
X13703100Y-6375400I-12500J0D01*
G01*
X13703100Y-6426200D02*
G75*
G03*
X13703100Y-6426200I-12500J0D01*
G01*
X13779300Y-6172200D02*
G75*
G03*
X13779300Y-6172200I-12500J0D01*
G01*
X13804700Y-3911450D02*
G75*
G03*
X13804700Y-3911450I-12500J0D01*
G01*
X13804700Y-5842000D02*
G75*
G03*
X13804700Y-5842000I-12500J0D01*
G01*
X13804700Y-5892800D02*
G75*
G03*
X13804700Y-5892800I-12500J0D01*
G01*
X13804700Y-5943600D02*
G75*
G03*
X13804700Y-5943600I-12500J0D01*
G01*
X13804700Y-5994400D02*
G75*
G03*
X13804700Y-5994400I-12500J0D01*
G01*
X13855500Y-6527800D02*
G75*
G03*
X13855500Y-6527800I-12500J0D01*
G01*
X13880900Y-5842000D02*
G75*
G03*
X13880900Y-5842000I-12500J0D01*
G01*
X13880900Y-5892800D02*
G75*
G03*
X13880900Y-5892800I-12500J0D01*
G01*
X13880900Y-5943600D02*
G75*
G03*
X13880900Y-5943600I-12500J0D01*
G01*
X13880900Y-5994400D02*
G75*
G03*
X13880900Y-5994400I-12500J0D01*
G01*
X13957100Y-5740400D02*
G75*
G03*
X13957100Y-5740400I-12500J0D01*
G01*
X13957100Y-6172200D02*
G75*
G03*
X13957100Y-6172200I-12500J0D01*
G01*
X13957100Y-6248400D02*
G75*
G03*
X13957100Y-6248400I-12500J0D01*
G01*
X14001300Y-5130800D02*
G75*
G03*
X14001300Y-5130800I-12500J0D01*
G01*
X14001300Y-5334000D02*
G75*
G03*
X14001300Y-5334000I-12500J0D01*
G01*
X14007900Y-3886200D02*
G75*
G03*
X14007900Y-3886200I-12500J0D01*
G01*
X14007900Y-3937000D02*
G75*
G03*
X14007900Y-3937000I-12500J0D01*
G01*
X14021794Y-6143495D02*
G75*
G03*
X14021794Y-6143495I-12500J0D01*
G01*
X14033300Y-6508500D02*
G75*
G03*
X14033300Y-6508500I-12500J0D01*
G01*
X14058700Y-3886200D02*
G75*
G03*
X14058700Y-3886200I-12500J0D01*
G01*
X14058700Y-3937000D02*
G75*
G03*
X14058700Y-3937000I-12500J0D01*
G01*
X14085280Y-6096000D02*
G75*
G03*
X14085280Y-6096000I-12500J0D01*
G01*
X14102250Y-7594600D02*
G75*
G03*
X14102250Y-7594600I-12500J0D01*
G01*
X5638800Y-7379700D02*
X5638800Y-7404700D01*
X5626300Y-7392200D02*
X5651300Y-7392200D01*
X5638800Y-7479700D02*
X5638800Y-7504700D01*
X5626300Y-7492200D02*
X5651300Y-7492200D01*
D14*
X6294813Y-7841613D02*
X6294813Y-7799187D01*
X6252387Y-7799187D01*
X6252387Y-7841613D01*
X6294813Y-7841613D01*
D11*
X6303600Y-7875400D02*
X6303600Y-7765400D01*
X6303600Y-7765400D02*
G75*
G03*
X6243600Y-7765400I-30000J0D01*
G01*
X6243600Y-7765400D02*
X6243600Y-7875400D01*
X6243600Y-7875400D02*
G75*
G03*
X6303600Y-7875400I30000J0D01*
G01*
D14*
X6294813Y-8259613D02*
X6294813Y-8217187D01*
X6252387Y-8217187D01*
X6252387Y-8259613D01*
X6294813Y-8259613D01*
D11*
X6303600Y-8278400D02*
X6303600Y-8198400D01*
X6303600Y-8198400D02*
G75*
G03*
X6243600Y-8198400I-30000J0D01*
G01*
X6243600Y-8198400D02*
X6243600Y-8278400D01*
X6243600Y-8278400D02*
G75*
G03*
X6303600Y-8278400I30000J0D01*
G01*
D14*
X7158813Y-7841613D02*
X7158813Y-7799187D01*
X7116387Y-7799187D01*
X7116387Y-7841613D01*
X7158813Y-7841613D01*
D11*
X7167600Y-7875400D02*
X7167600Y-7765400D01*
X7167600Y-7765400D02*
G75*
G03*
X7107600Y-7765400I-30000J0D01*
G01*
X7107600Y-7765400D02*
X7107600Y-7875400D01*
X7107600Y-7875400D02*
G75*
G03*
X7167600Y-7875400I30000J0D01*
G01*
D14*
X7158813Y-8259613D02*
X7158813Y-8217187D01*
X7116387Y-8217187D01*
X7116387Y-8259613D01*
X7158813Y-8259613D01*
D11*
X7167600Y-8278400D02*
X7167600Y-8198400D01*
X7167600Y-8198400D02*
G75*
G03*
X7107600Y-8198400I-30000J0D01*
G01*
X7107600Y-8198400D02*
X7107600Y-8278400D01*
X7107600Y-8278400D02*
G75*
G03*
X7167600Y-8278400I30000J0D01*
G01*
D14*
X13203613Y-7894013D02*
X13203613Y-7851587D01*
X13161187Y-7851587D01*
X13161187Y-7894013D01*
X13203613Y-7894013D01*
D11*
X13212400Y-7927800D02*
X13212400Y-7817800D01*
X13212400Y-7817800D02*
G75*
G03*
X13152400Y-7817800I-30000J0D01*
G01*
X13152400Y-7817800D02*
X13152400Y-7927800D01*
X13152400Y-7927800D02*
G75*
G03*
X13212400Y-7927800I30000J0D01*
G01*
D14*
X13203613Y-8312013D02*
X13203613Y-8269587D01*
X13161187Y-8269587D01*
X13161187Y-8312013D01*
X13203613Y-8312013D01*
D11*
X13212400Y-8330800D02*
X13212400Y-8250800D01*
X13212400Y-8250800D02*
G75*
G03*
X13152400Y-8250800I-30000J0D01*
G01*
X13152400Y-8250800D02*
X13152400Y-8330800D01*
X13152400Y-8330800D02*
G75*
G03*
X13212400Y-8330800I30000J0D01*
G01*
D14*
X14067613Y-7894013D02*
X14067613Y-7851587D01*
X14025187Y-7851587D01*
X14025187Y-7894013D01*
X14067613Y-7894013D01*
D11*
X14076400Y-7927800D02*
X14076400Y-7817800D01*
X14076400Y-7817800D02*
G75*
G03*
X14016400Y-7817800I-30000J0D01*
G01*
X14016400Y-7817800D02*
X14016400Y-7927800D01*
X14016400Y-7927800D02*
G75*
G03*
X14076400Y-7927800I30000J0D01*
G01*
D14*
X14067613Y-8312013D02*
X14067613Y-8269587D01*
X14025187Y-8269587D01*
X14025187Y-8312013D01*
X14067613Y-8312013D01*
D11*
X14076400Y-8330800D02*
X14076400Y-8250800D01*
X14076400Y-8250800D02*
G75*
G03*
X14016400Y-8250800I-30000J0D01*
G01*
X14016400Y-8250800D02*
X14016400Y-8330800D01*
X14016400Y-8330800D02*
G75*
G03*
X14076400Y-8330800I30000J0D01*
G01*
D15*
X4972000Y-3621400D02*
X5012000Y-3581400D01*
X4972000Y-3541400D01*
X4932000Y-3581400D01*
X4972000Y-3621400D01*
X5172000Y-3621400D02*
X5212000Y-3581400D01*
X5172000Y-3541400D01*
X5132000Y-3581400D01*
X5172000Y-3621400D01*
X5372000Y-3621400D02*
X5412000Y-3581400D01*
X5372000Y-3541400D01*
X5332000Y-3581400D01*
X5372000Y-3621400D01*
X5572000Y-3621400D02*
X5612000Y-3581400D01*
X5572000Y-3541400D01*
X5532000Y-3581400D01*
X5572000Y-3621400D01*
X6572000Y-3621400D02*
X6612000Y-3581400D01*
X6572000Y-3541400D01*
X6532000Y-3581400D01*
X6572000Y-3621400D01*
X6772000Y-3621400D02*
X6812000Y-3581400D01*
X6772000Y-3541400D01*
X6732000Y-3581400D01*
X6772000Y-3621400D01*
X6972000Y-3621400D02*
X7012000Y-3581400D01*
X6972000Y-3541400D01*
X6932000Y-3581400D01*
X6972000Y-3621400D01*
X7172000Y-3621400D02*
X7212000Y-3581400D01*
X7172000Y-3541400D01*
X7132000Y-3581400D01*
X7172000Y-3621400D01*
X7372000Y-3621400D02*
X7412000Y-3581400D01*
X7372000Y-3541400D01*
X7332000Y-3581400D01*
X7372000Y-3621400D01*
X7572000Y-3621400D02*
X7612000Y-3581400D01*
X7572000Y-3541400D01*
X7532000Y-3581400D01*
X7572000Y-3621400D01*
X7772000Y-3621400D02*
X7812000Y-3581400D01*
X7772000Y-3541400D01*
X7732000Y-3581400D01*
X7772000Y-3621400D01*
X7972000Y-3621400D02*
X8012000Y-3581400D01*
X7972000Y-3541400D01*
X7932000Y-3581400D01*
X7972000Y-3621400D01*
X8172000Y-3621400D02*
X8212000Y-3581400D01*
X8172000Y-3541400D01*
X8132000Y-3581400D01*
X8172000Y-3621400D01*
X8372000Y-3621400D02*
X8412000Y-3581400D01*
X8372000Y-3541400D01*
X8332000Y-3581400D01*
X8372000Y-3621400D01*
X8572000Y-3621400D02*
X8612000Y-3581400D01*
X8572000Y-3541400D01*
X8532000Y-3581400D01*
X8572000Y-3621400D01*
X8772000Y-3621400D02*
X8812000Y-3581400D01*
X8772000Y-3541400D01*
X8732000Y-3581400D01*
X8772000Y-3621400D01*
X8972000Y-3621400D02*
X9012000Y-3581400D01*
X8972000Y-3541400D01*
X8932000Y-3581400D01*
X8972000Y-3621400D01*
X9172000Y-3621400D02*
X9212000Y-3581400D01*
X9172000Y-3541400D01*
X9132000Y-3581400D01*
X9172000Y-3621400D01*
X9372000Y-3621400D02*
X9412000Y-3581400D01*
X9372000Y-3541400D01*
X9332000Y-3581400D01*
X9372000Y-3621400D01*
X9572000Y-3621400D02*
X9612000Y-3581400D01*
X9572000Y-3541400D01*
X9532000Y-3581400D01*
X9572000Y-3621400D01*
X9772000Y-3621400D02*
X9812000Y-3581400D01*
X9772000Y-3541400D01*
X9732000Y-3581400D01*
X9772000Y-3621400D01*
X9972000Y-3621400D02*
X10012000Y-3581400D01*
X9972000Y-3541400D01*
X9932000Y-3581400D01*
X9972000Y-3621400D01*
D16*
X7421200Y-7421850D02*
X7511200Y-7511850D01*
X7511200Y-7421850D02*
X7421200Y-7511850D01*
X7511200Y-7466850D02*
G75*
G03*
X7511200Y-7466850I-45000J0D01*
G01*
D11*
X7511200Y-7486850D02*
X7511200Y-7446850D01*
X7511200Y-7446850D02*
G75*
G03*
X7421200Y-7446850I-45000J0D01*
G01*
X7421200Y-7446850D02*
X7421200Y-7486850D01*
X7421200Y-7486850D02*
G75*
G03*
X7511200Y-7486850I45000J0D01*
G01*
D16*
X7421200Y-7821850D02*
X7511200Y-7911850D01*
X7511200Y-7821850D02*
X7421200Y-7911850D01*
X7511200Y-7866850D02*
G75*
G03*
X7511200Y-7866850I-45000J0D01*
G01*
D11*
X7511200Y-7886850D02*
X7511200Y-7846850D01*
X7511200Y-7846850D02*
G75*
G03*
X7421200Y-7846850I-45000J0D01*
G01*
X7421200Y-7846850D02*
X7421200Y-7886850D01*
X7421200Y-7886850D02*
G75*
G03*
X7511200Y-7886850I45000J0D01*
G01*
D16*
X7421200Y-8121850D02*
X7511200Y-8211850D01*
X7511200Y-8121850D02*
X7421200Y-8211850D01*
X7511200Y-8166850D02*
G75*
G03*
X7511200Y-8166850I-45000J0D01*
G01*
D11*
X7511200Y-8186850D02*
X7511200Y-8146850D01*
X7511200Y-8146850D02*
G75*
G03*
X7421200Y-8146850I-45000J0D01*
G01*
X7421200Y-8146850D02*
X7421200Y-8186850D01*
X7421200Y-8186850D02*
G75*
G03*
X7511200Y-8186850I45000J0D01*
G01*
D16*
X7881200Y-7311850D02*
X7971200Y-7401850D01*
X7971200Y-7311850D02*
X7881200Y-7401850D01*
X7971200Y-7356850D02*
G75*
G03*
X7971200Y-7356850I-45000J0D01*
G01*
D11*
X7971200Y-7376850D02*
X7971200Y-7336850D01*
X7971200Y-7336850D02*
G75*
G03*
X7881200Y-7336850I-45000J0D01*
G01*
X7881200Y-7336850D02*
X7881200Y-7376850D01*
X7881200Y-7376850D02*
G75*
G03*
X7971200Y-7376850I45000J0D01*
G01*
D17*
X4557000Y-7689200D02*
X4649000Y-7781200D01*
X4649000Y-7689200D02*
X4557000Y-7781200D01*
X4603000Y-7689200D02*
X4603000Y-7781200D01*
X4557000Y-7735200D02*
X4649000Y-7735200D01*
X4807000Y-7689200D02*
X4899000Y-7781200D01*
X4899000Y-7689200D02*
X4807000Y-7781200D01*
X4853000Y-7689200D02*
X4853000Y-7781200D01*
X4807000Y-7735200D02*
X4899000Y-7735200D01*
X5007000Y-7689200D02*
X5099000Y-7781200D01*
X5099000Y-7689200D02*
X5007000Y-7781200D01*
X5053000Y-7689200D02*
X5053000Y-7781200D01*
X5007000Y-7735200D02*
X5099000Y-7735200D01*
X5257000Y-7689200D02*
X5349000Y-7781200D01*
X5349000Y-7689200D02*
X5257000Y-7781200D01*
X5303000Y-7689200D02*
X5303000Y-7781200D01*
X5257000Y-7735200D02*
X5349000Y-7735200D01*
D18*
X13806300Y-4198300D02*
X13981300Y-4373300D01*
X13981300Y-4198300D02*
X13806300Y-4373300D01*
X13955672Y-4347672D02*
X13955672Y-4223928D01*
X13831928Y-4223928D01*
X13831928Y-4347672D01*
X13955672Y-4347672D01*
X13806300Y-4618300D02*
X13981300Y-4793300D01*
X13981300Y-4618300D02*
X13806300Y-4793300D01*
X13955672Y-4767672D02*
X13955672Y-4643928D01*
X13831928Y-4643928D01*
X13831928Y-4767672D01*
X13955672Y-4767672D01*
D19*
X4181000Y-7891200D02*
X4411000Y-8121200D01*
X4411000Y-7891200D02*
X4181000Y-8121200D01*
X4296000Y-8121200D02*
X4411000Y-8006200D01*
X4296000Y-7891200D01*
X4181000Y-8006200D01*
X4296000Y-8121200D01*
X5495000Y-7891200D02*
X5725000Y-8121200D01*
X5725000Y-7891200D02*
X5495000Y-8121200D01*
X5610000Y-8121200D02*
X5725000Y-8006200D01*
X5610000Y-7891200D01*
X5495000Y-8006200D01*
X5610000Y-8121200D01*
D11*
X4365019Y-8702076D02*
X4365019Y-8502076D01*
X4365019Y-8502076D02*
X4412638Y-8502076D01*
X4412638Y-8502076D02*
X4441210Y-8511600D01*
X4441210Y-8511600D02*
X4460257Y-8530648D01*
X4460257Y-8530648D02*
X4469781Y-8549695D01*
X4469781Y-8549695D02*
X4479305Y-8587790D01*
X4479305Y-8587790D02*
X4479305Y-8616362D01*
X4479305Y-8616362D02*
X4469781Y-8654457D01*
X4469781Y-8654457D02*
X4460257Y-8673505D01*
X4460257Y-8673505D02*
X4441210Y-8692552D01*
X4441210Y-8692552D02*
X4412638Y-8702076D01*
X4412638Y-8702076D02*
X4365019Y-8702076D01*
X4565019Y-8702076D02*
X4565019Y-8568743D01*
X4565019Y-8606838D02*
X4574543Y-8587790D01*
X4574543Y-8587790D02*
X4584067Y-8578267D01*
X4584067Y-8578267D02*
X4603114Y-8568743D01*
X4603114Y-8568743D02*
X4622162Y-8568743D01*
X4688829Y-8702076D02*
X4688829Y-8568743D01*
X4688829Y-8502076D02*
X4679305Y-8511600D01*
X4679305Y-8511600D02*
X4688829Y-8521124D01*
X4688829Y-8521124D02*
X4698352Y-8511600D01*
X4698352Y-8511600D02*
X4688829Y-8502076D01*
X4688829Y-8502076D02*
X4688829Y-8521124D01*
X4812638Y-8702076D02*
X4793590Y-8692552D01*
X4793590Y-8692552D02*
X4784067Y-8673505D01*
X4784067Y-8673505D02*
X4784067Y-8502076D01*
X4917400Y-8702076D02*
X4898352Y-8692552D01*
X4898352Y-8692552D02*
X4888829Y-8673505D01*
X4888829Y-8673505D02*
X4888829Y-8502076D01*
X5113590Y-8702076D02*
X5113590Y-8502076D01*
X5113590Y-8502076D02*
X5180257Y-8644933D01*
X5180257Y-8644933D02*
X5246924Y-8502076D01*
X5246924Y-8502076D02*
X5246924Y-8702076D01*
X5427876Y-8702076D02*
X5427876Y-8597314D01*
X5427876Y-8597314D02*
X5418352Y-8578267D01*
X5418352Y-8578267D02*
X5399305Y-8568743D01*
X5399305Y-8568743D02*
X5361209Y-8568743D01*
X5361209Y-8568743D02*
X5342162Y-8578267D01*
X5427876Y-8692552D02*
X5408829Y-8702076D01*
X5408829Y-8702076D02*
X5361209Y-8702076D01*
X5361209Y-8702076D02*
X5342162Y-8692552D01*
X5342162Y-8692552D02*
X5332638Y-8673505D01*
X5332638Y-8673505D02*
X5332638Y-8654457D01*
X5332638Y-8654457D02*
X5342162Y-8635410D01*
X5342162Y-8635410D02*
X5361209Y-8625886D01*
X5361209Y-8625886D02*
X5408829Y-8625886D01*
X5408829Y-8625886D02*
X5427876Y-8616362D01*
X5523114Y-8568743D02*
X5523114Y-8768743D01*
X5523114Y-8578267D02*
X5542162Y-8568743D01*
X5542162Y-8568743D02*
X5580257Y-8568743D01*
X5580257Y-8568743D02*
X5599305Y-8578267D01*
X5599305Y-8578267D02*
X5608828Y-8587790D01*
X5608828Y-8587790D02*
X5618352Y-8606838D01*
X5618352Y-8606838D02*
X5618352Y-8663981D01*
X5618352Y-8663981D02*
X5608828Y-8683029D01*
X5608828Y-8683029D02*
X5599305Y-8692552D01*
X5599305Y-8692552D02*
X5580257Y-8702076D01*
X5580257Y-8702076D02*
X5542162Y-8702076D01*
X5542162Y-8702076D02*
X5523114Y-8692552D01*
X5704067Y-8683029D02*
X5713590Y-8692552D01*
X5713590Y-8692552D02*
X5704067Y-8702076D01*
X5704067Y-8702076D02*
X5694543Y-8692552D01*
X5694543Y-8692552D02*
X5704067Y-8683029D01*
X5704067Y-8683029D02*
X5704067Y-8702076D01*
X5704067Y-8578267D02*
X5713590Y-8587790D01*
X5713590Y-8587790D02*
X5704067Y-8597314D01*
X5704067Y-8597314D02*
X5694543Y-8587790D01*
X5694543Y-8587790D02*
X5704067Y-8578267D01*
X5704067Y-8578267D02*
X5704067Y-8597314D01*
D12*
X4097080Y-9038440D02*
X4117400Y-9058760D01*
X4117400Y-9038440D02*
X4097080Y-9058760D01*
D11*
X4403114Y-8922076D02*
X4422162Y-8922076D01*
X4422162Y-8922076D02*
X4441210Y-8931600D01*
X4441210Y-8931600D02*
X4450733Y-8941124D01*
X4450733Y-8941124D02*
X4460257Y-8960171D01*
X4460257Y-8960171D02*
X4469781Y-8998267D01*
X4469781Y-8998267D02*
X4469781Y-9045886D01*
X4469781Y-9045886D02*
X4460257Y-9083981D01*
X4460257Y-9083981D02*
X4450733Y-9103029D01*
X4450733Y-9103029D02*
X4441210Y-9112552D01*
X4441210Y-9112552D02*
X4422162Y-9122076D01*
X4422162Y-9122076D02*
X4403114Y-9122076D01*
X4403114Y-9122076D02*
X4384067Y-9112552D01*
X4384067Y-9112552D02*
X4374543Y-9103029D01*
X4374543Y-9103029D02*
X4365019Y-9083981D01*
X4365019Y-9083981D02*
X4355495Y-9045886D01*
X4355495Y-9045886D02*
X4355495Y-8998267D01*
X4355495Y-8998267D02*
X4365019Y-8960171D01*
X4365019Y-8960171D02*
X4374543Y-8941124D01*
X4374543Y-8941124D02*
X4384067Y-8931600D01*
X4384067Y-8931600D02*
X4403114Y-8922076D01*
X4555495Y-9103029D02*
X4565019Y-9112552D01*
X4565019Y-9112552D02*
X4555495Y-9122076D01*
X4555495Y-9122076D02*
X4545971Y-9112552D01*
X4545971Y-9112552D02*
X4555495Y-9103029D01*
X4555495Y-9103029D02*
X4555495Y-9122076D01*
X4641210Y-8941124D02*
X4650733Y-8931600D01*
X4650733Y-8931600D02*
X4669781Y-8922076D01*
X4669781Y-8922076D02*
X4717400Y-8922076D01*
X4717400Y-8922076D02*
X4736448Y-8931600D01*
X4736448Y-8931600D02*
X4745971Y-8941124D01*
X4745971Y-8941124D02*
X4755495Y-8960171D01*
X4755495Y-8960171D02*
X4755495Y-8979219D01*
X4755495Y-8979219D02*
X4745971Y-9007790D01*
X4745971Y-9007790D02*
X4631686Y-9122076D01*
X4631686Y-9122076D02*
X4755495Y-9122076D01*
X4879305Y-8922076D02*
X4898352Y-8922076D01*
X4898352Y-8922076D02*
X4917400Y-8931600D01*
X4917400Y-8931600D02*
X4926924Y-8941124D01*
X4926924Y-8941124D02*
X4936448Y-8960171D01*
X4936448Y-8960171D02*
X4945971Y-8998267D01*
X4945971Y-8998267D02*
X4945971Y-9045886D01*
X4945971Y-9045886D02*
X4936448Y-9083981D01*
X4936448Y-9083981D02*
X4926924Y-9103029D01*
X4926924Y-9103029D02*
X4917400Y-9112552D01*
X4917400Y-9112552D02*
X4898352Y-9122076D01*
X4898352Y-9122076D02*
X4879305Y-9122076D01*
X4879305Y-9122076D02*
X4860257Y-9112552D01*
X4860257Y-9112552D02*
X4850733Y-9103029D01*
X4850733Y-9103029D02*
X4841210Y-9083981D01*
X4841210Y-9083981D02*
X4831686Y-9045886D01*
X4831686Y-9045886D02*
X4831686Y-8998267D01*
X4831686Y-8998267D02*
X4841210Y-8960171D01*
X4841210Y-8960171D02*
X4850733Y-8941124D01*
X4850733Y-8941124D02*
X4860257Y-8931600D01*
X4860257Y-8931600D02*
X4879305Y-8922076D01*
X5012638Y-8922076D02*
X5136448Y-8922076D01*
X5136448Y-8922076D02*
X5069781Y-8998267D01*
X5069781Y-8998267D02*
X5098352Y-8998267D01*
X5098352Y-8998267D02*
X5117400Y-9007790D01*
X5117400Y-9007790D02*
X5126924Y-9017314D01*
X5126924Y-9017314D02*
X5136448Y-9036362D01*
X5136448Y-9036362D02*
X5136448Y-9083981D01*
X5136448Y-9083981D02*
X5126924Y-9103029D01*
X5126924Y-9103029D02*
X5117400Y-9112552D01*
X5117400Y-9112552D02*
X5098352Y-9122076D01*
X5098352Y-9122076D02*
X5041210Y-9122076D01*
X5041210Y-9122076D02*
X5022162Y-9112552D01*
X5022162Y-9112552D02*
X5012638Y-9103029D01*
X5222162Y-9122076D02*
X5222162Y-8988743D01*
X5222162Y-9007790D02*
X5231686Y-8998267D01*
X5231686Y-8998267D02*
X5250733Y-8988743D01*
X5250733Y-8988743D02*
X5279305Y-8988743D01*
X5279305Y-8988743D02*
X5298352Y-8998267D01*
X5298352Y-8998267D02*
X5307876Y-9017314D01*
X5307876Y-9017314D02*
X5307876Y-9122076D01*
X5307876Y-9017314D02*
X5317400Y-8998267D01*
X5317400Y-8998267D02*
X5336448Y-8988743D01*
X5336448Y-8988743D02*
X5365019Y-8988743D01*
X5365019Y-8988743D02*
X5384067Y-8998267D01*
X5384067Y-8998267D02*
X5393591Y-9017314D01*
X5393591Y-9017314D02*
X5393591Y-9122076D01*
X5488829Y-9122076D02*
X5488829Y-8988743D01*
X5488829Y-9007790D02*
X5498352Y-8998267D01*
X5498352Y-8998267D02*
X5517400Y-8988743D01*
X5517400Y-8988743D02*
X5545972Y-8988743D01*
X5545972Y-8988743D02*
X5565019Y-8998267D01*
X5565019Y-8998267D02*
X5574543Y-9017314D01*
X5574543Y-9017314D02*
X5574543Y-9122076D01*
X5574543Y-9017314D02*
X5584067Y-8998267D01*
X5584067Y-8998267D02*
X5603114Y-8988743D01*
X5603114Y-8988743D02*
X5631686Y-8988743D01*
X5631686Y-8988743D02*
X5650733Y-8998267D01*
X5650733Y-8998267D02*
X5660257Y-9017314D01*
X5660257Y-9017314D02*
X5660257Y-9122076D01*
X6018352Y-8912552D02*
X5846924Y-9169695D01*
X6243114Y-8922076D02*
X6262162Y-8922076D01*
X6262162Y-8922076D02*
X6281210Y-8931600D01*
X6281210Y-8931600D02*
X6290733Y-8941124D01*
X6290733Y-8941124D02*
X6300257Y-8960171D01*
X6300257Y-8960171D02*
X6309781Y-8998267D01*
X6309781Y-8998267D02*
X6309781Y-9045886D01*
X6309781Y-9045886D02*
X6300257Y-9083981D01*
X6300257Y-9083981D02*
X6290733Y-9103029D01*
X6290733Y-9103029D02*
X6281210Y-9112552D01*
X6281210Y-9112552D02*
X6262162Y-9122076D01*
X6262162Y-9122076D02*
X6243114Y-9122076D01*
X6243114Y-9122076D02*
X6224067Y-9112552D01*
X6224067Y-9112552D02*
X6214543Y-9103029D01*
X6214543Y-9103029D02*
X6205019Y-9083981D01*
X6205019Y-9083981D02*
X6195495Y-9045886D01*
X6195495Y-9045886D02*
X6195495Y-8998267D01*
X6195495Y-8998267D02*
X6205019Y-8960171D01*
X6205019Y-8960171D02*
X6214543Y-8941124D01*
X6214543Y-8941124D02*
X6224067Y-8931600D01*
X6224067Y-8931600D02*
X6243114Y-8922076D01*
X6395495Y-9103029D02*
X6405019Y-9112552D01*
X6405019Y-9112552D02*
X6395495Y-9122076D01*
X6395495Y-9122076D02*
X6385971Y-9112552D01*
X6385971Y-9112552D02*
X6395495Y-9103029D01*
X6395495Y-9103029D02*
X6395495Y-9122076D01*
X6528829Y-8922076D02*
X6547876Y-8922076D01*
X6547876Y-8922076D02*
X6566924Y-8931600D01*
X6566924Y-8931600D02*
X6576448Y-8941124D01*
X6576448Y-8941124D02*
X6585971Y-8960171D01*
X6585971Y-8960171D02*
X6595495Y-8998267D01*
X6595495Y-8998267D02*
X6595495Y-9045886D01*
X6595495Y-9045886D02*
X6585971Y-9083981D01*
X6585971Y-9083981D02*
X6576448Y-9103029D01*
X6576448Y-9103029D02*
X6566924Y-9112552D01*
X6566924Y-9112552D02*
X6547876Y-9122076D01*
X6547876Y-9122076D02*
X6528829Y-9122076D01*
X6528829Y-9122076D02*
X6509781Y-9112552D01*
X6509781Y-9112552D02*
X6500257Y-9103029D01*
X6500257Y-9103029D02*
X6490733Y-9083981D01*
X6490733Y-9083981D02*
X6481210Y-9045886D01*
X6481210Y-9045886D02*
X6481210Y-8998267D01*
X6481210Y-8998267D02*
X6490733Y-8960171D01*
X6490733Y-8960171D02*
X6500257Y-8941124D01*
X6500257Y-8941124D02*
X6509781Y-8931600D01*
X6509781Y-8931600D02*
X6528829Y-8922076D01*
X6719305Y-8922076D02*
X6738352Y-8922076D01*
X6738352Y-8922076D02*
X6757400Y-8931600D01*
X6757400Y-8931600D02*
X6766924Y-8941124D01*
X6766924Y-8941124D02*
X6776448Y-8960171D01*
X6776448Y-8960171D02*
X6785971Y-8998267D01*
X6785971Y-8998267D02*
X6785971Y-9045886D01*
X6785971Y-9045886D02*
X6776448Y-9083981D01*
X6776448Y-9083981D02*
X6766924Y-9103029D01*
X6766924Y-9103029D02*
X6757400Y-9112552D01*
X6757400Y-9112552D02*
X6738352Y-9122076D01*
X6738352Y-9122076D02*
X6719305Y-9122076D01*
X6719305Y-9122076D02*
X6700257Y-9112552D01*
X6700257Y-9112552D02*
X6690733Y-9103029D01*
X6690733Y-9103029D02*
X6681210Y-9083981D01*
X6681210Y-9083981D02*
X6671686Y-9045886D01*
X6671686Y-9045886D02*
X6671686Y-8998267D01*
X6671686Y-8998267D02*
X6681210Y-8960171D01*
X6681210Y-8960171D02*
X6690733Y-8941124D01*
X6690733Y-8941124D02*
X6700257Y-8931600D01*
X6700257Y-8931600D02*
X6719305Y-8922076D01*
X6900257Y-9007790D02*
X6881210Y-8998267D01*
X6881210Y-8998267D02*
X6871686Y-8988743D01*
X6871686Y-8988743D02*
X6862162Y-8969695D01*
X6862162Y-8969695D02*
X6862162Y-8960171D01*
X6862162Y-8960171D02*
X6871686Y-8941124D01*
X6871686Y-8941124D02*
X6881210Y-8931600D01*
X6881210Y-8931600D02*
X6900257Y-8922076D01*
X6900257Y-8922076D02*
X6938352Y-8922076D01*
X6938352Y-8922076D02*
X6957400Y-8931600D01*
X6957400Y-8931600D02*
X6966924Y-8941124D01*
X6966924Y-8941124D02*
X6976448Y-8960171D01*
X6976448Y-8960171D02*
X6976448Y-8969695D01*
X6976448Y-8969695D02*
X6966924Y-8988743D01*
X6966924Y-8988743D02*
X6957400Y-8998267D01*
X6957400Y-8998267D02*
X6938352Y-9007790D01*
X6938352Y-9007790D02*
X6900257Y-9007790D01*
X6900257Y-9007790D02*
X6881210Y-9017314D01*
X6881210Y-9017314D02*
X6871686Y-9026838D01*
X6871686Y-9026838D02*
X6862162Y-9045886D01*
X6862162Y-9045886D02*
X6862162Y-9083981D01*
X6862162Y-9083981D02*
X6871686Y-9103029D01*
X6871686Y-9103029D02*
X6881210Y-9112552D01*
X6881210Y-9112552D02*
X6900257Y-9122076D01*
X6900257Y-9122076D02*
X6938352Y-9122076D01*
X6938352Y-9122076D02*
X6957400Y-9112552D01*
X6957400Y-9112552D02*
X6966924Y-9103029D01*
X6966924Y-9103029D02*
X6976448Y-9083981D01*
X6976448Y-9083981D02*
X6976448Y-9045886D01*
X6976448Y-9045886D02*
X6966924Y-9026838D01*
X6966924Y-9026838D02*
X6957400Y-9017314D01*
X6957400Y-9017314D02*
X6938352Y-9007790D01*
X7100257Y-8922076D02*
X7119305Y-8922076D01*
X7119305Y-8922076D02*
X7138352Y-8931600D01*
X7138352Y-8931600D02*
X7147876Y-8941124D01*
X7147876Y-8941124D02*
X7157400Y-8960171D01*
X7157400Y-8960171D02*
X7166924Y-8998267D01*
X7166924Y-8998267D02*
X7166924Y-9045886D01*
X7166924Y-9045886D02*
X7157400Y-9083981D01*
X7157400Y-9083981D02*
X7147876Y-9103029D01*
X7147876Y-9103029D02*
X7138352Y-9112552D01*
X7138352Y-9112552D02*
X7119305Y-9122076D01*
X7119305Y-9122076D02*
X7100257Y-9122076D01*
X7100257Y-9122076D02*
X7081210Y-9112552D01*
X7081210Y-9112552D02*
X7071686Y-9103029D01*
X7071686Y-9103029D02*
X7062162Y-9083981D01*
X7062162Y-9083981D02*
X7052638Y-9045886D01*
X7052638Y-9045886D02*
X7052638Y-8998267D01*
X7052638Y-8998267D02*
X7062162Y-8960171D01*
X7062162Y-8960171D02*
X7071686Y-8941124D01*
X7071686Y-8941124D02*
X7081210Y-8931600D01*
X7081210Y-8931600D02*
X7100257Y-8922076D01*
X7243114Y-8922076D02*
X7243114Y-8960171D01*
X7319305Y-8922076D02*
X7319305Y-8960171D01*
X7582162Y-9198267D02*
X7572638Y-9188743D01*
X7572638Y-9188743D02*
X7553591Y-9160171D01*
X7553591Y-9160171D02*
X7544067Y-9141124D01*
X7544067Y-9141124D02*
X7534543Y-9112552D01*
X7534543Y-9112552D02*
X7525019Y-9064933D01*
X7525019Y-9064933D02*
X7525019Y-9026838D01*
X7525019Y-9026838D02*
X7534543Y-8979219D01*
X7534543Y-8979219D02*
X7544067Y-8950648D01*
X7544067Y-8950648D02*
X7553591Y-8931600D01*
X7553591Y-8931600D02*
X7572638Y-8903029D01*
X7572638Y-8903029D02*
X7582162Y-8893505D01*
X7763114Y-9122076D02*
X7648829Y-9122076D01*
X7705971Y-9122076D02*
X7705971Y-8922076D01*
X7705971Y-8922076D02*
X7686924Y-8950648D01*
X7686924Y-8950648D02*
X7667876Y-8969695D01*
X7667876Y-8969695D02*
X7648829Y-8979219D01*
X7968829Y-9122076D02*
X7968829Y-8922076D01*
X8054543Y-9122076D02*
X8054543Y-9017314D01*
X8054543Y-9017314D02*
X8045019Y-8998267D01*
X8045019Y-8998267D02*
X8025972Y-8988743D01*
X8025972Y-8988743D02*
X7997400Y-8988743D01*
X7997400Y-8988743D02*
X7978352Y-8998267D01*
X7978352Y-8998267D02*
X7968829Y-9007790D01*
X8178352Y-9122076D02*
X8159305Y-9112552D01*
X8159305Y-9112552D02*
X8149781Y-9103029D01*
X8149781Y-9103029D02*
X8140257Y-9083981D01*
X8140257Y-9083981D02*
X8140257Y-9026838D01*
X8140257Y-9026838D02*
X8149781Y-9007790D01*
X8149781Y-9007790D02*
X8159305Y-8998267D01*
X8159305Y-8998267D02*
X8178352Y-8988743D01*
X8178352Y-8988743D02*
X8206924Y-8988743D01*
X8206924Y-8988743D02*
X8225972Y-8998267D01*
X8225972Y-8998267D02*
X8235495Y-9007790D01*
X8235495Y-9007790D02*
X8245019Y-9026838D01*
X8245019Y-9026838D02*
X8245019Y-9083981D01*
X8245019Y-9083981D02*
X8235495Y-9103029D01*
X8235495Y-9103029D02*
X8225972Y-9112552D01*
X8225972Y-9112552D02*
X8206924Y-9122076D01*
X8206924Y-9122076D02*
X8178352Y-9122076D01*
X8359305Y-9122076D02*
X8340257Y-9112552D01*
X8340257Y-9112552D02*
X8330733Y-9093505D01*
X8330733Y-9093505D02*
X8330733Y-8922076D01*
X8511686Y-9112552D02*
X8492638Y-9122076D01*
X8492638Y-9122076D02*
X8454543Y-9122076D01*
X8454543Y-9122076D02*
X8435495Y-9112552D01*
X8435495Y-9112552D02*
X8425972Y-9093505D01*
X8425972Y-9093505D02*
X8425972Y-9017314D01*
X8425972Y-9017314D02*
X8435495Y-8998267D01*
X8435495Y-8998267D02*
X8454543Y-8988743D01*
X8454543Y-8988743D02*
X8492638Y-8988743D01*
X8492638Y-8988743D02*
X8511686Y-8998267D01*
X8511686Y-8998267D02*
X8521210Y-9017314D01*
X8521210Y-9017314D02*
X8521210Y-9036362D01*
X8521210Y-9036362D02*
X8425972Y-9055410D01*
X8587876Y-9198267D02*
X8597400Y-9188743D01*
X8597400Y-9188743D02*
X8616448Y-9160171D01*
X8616448Y-9160171D02*
X8625972Y-9141124D01*
X8625972Y-9141124D02*
X8635495Y-9112552D01*
X8635495Y-9112552D02*
X8645019Y-9064933D01*
X8645019Y-9064933D02*
X8645019Y-9026838D01*
X8645019Y-9026838D02*
X8635495Y-8979219D01*
X8635495Y-8979219D02*
X8625972Y-8950648D01*
X8625972Y-8950648D02*
X8616448Y-8931600D01*
X8616448Y-8931600D02*
X8597400Y-8903029D01*
X8597400Y-8903029D02*
X8587876Y-8893505D01*
D13*
X4117400Y-9312600D02*
G75*
G03*
X4117400Y-9312600I-12500J0D01*
G01*
D11*
X4403114Y-9186076D02*
X4422162Y-9186076D01*
X4422162Y-9186076D02*
X4441210Y-9195600D01*
X4441210Y-9195600D02*
X4450733Y-9205124D01*
X4450733Y-9205124D02*
X4460257Y-9224171D01*
X4460257Y-9224171D02*
X4469781Y-9262267D01*
X4469781Y-9262267D02*
X4469781Y-9309886D01*
X4469781Y-9309886D02*
X4460257Y-9347981D01*
X4460257Y-9347981D02*
X4450733Y-9367029D01*
X4450733Y-9367029D02*
X4441210Y-9376552D01*
X4441210Y-9376552D02*
X4422162Y-9386076D01*
X4422162Y-9386076D02*
X4403114Y-9386076D01*
X4403114Y-9386076D02*
X4384067Y-9376552D01*
X4384067Y-9376552D02*
X4374543Y-9367029D01*
X4374543Y-9367029D02*
X4365019Y-9347981D01*
X4365019Y-9347981D02*
X4355495Y-9309886D01*
X4355495Y-9309886D02*
X4355495Y-9262267D01*
X4355495Y-9262267D02*
X4365019Y-9224171D01*
X4365019Y-9224171D02*
X4374543Y-9205124D01*
X4374543Y-9205124D02*
X4384067Y-9195600D01*
X4384067Y-9195600D02*
X4403114Y-9186076D01*
X4555495Y-9367029D02*
X4565019Y-9376552D01*
X4565019Y-9376552D02*
X4555495Y-9386076D01*
X4555495Y-9386076D02*
X4545971Y-9376552D01*
X4545971Y-9376552D02*
X4555495Y-9367029D01*
X4555495Y-9367029D02*
X4555495Y-9386076D01*
X4641210Y-9205124D02*
X4650733Y-9195600D01*
X4650733Y-9195600D02*
X4669781Y-9186076D01*
X4669781Y-9186076D02*
X4717400Y-9186076D01*
X4717400Y-9186076D02*
X4736448Y-9195600D01*
X4736448Y-9195600D02*
X4745971Y-9205124D01*
X4745971Y-9205124D02*
X4755495Y-9224171D01*
X4755495Y-9224171D02*
X4755495Y-9243219D01*
X4755495Y-9243219D02*
X4745971Y-9271790D01*
X4745971Y-9271790D02*
X4631686Y-9386076D01*
X4631686Y-9386076D02*
X4755495Y-9386076D01*
X4936448Y-9186076D02*
X4841210Y-9186076D01*
X4841210Y-9186076D02*
X4831686Y-9281314D01*
X4831686Y-9281314D02*
X4841210Y-9271790D01*
X4841210Y-9271790D02*
X4860257Y-9262267D01*
X4860257Y-9262267D02*
X4907876Y-9262267D01*
X4907876Y-9262267D02*
X4926924Y-9271790D01*
X4926924Y-9271790D02*
X4936448Y-9281314D01*
X4936448Y-9281314D02*
X4945971Y-9300362D01*
X4945971Y-9300362D02*
X4945971Y-9347981D01*
X4945971Y-9347981D02*
X4936448Y-9367029D01*
X4936448Y-9367029D02*
X4926924Y-9376552D01*
X4926924Y-9376552D02*
X4907876Y-9386076D01*
X4907876Y-9386076D02*
X4860257Y-9386076D01*
X4860257Y-9386076D02*
X4841210Y-9376552D01*
X4841210Y-9376552D02*
X4831686Y-9367029D01*
X5069781Y-9186076D02*
X5088829Y-9186076D01*
X5088829Y-9186076D02*
X5107876Y-9195600D01*
X5107876Y-9195600D02*
X5117400Y-9205124D01*
X5117400Y-9205124D02*
X5126924Y-9224171D01*
X5126924Y-9224171D02*
X5136448Y-9262267D01*
X5136448Y-9262267D02*
X5136448Y-9309886D01*
X5136448Y-9309886D02*
X5126924Y-9347981D01*
X5126924Y-9347981D02*
X5117400Y-9367029D01*
X5117400Y-9367029D02*
X5107876Y-9376552D01*
X5107876Y-9376552D02*
X5088829Y-9386076D01*
X5088829Y-9386076D02*
X5069781Y-9386076D01*
X5069781Y-9386076D02*
X5050733Y-9376552D01*
X5050733Y-9376552D02*
X5041210Y-9367029D01*
X5041210Y-9367029D02*
X5031686Y-9347981D01*
X5031686Y-9347981D02*
X5022162Y-9309886D01*
X5022162Y-9309886D02*
X5022162Y-9262267D01*
X5022162Y-9262267D02*
X5031686Y-9224171D01*
X5031686Y-9224171D02*
X5041210Y-9205124D01*
X5041210Y-9205124D02*
X5050733Y-9195600D01*
X5050733Y-9195600D02*
X5069781Y-9186076D01*
X5222162Y-9386076D02*
X5222162Y-9252743D01*
X5222162Y-9271790D02*
X5231686Y-9262267D01*
X5231686Y-9262267D02*
X5250733Y-9252743D01*
X5250733Y-9252743D02*
X5279305Y-9252743D01*
X5279305Y-9252743D02*
X5298352Y-9262267D01*
X5298352Y-9262267D02*
X5307876Y-9281314D01*
X5307876Y-9281314D02*
X5307876Y-9386076D01*
X5307876Y-9281314D02*
X5317400Y-9262267D01*
X5317400Y-9262267D02*
X5336448Y-9252743D01*
X5336448Y-9252743D02*
X5365019Y-9252743D01*
X5365019Y-9252743D02*
X5384067Y-9262267D01*
X5384067Y-9262267D02*
X5393591Y-9281314D01*
X5393591Y-9281314D02*
X5393591Y-9386076D01*
X5488829Y-9386076D02*
X5488829Y-9252743D01*
X5488829Y-9271790D02*
X5498352Y-9262267D01*
X5498352Y-9262267D02*
X5517400Y-9252743D01*
X5517400Y-9252743D02*
X5545972Y-9252743D01*
X5545972Y-9252743D02*
X5565019Y-9262267D01*
X5565019Y-9262267D02*
X5574543Y-9281314D01*
X5574543Y-9281314D02*
X5574543Y-9386076D01*
X5574543Y-9281314D02*
X5584067Y-9262267D01*
X5584067Y-9262267D02*
X5603114Y-9252743D01*
X5603114Y-9252743D02*
X5631686Y-9252743D01*
X5631686Y-9252743D02*
X5650733Y-9262267D01*
X5650733Y-9262267D02*
X5660257Y-9281314D01*
X5660257Y-9281314D02*
X5660257Y-9386076D01*
X6018352Y-9176552D02*
X5846924Y-9433695D01*
X6243114Y-9186076D02*
X6262162Y-9186076D01*
X6262162Y-9186076D02*
X6281210Y-9195600D01*
X6281210Y-9195600D02*
X6290733Y-9205124D01*
X6290733Y-9205124D02*
X6300257Y-9224171D01*
X6300257Y-9224171D02*
X6309781Y-9262267D01*
X6309781Y-9262267D02*
X6309781Y-9309886D01*
X6309781Y-9309886D02*
X6300257Y-9347981D01*
X6300257Y-9347981D02*
X6290733Y-9367029D01*
X6290733Y-9367029D02*
X6281210Y-9376552D01*
X6281210Y-9376552D02*
X6262162Y-9386076D01*
X6262162Y-9386076D02*
X6243114Y-9386076D01*
X6243114Y-9386076D02*
X6224067Y-9376552D01*
X6224067Y-9376552D02*
X6214543Y-9367029D01*
X6214543Y-9367029D02*
X6205019Y-9347981D01*
X6205019Y-9347981D02*
X6195495Y-9309886D01*
X6195495Y-9309886D02*
X6195495Y-9262267D01*
X6195495Y-9262267D02*
X6205019Y-9224171D01*
X6205019Y-9224171D02*
X6214543Y-9205124D01*
X6214543Y-9205124D02*
X6224067Y-9195600D01*
X6224067Y-9195600D02*
X6243114Y-9186076D01*
X6395495Y-9367029D02*
X6405019Y-9376552D01*
X6405019Y-9376552D02*
X6395495Y-9386076D01*
X6395495Y-9386076D02*
X6385971Y-9376552D01*
X6385971Y-9376552D02*
X6395495Y-9367029D01*
X6395495Y-9367029D02*
X6395495Y-9386076D01*
X6528829Y-9186076D02*
X6547876Y-9186076D01*
X6547876Y-9186076D02*
X6566924Y-9195600D01*
X6566924Y-9195600D02*
X6576448Y-9205124D01*
X6576448Y-9205124D02*
X6585971Y-9224171D01*
X6585971Y-9224171D02*
X6595495Y-9262267D01*
X6595495Y-9262267D02*
X6595495Y-9309886D01*
X6595495Y-9309886D02*
X6585971Y-9347981D01*
X6585971Y-9347981D02*
X6576448Y-9367029D01*
X6576448Y-9367029D02*
X6566924Y-9376552D01*
X6566924Y-9376552D02*
X6547876Y-9386076D01*
X6547876Y-9386076D02*
X6528829Y-9386076D01*
X6528829Y-9386076D02*
X6509781Y-9376552D01*
X6509781Y-9376552D02*
X6500257Y-9367029D01*
X6500257Y-9367029D02*
X6490733Y-9347981D01*
X6490733Y-9347981D02*
X6481210Y-9309886D01*
X6481210Y-9309886D02*
X6481210Y-9262267D01*
X6481210Y-9262267D02*
X6490733Y-9224171D01*
X6490733Y-9224171D02*
X6500257Y-9205124D01*
X6500257Y-9205124D02*
X6509781Y-9195600D01*
X6509781Y-9195600D02*
X6528829Y-9186076D01*
X6719305Y-9186076D02*
X6738352Y-9186076D01*
X6738352Y-9186076D02*
X6757400Y-9195600D01*
X6757400Y-9195600D02*
X6766924Y-9205124D01*
X6766924Y-9205124D02*
X6776448Y-9224171D01*
X6776448Y-9224171D02*
X6785971Y-9262267D01*
X6785971Y-9262267D02*
X6785971Y-9309886D01*
X6785971Y-9309886D02*
X6776448Y-9347981D01*
X6776448Y-9347981D02*
X6766924Y-9367029D01*
X6766924Y-9367029D02*
X6757400Y-9376552D01*
X6757400Y-9376552D02*
X6738352Y-9386076D01*
X6738352Y-9386076D02*
X6719305Y-9386076D01*
X6719305Y-9386076D02*
X6700257Y-9376552D01*
X6700257Y-9376552D02*
X6690733Y-9367029D01*
X6690733Y-9367029D02*
X6681210Y-9347981D01*
X6681210Y-9347981D02*
X6671686Y-9309886D01*
X6671686Y-9309886D02*
X6671686Y-9262267D01*
X6671686Y-9262267D02*
X6681210Y-9224171D01*
X6681210Y-9224171D02*
X6690733Y-9205124D01*
X6690733Y-9205124D02*
X6700257Y-9195600D01*
X6700257Y-9195600D02*
X6719305Y-9186076D01*
X6881210Y-9386076D02*
X6919305Y-9386076D01*
X6919305Y-9386076D02*
X6938352Y-9376552D01*
X6938352Y-9376552D02*
X6947876Y-9367029D01*
X6947876Y-9367029D02*
X6966924Y-9338457D01*
X6966924Y-9338457D02*
X6976448Y-9300362D01*
X6976448Y-9300362D02*
X6976448Y-9224171D01*
X6976448Y-9224171D02*
X6966924Y-9205124D01*
X6966924Y-9205124D02*
X6957400Y-9195600D01*
X6957400Y-9195600D02*
X6938352Y-9186076D01*
X6938352Y-9186076D02*
X6900257Y-9186076D01*
X6900257Y-9186076D02*
X6881210Y-9195600D01*
X6881210Y-9195600D02*
X6871686Y-9205124D01*
X6871686Y-9205124D02*
X6862162Y-9224171D01*
X6862162Y-9224171D02*
X6862162Y-9271790D01*
X6862162Y-9271790D02*
X6871686Y-9290838D01*
X6871686Y-9290838D02*
X6881210Y-9300362D01*
X6881210Y-9300362D02*
X6900257Y-9309886D01*
X6900257Y-9309886D02*
X6938352Y-9309886D01*
X6938352Y-9309886D02*
X6957400Y-9300362D01*
X6957400Y-9300362D02*
X6966924Y-9290838D01*
X6966924Y-9290838D02*
X6976448Y-9271790D01*
X7090733Y-9271790D02*
X7071686Y-9262267D01*
X7071686Y-9262267D02*
X7062162Y-9252743D01*
X7062162Y-9252743D02*
X7052638Y-9233695D01*
X7052638Y-9233695D02*
X7052638Y-9224171D01*
X7052638Y-9224171D02*
X7062162Y-9205124D01*
X7062162Y-9205124D02*
X7071686Y-9195600D01*
X7071686Y-9195600D02*
X7090733Y-9186076D01*
X7090733Y-9186076D02*
X7128829Y-9186076D01*
X7128829Y-9186076D02*
X7147876Y-9195600D01*
X7147876Y-9195600D02*
X7157400Y-9205124D01*
X7157400Y-9205124D02*
X7166924Y-9224171D01*
X7166924Y-9224171D02*
X7166924Y-9233695D01*
X7166924Y-9233695D02*
X7157400Y-9252743D01*
X7157400Y-9252743D02*
X7147876Y-9262267D01*
X7147876Y-9262267D02*
X7128829Y-9271790D01*
X7128829Y-9271790D02*
X7090733Y-9271790D01*
X7090733Y-9271790D02*
X7071686Y-9281314D01*
X7071686Y-9281314D02*
X7062162Y-9290838D01*
X7062162Y-9290838D02*
X7052638Y-9309886D01*
X7052638Y-9309886D02*
X7052638Y-9347981D01*
X7052638Y-9347981D02*
X7062162Y-9367029D01*
X7062162Y-9367029D02*
X7071686Y-9376552D01*
X7071686Y-9376552D02*
X7090733Y-9386076D01*
X7090733Y-9386076D02*
X7128829Y-9386076D01*
X7128829Y-9386076D02*
X7147876Y-9376552D01*
X7147876Y-9376552D02*
X7157400Y-9367029D01*
X7157400Y-9367029D02*
X7166924Y-9347981D01*
X7166924Y-9347981D02*
X7166924Y-9309886D01*
X7166924Y-9309886D02*
X7157400Y-9290838D01*
X7157400Y-9290838D02*
X7147876Y-9281314D01*
X7147876Y-9281314D02*
X7128829Y-9271790D01*
X7243114Y-9186076D02*
X7243114Y-9224171D01*
X7319305Y-9186076D02*
X7319305Y-9224171D01*
X7582162Y-9462267D02*
X7572638Y-9452743D01*
X7572638Y-9452743D02*
X7553591Y-9424171D01*
X7553591Y-9424171D02*
X7544067Y-9405124D01*
X7544067Y-9405124D02*
X7534543Y-9376552D01*
X7534543Y-9376552D02*
X7525019Y-9328933D01*
X7525019Y-9328933D02*
X7525019Y-9290838D01*
X7525019Y-9290838D02*
X7534543Y-9243219D01*
X7534543Y-9243219D02*
X7544067Y-9214648D01*
X7544067Y-9214648D02*
X7553591Y-9195600D01*
X7553591Y-9195600D02*
X7572638Y-9167029D01*
X7572638Y-9167029D02*
X7582162Y-9157505D01*
X7753591Y-9186076D02*
X7658352Y-9186076D01*
X7658352Y-9186076D02*
X7648829Y-9281314D01*
X7648829Y-9281314D02*
X7658352Y-9271790D01*
X7658352Y-9271790D02*
X7677400Y-9262267D01*
X7677400Y-9262267D02*
X7725019Y-9262267D01*
X7725019Y-9262267D02*
X7744067Y-9271790D01*
X7744067Y-9271790D02*
X7753591Y-9281314D01*
X7753591Y-9281314D02*
X7763114Y-9300362D01*
X7763114Y-9300362D02*
X7763114Y-9347981D01*
X7763114Y-9347981D02*
X7753591Y-9367029D01*
X7753591Y-9367029D02*
X7744067Y-9376552D01*
X7744067Y-9376552D02*
X7725019Y-9386076D01*
X7725019Y-9386076D02*
X7677400Y-9386076D01*
X7677400Y-9386076D02*
X7658352Y-9376552D01*
X7658352Y-9376552D02*
X7648829Y-9367029D01*
X7858352Y-9386076D02*
X7896448Y-9386076D01*
X7896448Y-9386076D02*
X7915495Y-9376552D01*
X7915495Y-9376552D02*
X7925019Y-9367029D01*
X7925019Y-9367029D02*
X7944067Y-9338457D01*
X7944067Y-9338457D02*
X7953591Y-9300362D01*
X7953591Y-9300362D02*
X7953591Y-9224171D01*
X7953591Y-9224171D02*
X7944067Y-9205124D01*
X7944067Y-9205124D02*
X7934543Y-9195600D01*
X7934543Y-9195600D02*
X7915495Y-9186076D01*
X7915495Y-9186076D02*
X7877400Y-9186076D01*
X7877400Y-9186076D02*
X7858352Y-9195600D01*
X7858352Y-9195600D02*
X7848829Y-9205124D01*
X7848829Y-9205124D02*
X7839305Y-9224171D01*
X7839305Y-9224171D02*
X7839305Y-9271790D01*
X7839305Y-9271790D02*
X7848829Y-9290838D01*
X7848829Y-9290838D02*
X7858352Y-9300362D01*
X7858352Y-9300362D02*
X7877400Y-9309886D01*
X7877400Y-9309886D02*
X7915495Y-9309886D01*
X7915495Y-9309886D02*
X7934543Y-9300362D01*
X7934543Y-9300362D02*
X7944067Y-9290838D01*
X7944067Y-9290838D02*
X7953591Y-9271790D01*
X8048829Y-9386076D02*
X8086924Y-9386076D01*
X8086924Y-9386076D02*
X8105972Y-9376552D01*
X8105972Y-9376552D02*
X8115495Y-9367029D01*
X8115495Y-9367029D02*
X8134543Y-9338457D01*
X8134543Y-9338457D02*
X8144067Y-9300362D01*
X8144067Y-9300362D02*
X8144067Y-9224171D01*
X8144067Y-9224171D02*
X8134543Y-9205124D01*
X8134543Y-9205124D02*
X8125019Y-9195600D01*
X8125019Y-9195600D02*
X8105972Y-9186076D01*
X8105972Y-9186076D02*
X8067876Y-9186076D01*
X8067876Y-9186076D02*
X8048829Y-9195600D01*
X8048829Y-9195600D02*
X8039305Y-9205124D01*
X8039305Y-9205124D02*
X8029781Y-9224171D01*
X8029781Y-9224171D02*
X8029781Y-9271790D01*
X8029781Y-9271790D02*
X8039305Y-9290838D01*
X8039305Y-9290838D02*
X8048829Y-9300362D01*
X8048829Y-9300362D02*
X8067876Y-9309886D01*
X8067876Y-9309886D02*
X8105972Y-9309886D01*
X8105972Y-9309886D02*
X8125019Y-9300362D01*
X8125019Y-9300362D02*
X8134543Y-9290838D01*
X8134543Y-9290838D02*
X8144067Y-9271790D01*
X8349781Y-9386076D02*
X8349781Y-9186076D01*
X8435495Y-9386076D02*
X8435495Y-9281314D01*
X8435495Y-9281314D02*
X8425972Y-9262267D01*
X8425972Y-9262267D02*
X8406924Y-9252743D01*
X8406924Y-9252743D02*
X8378352Y-9252743D01*
X8378352Y-9252743D02*
X8359305Y-9262267D01*
X8359305Y-9262267D02*
X8349781Y-9271790D01*
X8559305Y-9386076D02*
X8540257Y-9376552D01*
X8540257Y-9376552D02*
X8530734Y-9367029D01*
X8530734Y-9367029D02*
X8521210Y-9347981D01*
X8521210Y-9347981D02*
X8521210Y-9290838D01*
X8521210Y-9290838D02*
X8530734Y-9271790D01*
X8530734Y-9271790D02*
X8540257Y-9262267D01*
X8540257Y-9262267D02*
X8559305Y-9252743D01*
X8559305Y-9252743D02*
X8587876Y-9252743D01*
X8587876Y-9252743D02*
X8606924Y-9262267D01*
X8606924Y-9262267D02*
X8616448Y-9271790D01*
X8616448Y-9271790D02*
X8625972Y-9290838D01*
X8625972Y-9290838D02*
X8625972Y-9347981D01*
X8625972Y-9347981D02*
X8616448Y-9367029D01*
X8616448Y-9367029D02*
X8606924Y-9376552D01*
X8606924Y-9376552D02*
X8587876Y-9386076D01*
X8587876Y-9386076D02*
X8559305Y-9386076D01*
X8740257Y-9386076D02*
X8721210Y-9376552D01*
X8721210Y-9376552D02*
X8711686Y-9357505D01*
X8711686Y-9357505D02*
X8711686Y-9186076D01*
X8892638Y-9376552D02*
X8873591Y-9386076D01*
X8873591Y-9386076D02*
X8835495Y-9386076D01*
X8835495Y-9386076D02*
X8816448Y-9376552D01*
X8816448Y-9376552D02*
X8806924Y-9357505D01*
X8806924Y-9357505D02*
X8806924Y-9281314D01*
X8806924Y-9281314D02*
X8816448Y-9262267D01*
X8816448Y-9262267D02*
X8835495Y-9252743D01*
X8835495Y-9252743D02*
X8873591Y-9252743D01*
X8873591Y-9252743D02*
X8892638Y-9262267D01*
X8892638Y-9262267D02*
X8902162Y-9281314D01*
X8902162Y-9281314D02*
X8902162Y-9300362D01*
X8902162Y-9300362D02*
X8806924Y-9319410D01*
X8978353Y-9376552D02*
X8997400Y-9386076D01*
X8997400Y-9386076D02*
X9035495Y-9386076D01*
X9035495Y-9386076D02*
X9054543Y-9376552D01*
X9054543Y-9376552D02*
X9064067Y-9357505D01*
X9064067Y-9357505D02*
X9064067Y-9347981D01*
X9064067Y-9347981D02*
X9054543Y-9328933D01*
X9054543Y-9328933D02*
X9035495Y-9319410D01*
X9035495Y-9319410D02*
X9006924Y-9319410D01*
X9006924Y-9319410D02*
X8987876Y-9309886D01*
X8987876Y-9309886D02*
X8978353Y-9290838D01*
X8978353Y-9290838D02*
X8978353Y-9281314D01*
X8978353Y-9281314D02*
X8987876Y-9262267D01*
X8987876Y-9262267D02*
X9006924Y-9252743D01*
X9006924Y-9252743D02*
X9035495Y-9252743D01*
X9035495Y-9252743D02*
X9054543Y-9262267D01*
X9130734Y-9462267D02*
X9140257Y-9452743D01*
X9140257Y-9452743D02*
X9159305Y-9424171D01*
X9159305Y-9424171D02*
X9168829Y-9405124D01*
X9168829Y-9405124D02*
X9178353Y-9376552D01*
X9178353Y-9376552D02*
X9187876Y-9328933D01*
X9187876Y-9328933D02*
X9187876Y-9290838D01*
X9187876Y-9290838D02*
X9178353Y-9243219D01*
X9178353Y-9243219D02*
X9168829Y-9214648D01*
X9168829Y-9214648D02*
X9159305Y-9195600D01*
X9159305Y-9195600D02*
X9140257Y-9167029D01*
X9140257Y-9167029D02*
X9130734Y-9157505D01*
D13*
X4104900Y-9564100D02*
X4104900Y-9589100D01*
X4092400Y-9576600D02*
X4117400Y-9576600D01*
D11*
X4403114Y-9450076D02*
X4422162Y-9450076D01*
X4422162Y-9450076D02*
X4441210Y-9459600D01*
X4441210Y-9459600D02*
X4450733Y-9469124D01*
X4450733Y-9469124D02*
X4460257Y-9488171D01*
X4460257Y-9488171D02*
X4469781Y-9526267D01*
X4469781Y-9526267D02*
X4469781Y-9573886D01*
X4469781Y-9573886D02*
X4460257Y-9611981D01*
X4460257Y-9611981D02*
X4450733Y-9631029D01*
X4450733Y-9631029D02*
X4441210Y-9640552D01*
X4441210Y-9640552D02*
X4422162Y-9650076D01*
X4422162Y-9650076D02*
X4403114Y-9650076D01*
X4403114Y-9650076D02*
X4384067Y-9640552D01*
X4384067Y-9640552D02*
X4374543Y-9631029D01*
X4374543Y-9631029D02*
X4365019Y-9611981D01*
X4365019Y-9611981D02*
X4355495Y-9573886D01*
X4355495Y-9573886D02*
X4355495Y-9526267D01*
X4355495Y-9526267D02*
X4365019Y-9488171D01*
X4365019Y-9488171D02*
X4374543Y-9469124D01*
X4374543Y-9469124D02*
X4384067Y-9459600D01*
X4384067Y-9459600D02*
X4403114Y-9450076D01*
X4555495Y-9631029D02*
X4565019Y-9640552D01*
X4565019Y-9640552D02*
X4555495Y-9650076D01*
X4555495Y-9650076D02*
X4545971Y-9640552D01*
X4545971Y-9640552D02*
X4555495Y-9631029D01*
X4555495Y-9631029D02*
X4555495Y-9650076D01*
X4641210Y-9469124D02*
X4650733Y-9459600D01*
X4650733Y-9459600D02*
X4669781Y-9450076D01*
X4669781Y-9450076D02*
X4717400Y-9450076D01*
X4717400Y-9450076D02*
X4736448Y-9459600D01*
X4736448Y-9459600D02*
X4745971Y-9469124D01*
X4745971Y-9469124D02*
X4755495Y-9488171D01*
X4755495Y-9488171D02*
X4755495Y-9507219D01*
X4755495Y-9507219D02*
X4745971Y-9535790D01*
X4745971Y-9535790D02*
X4631686Y-9650076D01*
X4631686Y-9650076D02*
X4755495Y-9650076D01*
X4936448Y-9450076D02*
X4841210Y-9450076D01*
X4841210Y-9450076D02*
X4831686Y-9545314D01*
X4831686Y-9545314D02*
X4841210Y-9535790D01*
X4841210Y-9535790D02*
X4860257Y-9526267D01*
X4860257Y-9526267D02*
X4907876Y-9526267D01*
X4907876Y-9526267D02*
X4926924Y-9535790D01*
X4926924Y-9535790D02*
X4936448Y-9545314D01*
X4936448Y-9545314D02*
X4945971Y-9564362D01*
X4945971Y-9564362D02*
X4945971Y-9611981D01*
X4945971Y-9611981D02*
X4936448Y-9631029D01*
X4936448Y-9631029D02*
X4926924Y-9640552D01*
X4926924Y-9640552D02*
X4907876Y-9650076D01*
X4907876Y-9650076D02*
X4860257Y-9650076D01*
X4860257Y-9650076D02*
X4841210Y-9640552D01*
X4841210Y-9640552D02*
X4831686Y-9631029D01*
X5069781Y-9450076D02*
X5088829Y-9450076D01*
X5088829Y-9450076D02*
X5107876Y-9459600D01*
X5107876Y-9459600D02*
X5117400Y-9469124D01*
X5117400Y-9469124D02*
X5126924Y-9488171D01*
X5126924Y-9488171D02*
X5136448Y-9526267D01*
X5136448Y-9526267D02*
X5136448Y-9573886D01*
X5136448Y-9573886D02*
X5126924Y-9611981D01*
X5126924Y-9611981D02*
X5117400Y-9631029D01*
X5117400Y-9631029D02*
X5107876Y-9640552D01*
X5107876Y-9640552D02*
X5088829Y-9650076D01*
X5088829Y-9650076D02*
X5069781Y-9650076D01*
X5069781Y-9650076D02*
X5050733Y-9640552D01*
X5050733Y-9640552D02*
X5041210Y-9631029D01*
X5041210Y-9631029D02*
X5031686Y-9611981D01*
X5031686Y-9611981D02*
X5022162Y-9573886D01*
X5022162Y-9573886D02*
X5022162Y-9526267D01*
X5022162Y-9526267D02*
X5031686Y-9488171D01*
X5031686Y-9488171D02*
X5041210Y-9469124D01*
X5041210Y-9469124D02*
X5050733Y-9459600D01*
X5050733Y-9459600D02*
X5069781Y-9450076D01*
X5222162Y-9650076D02*
X5222162Y-9516743D01*
X5222162Y-9535790D02*
X5231686Y-9526267D01*
X5231686Y-9526267D02*
X5250733Y-9516743D01*
X5250733Y-9516743D02*
X5279305Y-9516743D01*
X5279305Y-9516743D02*
X5298352Y-9526267D01*
X5298352Y-9526267D02*
X5307876Y-9545314D01*
X5307876Y-9545314D02*
X5307876Y-9650076D01*
X5307876Y-9545314D02*
X5317400Y-9526267D01*
X5317400Y-9526267D02*
X5336448Y-9516743D01*
X5336448Y-9516743D02*
X5365019Y-9516743D01*
X5365019Y-9516743D02*
X5384067Y-9526267D01*
X5384067Y-9526267D02*
X5393591Y-9545314D01*
X5393591Y-9545314D02*
X5393591Y-9650076D01*
X5488829Y-9650076D02*
X5488829Y-9516743D01*
X5488829Y-9535790D02*
X5498352Y-9526267D01*
X5498352Y-9526267D02*
X5517400Y-9516743D01*
X5517400Y-9516743D02*
X5545972Y-9516743D01*
X5545972Y-9516743D02*
X5565019Y-9526267D01*
X5565019Y-9526267D02*
X5574543Y-9545314D01*
X5574543Y-9545314D02*
X5574543Y-9650076D01*
X5574543Y-9545314D02*
X5584067Y-9526267D01*
X5584067Y-9526267D02*
X5603114Y-9516743D01*
X5603114Y-9516743D02*
X5631686Y-9516743D01*
X5631686Y-9516743D02*
X5650733Y-9526267D01*
X5650733Y-9526267D02*
X5660257Y-9545314D01*
X5660257Y-9545314D02*
X5660257Y-9650076D01*
X6018352Y-9440552D02*
X5846924Y-9697695D01*
X6243114Y-9450076D02*
X6262162Y-9450076D01*
X6262162Y-9450076D02*
X6281210Y-9459600D01*
X6281210Y-9459600D02*
X6290733Y-9469124D01*
X6290733Y-9469124D02*
X6300257Y-9488171D01*
X6300257Y-9488171D02*
X6309781Y-9526267D01*
X6309781Y-9526267D02*
X6309781Y-9573886D01*
X6309781Y-9573886D02*
X6300257Y-9611981D01*
X6300257Y-9611981D02*
X6290733Y-9631029D01*
X6290733Y-9631029D02*
X6281210Y-9640552D01*
X6281210Y-9640552D02*
X6262162Y-9650076D01*
X6262162Y-9650076D02*
X6243114Y-9650076D01*
X6243114Y-9650076D02*
X6224067Y-9640552D01*
X6224067Y-9640552D02*
X6214543Y-9631029D01*
X6214543Y-9631029D02*
X6205019Y-9611981D01*
X6205019Y-9611981D02*
X6195495Y-9573886D01*
X6195495Y-9573886D02*
X6195495Y-9526267D01*
X6195495Y-9526267D02*
X6205019Y-9488171D01*
X6205019Y-9488171D02*
X6214543Y-9469124D01*
X6214543Y-9469124D02*
X6224067Y-9459600D01*
X6224067Y-9459600D02*
X6243114Y-9450076D01*
X6395495Y-9631029D02*
X6405019Y-9640552D01*
X6405019Y-9640552D02*
X6395495Y-9650076D01*
X6395495Y-9650076D02*
X6385971Y-9640552D01*
X6385971Y-9640552D02*
X6395495Y-9631029D01*
X6395495Y-9631029D02*
X6395495Y-9650076D01*
X6528829Y-9450076D02*
X6547876Y-9450076D01*
X6547876Y-9450076D02*
X6566924Y-9459600D01*
X6566924Y-9459600D02*
X6576448Y-9469124D01*
X6576448Y-9469124D02*
X6585971Y-9488171D01*
X6585971Y-9488171D02*
X6595495Y-9526267D01*
X6595495Y-9526267D02*
X6595495Y-9573886D01*
X6595495Y-9573886D02*
X6585971Y-9611981D01*
X6585971Y-9611981D02*
X6576448Y-9631029D01*
X6576448Y-9631029D02*
X6566924Y-9640552D01*
X6566924Y-9640552D02*
X6547876Y-9650076D01*
X6547876Y-9650076D02*
X6528829Y-9650076D01*
X6528829Y-9650076D02*
X6509781Y-9640552D01*
X6509781Y-9640552D02*
X6500257Y-9631029D01*
X6500257Y-9631029D02*
X6490733Y-9611981D01*
X6490733Y-9611981D02*
X6481210Y-9573886D01*
X6481210Y-9573886D02*
X6481210Y-9526267D01*
X6481210Y-9526267D02*
X6490733Y-9488171D01*
X6490733Y-9488171D02*
X6500257Y-9469124D01*
X6500257Y-9469124D02*
X6509781Y-9459600D01*
X6509781Y-9459600D02*
X6528829Y-9450076D01*
X6719305Y-9450076D02*
X6738352Y-9450076D01*
X6738352Y-9450076D02*
X6757400Y-9459600D01*
X6757400Y-9459600D02*
X6766924Y-9469124D01*
X6766924Y-9469124D02*
X6776448Y-9488171D01*
X6776448Y-9488171D02*
X6785971Y-9526267D01*
X6785971Y-9526267D02*
X6785971Y-9573886D01*
X6785971Y-9573886D02*
X6776448Y-9611981D01*
X6776448Y-9611981D02*
X6766924Y-9631029D01*
X6766924Y-9631029D02*
X6757400Y-9640552D01*
X6757400Y-9640552D02*
X6738352Y-9650076D01*
X6738352Y-9650076D02*
X6719305Y-9650076D01*
X6719305Y-9650076D02*
X6700257Y-9640552D01*
X6700257Y-9640552D02*
X6690733Y-9631029D01*
X6690733Y-9631029D02*
X6681210Y-9611981D01*
X6681210Y-9611981D02*
X6671686Y-9573886D01*
X6671686Y-9573886D02*
X6671686Y-9526267D01*
X6671686Y-9526267D02*
X6681210Y-9488171D01*
X6681210Y-9488171D02*
X6690733Y-9469124D01*
X6690733Y-9469124D02*
X6700257Y-9459600D01*
X6700257Y-9459600D02*
X6719305Y-9450076D01*
X6881210Y-9650076D02*
X6919305Y-9650076D01*
X6919305Y-9650076D02*
X6938352Y-9640552D01*
X6938352Y-9640552D02*
X6947876Y-9631029D01*
X6947876Y-9631029D02*
X6966924Y-9602457D01*
X6966924Y-9602457D02*
X6976448Y-9564362D01*
X6976448Y-9564362D02*
X6976448Y-9488171D01*
X6976448Y-9488171D02*
X6966924Y-9469124D01*
X6966924Y-9469124D02*
X6957400Y-9459600D01*
X6957400Y-9459600D02*
X6938352Y-9450076D01*
X6938352Y-9450076D02*
X6900257Y-9450076D01*
X6900257Y-9450076D02*
X6881210Y-9459600D01*
X6881210Y-9459600D02*
X6871686Y-9469124D01*
X6871686Y-9469124D02*
X6862162Y-9488171D01*
X6862162Y-9488171D02*
X6862162Y-9535790D01*
X6862162Y-9535790D02*
X6871686Y-9554838D01*
X6871686Y-9554838D02*
X6881210Y-9564362D01*
X6881210Y-9564362D02*
X6900257Y-9573886D01*
X6900257Y-9573886D02*
X6938352Y-9573886D01*
X6938352Y-9573886D02*
X6957400Y-9564362D01*
X6957400Y-9564362D02*
X6966924Y-9554838D01*
X6966924Y-9554838D02*
X6976448Y-9535790D01*
X7090733Y-9535790D02*
X7071686Y-9526267D01*
X7071686Y-9526267D02*
X7062162Y-9516743D01*
X7062162Y-9516743D02*
X7052638Y-9497695D01*
X7052638Y-9497695D02*
X7052638Y-9488171D01*
X7052638Y-9488171D02*
X7062162Y-9469124D01*
X7062162Y-9469124D02*
X7071686Y-9459600D01*
X7071686Y-9459600D02*
X7090733Y-9450076D01*
X7090733Y-9450076D02*
X7128829Y-9450076D01*
X7128829Y-9450076D02*
X7147876Y-9459600D01*
X7147876Y-9459600D02*
X7157400Y-9469124D01*
X7157400Y-9469124D02*
X7166924Y-9488171D01*
X7166924Y-9488171D02*
X7166924Y-9497695D01*
X7166924Y-9497695D02*
X7157400Y-9516743D01*
X7157400Y-9516743D02*
X7147876Y-9526267D01*
X7147876Y-9526267D02*
X7128829Y-9535790D01*
X7128829Y-9535790D02*
X7090733Y-9535790D01*
X7090733Y-9535790D02*
X7071686Y-9545314D01*
X7071686Y-9545314D02*
X7062162Y-9554838D01*
X7062162Y-9554838D02*
X7052638Y-9573886D01*
X7052638Y-9573886D02*
X7052638Y-9611981D01*
X7052638Y-9611981D02*
X7062162Y-9631029D01*
X7062162Y-9631029D02*
X7071686Y-9640552D01*
X7071686Y-9640552D02*
X7090733Y-9650076D01*
X7090733Y-9650076D02*
X7128829Y-9650076D01*
X7128829Y-9650076D02*
X7147876Y-9640552D01*
X7147876Y-9640552D02*
X7157400Y-9631029D01*
X7157400Y-9631029D02*
X7166924Y-9611981D01*
X7166924Y-9611981D02*
X7166924Y-9573886D01*
X7166924Y-9573886D02*
X7157400Y-9554838D01*
X7157400Y-9554838D02*
X7147876Y-9545314D01*
X7147876Y-9545314D02*
X7128829Y-9535790D01*
X7243114Y-9450076D02*
X7243114Y-9488171D01*
X7319305Y-9450076D02*
X7319305Y-9488171D01*
X7582162Y-9726267D02*
X7572638Y-9716743D01*
X7572638Y-9716743D02*
X7553591Y-9688171D01*
X7553591Y-9688171D02*
X7544067Y-9669124D01*
X7544067Y-9669124D02*
X7534543Y-9640552D01*
X7534543Y-9640552D02*
X7525019Y-9592933D01*
X7525019Y-9592933D02*
X7525019Y-9554838D01*
X7525019Y-9554838D02*
X7534543Y-9507219D01*
X7534543Y-9507219D02*
X7544067Y-9478648D01*
X7544067Y-9478648D02*
X7553591Y-9459600D01*
X7553591Y-9459600D02*
X7572638Y-9431029D01*
X7572638Y-9431029D02*
X7582162Y-9421505D01*
X7648829Y-9469124D02*
X7658352Y-9459600D01*
X7658352Y-9459600D02*
X7677400Y-9450076D01*
X7677400Y-9450076D02*
X7725019Y-9450076D01*
X7725019Y-9450076D02*
X7744067Y-9459600D01*
X7744067Y-9459600D02*
X7753591Y-9469124D01*
X7753591Y-9469124D02*
X7763114Y-9488171D01*
X7763114Y-9488171D02*
X7763114Y-9507219D01*
X7763114Y-9507219D02*
X7753591Y-9535790D01*
X7753591Y-9535790D02*
X7639305Y-9650076D01*
X7639305Y-9650076D02*
X7763114Y-9650076D01*
X7968829Y-9650076D02*
X7968829Y-9450076D01*
X8054543Y-9650076D02*
X8054543Y-9545314D01*
X8054543Y-9545314D02*
X8045019Y-9526267D01*
X8045019Y-9526267D02*
X8025972Y-9516743D01*
X8025972Y-9516743D02*
X7997400Y-9516743D01*
X7997400Y-9516743D02*
X7978352Y-9526267D01*
X7978352Y-9526267D02*
X7968829Y-9535790D01*
X8178352Y-9650076D02*
X8159305Y-9640552D01*
X8159305Y-9640552D02*
X8149781Y-9631029D01*
X8149781Y-9631029D02*
X8140257Y-9611981D01*
X8140257Y-9611981D02*
X8140257Y-9554838D01*
X8140257Y-9554838D02*
X8149781Y-9535790D01*
X8149781Y-9535790D02*
X8159305Y-9526267D01*
X8159305Y-9526267D02*
X8178352Y-9516743D01*
X8178352Y-9516743D02*
X8206924Y-9516743D01*
X8206924Y-9516743D02*
X8225972Y-9526267D01*
X8225972Y-9526267D02*
X8235495Y-9535790D01*
X8235495Y-9535790D02*
X8245019Y-9554838D01*
X8245019Y-9554838D02*
X8245019Y-9611981D01*
X8245019Y-9611981D02*
X8235495Y-9631029D01*
X8235495Y-9631029D02*
X8225972Y-9640552D01*
X8225972Y-9640552D02*
X8206924Y-9650076D01*
X8206924Y-9650076D02*
X8178352Y-9650076D01*
X8359305Y-9650076D02*
X8340257Y-9640552D01*
X8340257Y-9640552D02*
X8330733Y-9621505D01*
X8330733Y-9621505D02*
X8330733Y-9450076D01*
X8511686Y-9640552D02*
X8492638Y-9650076D01*
X8492638Y-9650076D02*
X8454543Y-9650076D01*
X8454543Y-9650076D02*
X8435495Y-9640552D01*
X8435495Y-9640552D02*
X8425972Y-9621505D01*
X8425972Y-9621505D02*
X8425972Y-9545314D01*
X8425972Y-9545314D02*
X8435495Y-9526267D01*
X8435495Y-9526267D02*
X8454543Y-9516743D01*
X8454543Y-9516743D02*
X8492638Y-9516743D01*
X8492638Y-9516743D02*
X8511686Y-9526267D01*
X8511686Y-9526267D02*
X8521210Y-9545314D01*
X8521210Y-9545314D02*
X8521210Y-9564362D01*
X8521210Y-9564362D02*
X8425972Y-9583410D01*
X8597400Y-9640552D02*
X8616448Y-9650076D01*
X8616448Y-9650076D02*
X8654543Y-9650076D01*
X8654543Y-9650076D02*
X8673591Y-9640552D01*
X8673591Y-9640552D02*
X8683115Y-9621505D01*
X8683115Y-9621505D02*
X8683115Y-9611981D01*
X8683115Y-9611981D02*
X8673591Y-9592933D01*
X8673591Y-9592933D02*
X8654543Y-9583410D01*
X8654543Y-9583410D02*
X8625972Y-9583410D01*
X8625972Y-9583410D02*
X8606924Y-9573886D01*
X8606924Y-9573886D02*
X8597400Y-9554838D01*
X8597400Y-9554838D02*
X8597400Y-9545314D01*
X8597400Y-9545314D02*
X8606924Y-9526267D01*
X8606924Y-9526267D02*
X8625972Y-9516743D01*
X8625972Y-9516743D02*
X8654543Y-9516743D01*
X8654543Y-9516743D02*
X8673591Y-9526267D01*
X8749781Y-9726267D02*
X8759305Y-9716743D01*
X8759305Y-9716743D02*
X8778353Y-9688171D01*
X8778353Y-9688171D02*
X8787876Y-9669124D01*
X8787876Y-9669124D02*
X8797400Y-9640552D01*
X8797400Y-9640552D02*
X8806924Y-9592933D01*
X8806924Y-9592933D02*
X8806924Y-9554838D01*
X8806924Y-9554838D02*
X8797400Y-9507219D01*
X8797400Y-9507219D02*
X8787876Y-9478648D01*
X8787876Y-9478648D02*
X8778353Y-9459600D01*
X8778353Y-9459600D02*
X8759305Y-9431029D01*
X8759305Y-9431029D02*
X8749781Y-9421505D01*
D14*
X4108613Y-9861813D02*
X4108613Y-9819387D01*
X4066187Y-9819387D01*
X4066187Y-9861813D01*
X4108613Y-9861813D01*
D11*
X4403114Y-9714076D02*
X4422162Y-9714076D01*
X4422162Y-9714076D02*
X4441210Y-9723600D01*
X4441210Y-9723600D02*
X4450733Y-9733124D01*
X4450733Y-9733124D02*
X4460257Y-9752171D01*
X4460257Y-9752171D02*
X4469781Y-9790267D01*
X4469781Y-9790267D02*
X4469781Y-9837886D01*
X4469781Y-9837886D02*
X4460257Y-9875981D01*
X4460257Y-9875981D02*
X4450733Y-9895029D01*
X4450733Y-9895029D02*
X4441210Y-9904552D01*
X4441210Y-9904552D02*
X4422162Y-9914076D01*
X4422162Y-9914076D02*
X4403114Y-9914076D01*
X4403114Y-9914076D02*
X4384067Y-9904552D01*
X4384067Y-9904552D02*
X4374543Y-9895029D01*
X4374543Y-9895029D02*
X4365019Y-9875981D01*
X4365019Y-9875981D02*
X4355495Y-9837886D01*
X4355495Y-9837886D02*
X4355495Y-9790267D01*
X4355495Y-9790267D02*
X4365019Y-9752171D01*
X4365019Y-9752171D02*
X4374543Y-9733124D01*
X4374543Y-9733124D02*
X4384067Y-9723600D01*
X4384067Y-9723600D02*
X4403114Y-9714076D01*
X4555495Y-9895029D02*
X4565019Y-9904552D01*
X4565019Y-9904552D02*
X4555495Y-9914076D01*
X4555495Y-9914076D02*
X4545971Y-9904552D01*
X4545971Y-9904552D02*
X4555495Y-9895029D01*
X4555495Y-9895029D02*
X4555495Y-9914076D01*
X4736448Y-9714076D02*
X4698352Y-9714076D01*
X4698352Y-9714076D02*
X4679305Y-9723600D01*
X4679305Y-9723600D02*
X4669781Y-9733124D01*
X4669781Y-9733124D02*
X4650733Y-9761695D01*
X4650733Y-9761695D02*
X4641210Y-9799790D01*
X4641210Y-9799790D02*
X4641210Y-9875981D01*
X4641210Y-9875981D02*
X4650733Y-9895029D01*
X4650733Y-9895029D02*
X4660257Y-9904552D01*
X4660257Y-9904552D02*
X4679305Y-9914076D01*
X4679305Y-9914076D02*
X4717400Y-9914076D01*
X4717400Y-9914076D02*
X4736448Y-9904552D01*
X4736448Y-9904552D02*
X4745971Y-9895029D01*
X4745971Y-9895029D02*
X4755495Y-9875981D01*
X4755495Y-9875981D02*
X4755495Y-9828362D01*
X4755495Y-9828362D02*
X4745971Y-9809314D01*
X4745971Y-9809314D02*
X4736448Y-9799790D01*
X4736448Y-9799790D02*
X4717400Y-9790267D01*
X4717400Y-9790267D02*
X4679305Y-9790267D01*
X4679305Y-9790267D02*
X4660257Y-9799790D01*
X4660257Y-9799790D02*
X4650733Y-9809314D01*
X4650733Y-9809314D02*
X4641210Y-9828362D01*
X4879305Y-9714076D02*
X4898352Y-9714076D01*
X4898352Y-9714076D02*
X4917400Y-9723600D01*
X4917400Y-9723600D02*
X4926924Y-9733124D01*
X4926924Y-9733124D02*
X4936448Y-9752171D01*
X4936448Y-9752171D02*
X4945971Y-9790267D01*
X4945971Y-9790267D02*
X4945971Y-9837886D01*
X4945971Y-9837886D02*
X4936448Y-9875981D01*
X4936448Y-9875981D02*
X4926924Y-9895029D01*
X4926924Y-9895029D02*
X4917400Y-9904552D01*
X4917400Y-9904552D02*
X4898352Y-9914076D01*
X4898352Y-9914076D02*
X4879305Y-9914076D01*
X4879305Y-9914076D02*
X4860257Y-9904552D01*
X4860257Y-9904552D02*
X4850733Y-9895029D01*
X4850733Y-9895029D02*
X4841210Y-9875981D01*
X4841210Y-9875981D02*
X4831686Y-9837886D01*
X4831686Y-9837886D02*
X4831686Y-9790267D01*
X4831686Y-9790267D02*
X4841210Y-9752171D01*
X4841210Y-9752171D02*
X4850733Y-9733124D01*
X4850733Y-9733124D02*
X4860257Y-9723600D01*
X4860257Y-9723600D02*
X4879305Y-9714076D01*
X5069781Y-9714076D02*
X5088829Y-9714076D01*
X5088829Y-9714076D02*
X5107876Y-9723600D01*
X5107876Y-9723600D02*
X5117400Y-9733124D01*
X5117400Y-9733124D02*
X5126924Y-9752171D01*
X5126924Y-9752171D02*
X5136448Y-9790267D01*
X5136448Y-9790267D02*
X5136448Y-9837886D01*
X5136448Y-9837886D02*
X5126924Y-9875981D01*
X5126924Y-9875981D02*
X5117400Y-9895029D01*
X5117400Y-9895029D02*
X5107876Y-9904552D01*
X5107876Y-9904552D02*
X5088829Y-9914076D01*
X5088829Y-9914076D02*
X5069781Y-9914076D01*
X5069781Y-9914076D02*
X5050733Y-9904552D01*
X5050733Y-9904552D02*
X5041210Y-9895029D01*
X5041210Y-9895029D02*
X5031686Y-9875981D01*
X5031686Y-9875981D02*
X5022162Y-9837886D01*
X5022162Y-9837886D02*
X5022162Y-9790267D01*
X5022162Y-9790267D02*
X5031686Y-9752171D01*
X5031686Y-9752171D02*
X5041210Y-9733124D01*
X5041210Y-9733124D02*
X5050733Y-9723600D01*
X5050733Y-9723600D02*
X5069781Y-9714076D01*
X5222162Y-9914076D02*
X5222162Y-9780743D01*
X5222162Y-9799790D02*
X5231686Y-9790267D01*
X5231686Y-9790267D02*
X5250733Y-9780743D01*
X5250733Y-9780743D02*
X5279305Y-9780743D01*
X5279305Y-9780743D02*
X5298352Y-9790267D01*
X5298352Y-9790267D02*
X5307876Y-9809314D01*
X5307876Y-9809314D02*
X5307876Y-9914076D01*
X5307876Y-9809314D02*
X5317400Y-9790267D01*
X5317400Y-9790267D02*
X5336448Y-9780743D01*
X5336448Y-9780743D02*
X5365019Y-9780743D01*
X5365019Y-9780743D02*
X5384067Y-9790267D01*
X5384067Y-9790267D02*
X5393591Y-9809314D01*
X5393591Y-9809314D02*
X5393591Y-9914076D01*
X5488829Y-9914076D02*
X5488829Y-9780743D01*
X5488829Y-9799790D02*
X5498352Y-9790267D01*
X5498352Y-9790267D02*
X5517400Y-9780743D01*
X5517400Y-9780743D02*
X5545972Y-9780743D01*
X5545972Y-9780743D02*
X5565019Y-9790267D01*
X5565019Y-9790267D02*
X5574543Y-9809314D01*
X5574543Y-9809314D02*
X5574543Y-9914076D01*
X5574543Y-9809314D02*
X5584067Y-9790267D01*
X5584067Y-9790267D02*
X5603114Y-9780743D01*
X5603114Y-9780743D02*
X5631686Y-9780743D01*
X5631686Y-9780743D02*
X5650733Y-9790267D01*
X5650733Y-9790267D02*
X5660257Y-9809314D01*
X5660257Y-9809314D02*
X5660257Y-9914076D01*
X6018352Y-9704552D02*
X5846924Y-9961695D01*
X6243114Y-9714076D02*
X6262162Y-9714076D01*
X6262162Y-9714076D02*
X6281210Y-9723600D01*
X6281210Y-9723600D02*
X6290733Y-9733124D01*
X6290733Y-9733124D02*
X6300257Y-9752171D01*
X6300257Y-9752171D02*
X6309781Y-9790267D01*
X6309781Y-9790267D02*
X6309781Y-9837886D01*
X6309781Y-9837886D02*
X6300257Y-9875981D01*
X6300257Y-9875981D02*
X6290733Y-9895029D01*
X6290733Y-9895029D02*
X6281210Y-9904552D01*
X6281210Y-9904552D02*
X6262162Y-9914076D01*
X6262162Y-9914076D02*
X6243114Y-9914076D01*
X6243114Y-9914076D02*
X6224067Y-9904552D01*
X6224067Y-9904552D02*
X6214543Y-9895029D01*
X6214543Y-9895029D02*
X6205019Y-9875981D01*
X6205019Y-9875981D02*
X6195495Y-9837886D01*
X6195495Y-9837886D02*
X6195495Y-9790267D01*
X6195495Y-9790267D02*
X6205019Y-9752171D01*
X6205019Y-9752171D02*
X6214543Y-9733124D01*
X6214543Y-9733124D02*
X6224067Y-9723600D01*
X6224067Y-9723600D02*
X6243114Y-9714076D01*
X6395495Y-9895029D02*
X6405019Y-9904552D01*
X6405019Y-9904552D02*
X6395495Y-9914076D01*
X6395495Y-9914076D02*
X6385971Y-9904552D01*
X6385971Y-9904552D02*
X6395495Y-9895029D01*
X6395495Y-9895029D02*
X6395495Y-9914076D01*
X6528829Y-9714076D02*
X6547876Y-9714076D01*
X6547876Y-9714076D02*
X6566924Y-9723600D01*
X6566924Y-9723600D02*
X6576448Y-9733124D01*
X6576448Y-9733124D02*
X6585971Y-9752171D01*
X6585971Y-9752171D02*
X6595495Y-9790267D01*
X6595495Y-9790267D02*
X6595495Y-9837886D01*
X6595495Y-9837886D02*
X6585971Y-9875981D01*
X6585971Y-9875981D02*
X6576448Y-9895029D01*
X6576448Y-9895029D02*
X6566924Y-9904552D01*
X6566924Y-9904552D02*
X6547876Y-9914076D01*
X6547876Y-9914076D02*
X6528829Y-9914076D01*
X6528829Y-9914076D02*
X6509781Y-9904552D01*
X6509781Y-9904552D02*
X6500257Y-9895029D01*
X6500257Y-9895029D02*
X6490733Y-9875981D01*
X6490733Y-9875981D02*
X6481210Y-9837886D01*
X6481210Y-9837886D02*
X6481210Y-9790267D01*
X6481210Y-9790267D02*
X6490733Y-9752171D01*
X6490733Y-9752171D02*
X6500257Y-9733124D01*
X6500257Y-9733124D02*
X6509781Y-9723600D01*
X6509781Y-9723600D02*
X6528829Y-9714076D01*
X6671686Y-9733124D02*
X6681210Y-9723600D01*
X6681210Y-9723600D02*
X6700257Y-9714076D01*
X6700257Y-9714076D02*
X6747876Y-9714076D01*
X6747876Y-9714076D02*
X6766924Y-9723600D01*
X6766924Y-9723600D02*
X6776448Y-9733124D01*
X6776448Y-9733124D02*
X6785971Y-9752171D01*
X6785971Y-9752171D02*
X6785971Y-9771219D01*
X6785971Y-9771219D02*
X6776448Y-9799790D01*
X6776448Y-9799790D02*
X6662162Y-9914076D01*
X6662162Y-9914076D02*
X6785971Y-9914076D01*
X6852638Y-9714076D02*
X6976448Y-9714076D01*
X6976448Y-9714076D02*
X6909781Y-9790267D01*
X6909781Y-9790267D02*
X6938352Y-9790267D01*
X6938352Y-9790267D02*
X6957400Y-9799790D01*
X6957400Y-9799790D02*
X6966924Y-9809314D01*
X6966924Y-9809314D02*
X6976448Y-9828362D01*
X6976448Y-9828362D02*
X6976448Y-9875981D01*
X6976448Y-9875981D02*
X6966924Y-9895029D01*
X6966924Y-9895029D02*
X6957400Y-9904552D01*
X6957400Y-9904552D02*
X6938352Y-9914076D01*
X6938352Y-9914076D02*
X6881210Y-9914076D01*
X6881210Y-9914076D02*
X6862162Y-9904552D01*
X6862162Y-9904552D02*
X6852638Y-9895029D01*
X7147876Y-9714076D02*
X7109781Y-9714076D01*
X7109781Y-9714076D02*
X7090733Y-9723600D01*
X7090733Y-9723600D02*
X7081210Y-9733124D01*
X7081210Y-9733124D02*
X7062162Y-9761695D01*
X7062162Y-9761695D02*
X7052638Y-9799790D01*
X7052638Y-9799790D02*
X7052638Y-9875981D01*
X7052638Y-9875981D02*
X7062162Y-9895029D01*
X7062162Y-9895029D02*
X7071686Y-9904552D01*
X7071686Y-9904552D02*
X7090733Y-9914076D01*
X7090733Y-9914076D02*
X7128829Y-9914076D01*
X7128829Y-9914076D02*
X7147876Y-9904552D01*
X7147876Y-9904552D02*
X7157400Y-9895029D01*
X7157400Y-9895029D02*
X7166924Y-9875981D01*
X7166924Y-9875981D02*
X7166924Y-9828362D01*
X7166924Y-9828362D02*
X7157400Y-9809314D01*
X7157400Y-9809314D02*
X7147876Y-9799790D01*
X7147876Y-9799790D02*
X7128829Y-9790267D01*
X7128829Y-9790267D02*
X7090733Y-9790267D01*
X7090733Y-9790267D02*
X7071686Y-9799790D01*
X7071686Y-9799790D02*
X7062162Y-9809314D01*
X7062162Y-9809314D02*
X7052638Y-9828362D01*
X7243114Y-9714076D02*
X7243114Y-9752171D01*
X7319305Y-9714076D02*
X7319305Y-9752171D01*
X7582162Y-9990267D02*
X7572638Y-9980743D01*
X7572638Y-9980743D02*
X7553591Y-9952171D01*
X7553591Y-9952171D02*
X7544067Y-9933124D01*
X7544067Y-9933124D02*
X7534543Y-9904552D01*
X7534543Y-9904552D02*
X7525019Y-9856933D01*
X7525019Y-9856933D02*
X7525019Y-9818838D01*
X7525019Y-9818838D02*
X7534543Y-9771219D01*
X7534543Y-9771219D02*
X7544067Y-9742648D01*
X7544067Y-9742648D02*
X7553591Y-9723600D01*
X7553591Y-9723600D02*
X7572638Y-9695029D01*
X7572638Y-9695029D02*
X7582162Y-9685505D01*
X7696448Y-9714076D02*
X7715495Y-9714076D01*
X7715495Y-9714076D02*
X7734543Y-9723600D01*
X7734543Y-9723600D02*
X7744067Y-9733124D01*
X7744067Y-9733124D02*
X7753591Y-9752171D01*
X7753591Y-9752171D02*
X7763114Y-9790267D01*
X7763114Y-9790267D02*
X7763114Y-9837886D01*
X7763114Y-9837886D02*
X7753591Y-9875981D01*
X7753591Y-9875981D02*
X7744067Y-9895029D01*
X7744067Y-9895029D02*
X7734543Y-9904552D01*
X7734543Y-9904552D02*
X7715495Y-9914076D01*
X7715495Y-9914076D02*
X7696448Y-9914076D01*
X7696448Y-9914076D02*
X7677400Y-9904552D01*
X7677400Y-9904552D02*
X7667876Y-9895029D01*
X7667876Y-9895029D02*
X7658352Y-9875981D01*
X7658352Y-9875981D02*
X7648829Y-9837886D01*
X7648829Y-9837886D02*
X7648829Y-9790267D01*
X7648829Y-9790267D02*
X7658352Y-9752171D01*
X7658352Y-9752171D02*
X7667876Y-9733124D01*
X7667876Y-9733124D02*
X7677400Y-9723600D01*
X7677400Y-9723600D02*
X7696448Y-9714076D01*
X7968829Y-9914076D02*
X7968829Y-9714076D01*
X8054543Y-9914076D02*
X8054543Y-9809314D01*
X8054543Y-9809314D02*
X8045019Y-9790267D01*
X8045019Y-9790267D02*
X8025972Y-9780743D01*
X8025972Y-9780743D02*
X7997400Y-9780743D01*
X7997400Y-9780743D02*
X7978352Y-9790267D01*
X7978352Y-9790267D02*
X7968829Y-9799790D01*
X8178352Y-9914076D02*
X8159305Y-9904552D01*
X8159305Y-9904552D02*
X8149781Y-9895029D01*
X8149781Y-9895029D02*
X8140257Y-9875981D01*
X8140257Y-9875981D02*
X8140257Y-9818838D01*
X8140257Y-9818838D02*
X8149781Y-9799790D01*
X8149781Y-9799790D02*
X8159305Y-9790267D01*
X8159305Y-9790267D02*
X8178352Y-9780743D01*
X8178352Y-9780743D02*
X8206924Y-9780743D01*
X8206924Y-9780743D02*
X8225972Y-9790267D01*
X8225972Y-9790267D02*
X8235495Y-9799790D01*
X8235495Y-9799790D02*
X8245019Y-9818838D01*
X8245019Y-9818838D02*
X8245019Y-9875981D01*
X8245019Y-9875981D02*
X8235495Y-9895029D01*
X8235495Y-9895029D02*
X8225972Y-9904552D01*
X8225972Y-9904552D02*
X8206924Y-9914076D01*
X8206924Y-9914076D02*
X8178352Y-9914076D01*
X8359305Y-9914076D02*
X8340257Y-9904552D01*
X8340257Y-9904552D02*
X8330733Y-9885505D01*
X8330733Y-9885505D02*
X8330733Y-9714076D01*
X8511686Y-9904552D02*
X8492638Y-9914076D01*
X8492638Y-9914076D02*
X8454543Y-9914076D01*
X8454543Y-9914076D02*
X8435495Y-9904552D01*
X8435495Y-9904552D02*
X8425972Y-9885505D01*
X8425972Y-9885505D02*
X8425972Y-9809314D01*
X8425972Y-9809314D02*
X8435495Y-9790267D01*
X8435495Y-9790267D02*
X8454543Y-9780743D01*
X8454543Y-9780743D02*
X8492638Y-9780743D01*
X8492638Y-9780743D02*
X8511686Y-9790267D01*
X8511686Y-9790267D02*
X8521210Y-9809314D01*
X8521210Y-9809314D02*
X8521210Y-9828362D01*
X8521210Y-9828362D02*
X8425972Y-9847410D01*
X8597400Y-9904552D02*
X8616448Y-9914076D01*
X8616448Y-9914076D02*
X8654543Y-9914076D01*
X8654543Y-9914076D02*
X8673591Y-9904552D01*
X8673591Y-9904552D02*
X8683115Y-9885505D01*
X8683115Y-9885505D02*
X8683115Y-9875981D01*
X8683115Y-9875981D02*
X8673591Y-9856933D01*
X8673591Y-9856933D02*
X8654543Y-9847410D01*
X8654543Y-9847410D02*
X8625972Y-9847410D01*
X8625972Y-9847410D02*
X8606924Y-9837886D01*
X8606924Y-9837886D02*
X8597400Y-9818838D01*
X8597400Y-9818838D02*
X8597400Y-9809314D01*
X8597400Y-9809314D02*
X8606924Y-9790267D01*
X8606924Y-9790267D02*
X8625972Y-9780743D01*
X8625972Y-9780743D02*
X8654543Y-9780743D01*
X8654543Y-9780743D02*
X8673591Y-9790267D01*
X8888829Y-9837886D02*
X9041210Y-9837886D01*
X8965019Y-9914076D02*
X8965019Y-9761695D01*
X9285019Y-9799790D02*
X9265972Y-9790267D01*
X9265972Y-9790267D02*
X9256448Y-9780743D01*
X9256448Y-9780743D02*
X9246924Y-9761695D01*
X9246924Y-9761695D02*
X9246924Y-9752171D01*
X9246924Y-9752171D02*
X9256448Y-9733124D01*
X9256448Y-9733124D02*
X9265972Y-9723600D01*
X9265972Y-9723600D02*
X9285019Y-9714076D01*
X9285019Y-9714076D02*
X9323115Y-9714076D01*
X9323115Y-9714076D02*
X9342162Y-9723600D01*
X9342162Y-9723600D02*
X9351686Y-9733124D01*
X9351686Y-9733124D02*
X9361210Y-9752171D01*
X9361210Y-9752171D02*
X9361210Y-9761695D01*
X9361210Y-9761695D02*
X9351686Y-9780743D01*
X9351686Y-9780743D02*
X9342162Y-9790267D01*
X9342162Y-9790267D02*
X9323115Y-9799790D01*
X9323115Y-9799790D02*
X9285019Y-9799790D01*
X9285019Y-9799790D02*
X9265972Y-9809314D01*
X9265972Y-9809314D02*
X9256448Y-9818838D01*
X9256448Y-9818838D02*
X9246924Y-9837886D01*
X9246924Y-9837886D02*
X9246924Y-9875981D01*
X9246924Y-9875981D02*
X9256448Y-9895029D01*
X9256448Y-9895029D02*
X9265972Y-9904552D01*
X9265972Y-9904552D02*
X9285019Y-9914076D01*
X9285019Y-9914076D02*
X9323115Y-9914076D01*
X9323115Y-9914076D02*
X9342162Y-9904552D01*
X9342162Y-9904552D02*
X9351686Y-9895029D01*
X9351686Y-9895029D02*
X9361210Y-9875981D01*
X9361210Y-9875981D02*
X9361210Y-9837886D01*
X9361210Y-9837886D02*
X9351686Y-9818838D01*
X9351686Y-9818838D02*
X9342162Y-9809314D01*
X9342162Y-9809314D02*
X9323115Y-9799790D01*
X9557400Y-9904552D02*
X9576448Y-9914076D01*
X9576448Y-9914076D02*
X9614543Y-9914076D01*
X9614543Y-9914076D02*
X9633591Y-9904552D01*
X9633591Y-9904552D02*
X9643115Y-9885505D01*
X9643115Y-9885505D02*
X9643115Y-9875981D01*
X9643115Y-9875981D02*
X9633591Y-9856933D01*
X9633591Y-9856933D02*
X9614543Y-9847410D01*
X9614543Y-9847410D02*
X9585972Y-9847410D01*
X9585972Y-9847410D02*
X9566924Y-9837886D01*
X9566924Y-9837886D02*
X9557400Y-9818838D01*
X9557400Y-9818838D02*
X9557400Y-9809314D01*
X9557400Y-9809314D02*
X9566924Y-9790267D01*
X9566924Y-9790267D02*
X9585972Y-9780743D01*
X9585972Y-9780743D02*
X9614543Y-9780743D01*
X9614543Y-9780743D02*
X9633591Y-9790267D01*
X9757400Y-9914076D02*
X9738353Y-9904552D01*
X9738353Y-9904552D02*
X9728829Y-9885505D01*
X9728829Y-9885505D02*
X9728829Y-9714076D01*
X9862162Y-9914076D02*
X9843115Y-9904552D01*
X9843115Y-9904552D02*
X9833591Y-9895029D01*
X9833591Y-9895029D02*
X9824067Y-9875981D01*
X9824067Y-9875981D02*
X9824067Y-9818838D01*
X9824067Y-9818838D02*
X9833591Y-9799790D01*
X9833591Y-9799790D02*
X9843115Y-9790267D01*
X9843115Y-9790267D02*
X9862162Y-9780743D01*
X9862162Y-9780743D02*
X9890734Y-9780743D01*
X9890734Y-9780743D02*
X9909781Y-9790267D01*
X9909781Y-9790267D02*
X9919305Y-9799790D01*
X9919305Y-9799790D02*
X9928829Y-9818838D01*
X9928829Y-9818838D02*
X9928829Y-9875981D01*
X9928829Y-9875981D02*
X9919305Y-9895029D01*
X9919305Y-9895029D02*
X9909781Y-9904552D01*
X9909781Y-9904552D02*
X9890734Y-9914076D01*
X9890734Y-9914076D02*
X9862162Y-9914076D01*
X9985972Y-9780743D02*
X10062162Y-9780743D01*
X10014543Y-9714076D02*
X10014543Y-9885505D01*
X10014543Y-9885505D02*
X10024067Y-9904552D01*
X10024067Y-9904552D02*
X10043115Y-9914076D01*
X10043115Y-9914076D02*
X10062162Y-9914076D01*
X10119305Y-9904552D02*
X10138353Y-9914076D01*
X10138353Y-9914076D02*
X10176448Y-9914076D01*
X10176448Y-9914076D02*
X10195496Y-9904552D01*
X10195496Y-9904552D02*
X10205019Y-9885505D01*
X10205019Y-9885505D02*
X10205019Y-9875981D01*
X10205019Y-9875981D02*
X10195496Y-9856933D01*
X10195496Y-9856933D02*
X10176448Y-9847410D01*
X10176448Y-9847410D02*
X10147876Y-9847410D01*
X10147876Y-9847410D02*
X10128829Y-9837886D01*
X10128829Y-9837886D02*
X10119305Y-9818838D01*
X10119305Y-9818838D02*
X10119305Y-9809314D01*
X10119305Y-9809314D02*
X10128829Y-9790267D01*
X10128829Y-9790267D02*
X10147876Y-9780743D01*
X10147876Y-9780743D02*
X10176448Y-9780743D01*
X10176448Y-9780743D02*
X10195496Y-9790267D01*
X10271686Y-9990267D02*
X10281210Y-9980743D01*
X10281210Y-9980743D02*
X10300257Y-9952171D01*
X10300257Y-9952171D02*
X10309781Y-9933124D01*
X10309781Y-9933124D02*
X10319305Y-9904552D01*
X10319305Y-9904552D02*
X10328829Y-9856933D01*
X10328829Y-9856933D02*
X10328829Y-9818838D01*
X10328829Y-9818838D02*
X10319305Y-9771219D01*
X10319305Y-9771219D02*
X10309781Y-9742648D01*
X10309781Y-9742648D02*
X10300257Y-9723600D01*
X10300257Y-9723600D02*
X10281210Y-9695029D01*
X10281210Y-9695029D02*
X10271686Y-9685505D01*
D15*
X4077400Y-10144600D02*
X4117400Y-10104600D01*
X4077400Y-10064600D01*
X4037400Y-10104600D01*
X4077400Y-10144600D01*
D11*
X4403114Y-9978076D02*
X4422162Y-9978076D01*
X4422162Y-9978076D02*
X4441210Y-9987600D01*
X4441210Y-9987600D02*
X4450733Y-9997124D01*
X4450733Y-9997124D02*
X4460257Y-10016171D01*
X4460257Y-10016171D02*
X4469781Y-10054267D01*
X4469781Y-10054267D02*
X4469781Y-10101886D01*
X4469781Y-10101886D02*
X4460257Y-10139981D01*
X4460257Y-10139981D02*
X4450733Y-10159029D01*
X4450733Y-10159029D02*
X4441210Y-10168552D01*
X4441210Y-10168552D02*
X4422162Y-10178076D01*
X4422162Y-10178076D02*
X4403114Y-10178076D01*
X4403114Y-10178076D02*
X4384067Y-10168552D01*
X4384067Y-10168552D02*
X4374543Y-10159029D01*
X4374543Y-10159029D02*
X4365019Y-10139981D01*
X4365019Y-10139981D02*
X4355495Y-10101886D01*
X4355495Y-10101886D02*
X4355495Y-10054267D01*
X4355495Y-10054267D02*
X4365019Y-10016171D01*
X4365019Y-10016171D02*
X4374543Y-9997124D01*
X4374543Y-9997124D02*
X4384067Y-9987600D01*
X4384067Y-9987600D02*
X4403114Y-9978076D01*
X4555495Y-10159029D02*
X4565019Y-10168552D01*
X4565019Y-10168552D02*
X4555495Y-10178076D01*
X4555495Y-10178076D02*
X4545971Y-10168552D01*
X4545971Y-10168552D02*
X4555495Y-10159029D01*
X4555495Y-10159029D02*
X4555495Y-10178076D01*
X4679305Y-10063790D02*
X4660257Y-10054267D01*
X4660257Y-10054267D02*
X4650733Y-10044743D01*
X4650733Y-10044743D02*
X4641210Y-10025695D01*
X4641210Y-10025695D02*
X4641210Y-10016171D01*
X4641210Y-10016171D02*
X4650733Y-9997124D01*
X4650733Y-9997124D02*
X4660257Y-9987600D01*
X4660257Y-9987600D02*
X4679305Y-9978076D01*
X4679305Y-9978076D02*
X4717400Y-9978076D01*
X4717400Y-9978076D02*
X4736448Y-9987600D01*
X4736448Y-9987600D02*
X4745971Y-9997124D01*
X4745971Y-9997124D02*
X4755495Y-10016171D01*
X4755495Y-10016171D02*
X4755495Y-10025695D01*
X4755495Y-10025695D02*
X4745971Y-10044743D01*
X4745971Y-10044743D02*
X4736448Y-10054267D01*
X4736448Y-10054267D02*
X4717400Y-10063790D01*
X4717400Y-10063790D02*
X4679305Y-10063790D01*
X4679305Y-10063790D02*
X4660257Y-10073314D01*
X4660257Y-10073314D02*
X4650733Y-10082838D01*
X4650733Y-10082838D02*
X4641210Y-10101886D01*
X4641210Y-10101886D02*
X4641210Y-10139981D01*
X4641210Y-10139981D02*
X4650733Y-10159029D01*
X4650733Y-10159029D02*
X4660257Y-10168552D01*
X4660257Y-10168552D02*
X4679305Y-10178076D01*
X4679305Y-10178076D02*
X4717400Y-10178076D01*
X4717400Y-10178076D02*
X4736448Y-10168552D01*
X4736448Y-10168552D02*
X4745971Y-10159029D01*
X4745971Y-10159029D02*
X4755495Y-10139981D01*
X4755495Y-10139981D02*
X4755495Y-10101886D01*
X4755495Y-10101886D02*
X4745971Y-10082838D01*
X4745971Y-10082838D02*
X4736448Y-10073314D01*
X4736448Y-10073314D02*
X4717400Y-10063790D01*
X4879305Y-9978076D02*
X4898352Y-9978076D01*
X4898352Y-9978076D02*
X4917400Y-9987600D01*
X4917400Y-9987600D02*
X4926924Y-9997124D01*
X4926924Y-9997124D02*
X4936448Y-10016171D01*
X4936448Y-10016171D02*
X4945971Y-10054267D01*
X4945971Y-10054267D02*
X4945971Y-10101886D01*
X4945971Y-10101886D02*
X4936448Y-10139981D01*
X4936448Y-10139981D02*
X4926924Y-10159029D01*
X4926924Y-10159029D02*
X4917400Y-10168552D01*
X4917400Y-10168552D02*
X4898352Y-10178076D01*
X4898352Y-10178076D02*
X4879305Y-10178076D01*
X4879305Y-10178076D02*
X4860257Y-10168552D01*
X4860257Y-10168552D02*
X4850733Y-10159029D01*
X4850733Y-10159029D02*
X4841210Y-10139981D01*
X4841210Y-10139981D02*
X4831686Y-10101886D01*
X4831686Y-10101886D02*
X4831686Y-10054267D01*
X4831686Y-10054267D02*
X4841210Y-10016171D01*
X4841210Y-10016171D02*
X4850733Y-9997124D01*
X4850733Y-9997124D02*
X4860257Y-9987600D01*
X4860257Y-9987600D02*
X4879305Y-9978076D01*
X5069781Y-9978076D02*
X5088829Y-9978076D01*
X5088829Y-9978076D02*
X5107876Y-9987600D01*
X5107876Y-9987600D02*
X5117400Y-9997124D01*
X5117400Y-9997124D02*
X5126924Y-10016171D01*
X5126924Y-10016171D02*
X5136448Y-10054267D01*
X5136448Y-10054267D02*
X5136448Y-10101886D01*
X5136448Y-10101886D02*
X5126924Y-10139981D01*
X5126924Y-10139981D02*
X5117400Y-10159029D01*
X5117400Y-10159029D02*
X5107876Y-10168552D01*
X5107876Y-10168552D02*
X5088829Y-10178076D01*
X5088829Y-10178076D02*
X5069781Y-10178076D01*
X5069781Y-10178076D02*
X5050733Y-10168552D01*
X5050733Y-10168552D02*
X5041210Y-10159029D01*
X5041210Y-10159029D02*
X5031686Y-10139981D01*
X5031686Y-10139981D02*
X5022162Y-10101886D01*
X5022162Y-10101886D02*
X5022162Y-10054267D01*
X5022162Y-10054267D02*
X5031686Y-10016171D01*
X5031686Y-10016171D02*
X5041210Y-9997124D01*
X5041210Y-9997124D02*
X5050733Y-9987600D01*
X5050733Y-9987600D02*
X5069781Y-9978076D01*
X5222162Y-10178076D02*
X5222162Y-10044743D01*
X5222162Y-10063790D02*
X5231686Y-10054267D01*
X5231686Y-10054267D02*
X5250733Y-10044743D01*
X5250733Y-10044743D02*
X5279305Y-10044743D01*
X5279305Y-10044743D02*
X5298352Y-10054267D01*
X5298352Y-10054267D02*
X5307876Y-10073314D01*
X5307876Y-10073314D02*
X5307876Y-10178076D01*
X5307876Y-10073314D02*
X5317400Y-10054267D01*
X5317400Y-10054267D02*
X5336448Y-10044743D01*
X5336448Y-10044743D02*
X5365019Y-10044743D01*
X5365019Y-10044743D02*
X5384067Y-10054267D01*
X5384067Y-10054267D02*
X5393591Y-10073314D01*
X5393591Y-10073314D02*
X5393591Y-10178076D01*
X5488829Y-10178076D02*
X5488829Y-10044743D01*
X5488829Y-10063790D02*
X5498352Y-10054267D01*
X5498352Y-10054267D02*
X5517400Y-10044743D01*
X5517400Y-10044743D02*
X5545972Y-10044743D01*
X5545972Y-10044743D02*
X5565019Y-10054267D01*
X5565019Y-10054267D02*
X5574543Y-10073314D01*
X5574543Y-10073314D02*
X5574543Y-10178076D01*
X5574543Y-10073314D02*
X5584067Y-10054267D01*
X5584067Y-10054267D02*
X5603114Y-10044743D01*
X5603114Y-10044743D02*
X5631686Y-10044743D01*
X5631686Y-10044743D02*
X5650733Y-10054267D01*
X5650733Y-10054267D02*
X5660257Y-10073314D01*
X5660257Y-10073314D02*
X5660257Y-10178076D01*
X6018352Y-9968552D02*
X5846924Y-10225695D01*
X6243114Y-9978076D02*
X6262162Y-9978076D01*
X6262162Y-9978076D02*
X6281210Y-9987600D01*
X6281210Y-9987600D02*
X6290733Y-9997124D01*
X6290733Y-9997124D02*
X6300257Y-10016171D01*
X6300257Y-10016171D02*
X6309781Y-10054267D01*
X6309781Y-10054267D02*
X6309781Y-10101886D01*
X6309781Y-10101886D02*
X6300257Y-10139981D01*
X6300257Y-10139981D02*
X6290733Y-10159029D01*
X6290733Y-10159029D02*
X6281210Y-10168552D01*
X6281210Y-10168552D02*
X6262162Y-10178076D01*
X6262162Y-10178076D02*
X6243114Y-10178076D01*
X6243114Y-10178076D02*
X6224067Y-10168552D01*
X6224067Y-10168552D02*
X6214543Y-10159029D01*
X6214543Y-10159029D02*
X6205019Y-10139981D01*
X6205019Y-10139981D02*
X6195495Y-10101886D01*
X6195495Y-10101886D02*
X6195495Y-10054267D01*
X6195495Y-10054267D02*
X6205019Y-10016171D01*
X6205019Y-10016171D02*
X6214543Y-9997124D01*
X6214543Y-9997124D02*
X6224067Y-9987600D01*
X6224067Y-9987600D02*
X6243114Y-9978076D01*
X6395495Y-10159029D02*
X6405019Y-10168552D01*
X6405019Y-10168552D02*
X6395495Y-10178076D01*
X6395495Y-10178076D02*
X6385971Y-10168552D01*
X6385971Y-10168552D02*
X6395495Y-10159029D01*
X6395495Y-10159029D02*
X6395495Y-10178076D01*
X6528829Y-9978076D02*
X6547876Y-9978076D01*
X6547876Y-9978076D02*
X6566924Y-9987600D01*
X6566924Y-9987600D02*
X6576448Y-9997124D01*
X6576448Y-9997124D02*
X6585971Y-10016171D01*
X6585971Y-10016171D02*
X6595495Y-10054267D01*
X6595495Y-10054267D02*
X6595495Y-10101886D01*
X6595495Y-10101886D02*
X6585971Y-10139981D01*
X6585971Y-10139981D02*
X6576448Y-10159029D01*
X6576448Y-10159029D02*
X6566924Y-10168552D01*
X6566924Y-10168552D02*
X6547876Y-10178076D01*
X6547876Y-10178076D02*
X6528829Y-10178076D01*
X6528829Y-10178076D02*
X6509781Y-10168552D01*
X6509781Y-10168552D02*
X6500257Y-10159029D01*
X6500257Y-10159029D02*
X6490733Y-10139981D01*
X6490733Y-10139981D02*
X6481210Y-10101886D01*
X6481210Y-10101886D02*
X6481210Y-10054267D01*
X6481210Y-10054267D02*
X6490733Y-10016171D01*
X6490733Y-10016171D02*
X6500257Y-9997124D01*
X6500257Y-9997124D02*
X6509781Y-9987600D01*
X6509781Y-9987600D02*
X6528829Y-9978076D01*
X6662162Y-9978076D02*
X6785971Y-9978076D01*
X6785971Y-9978076D02*
X6719305Y-10054267D01*
X6719305Y-10054267D02*
X6747876Y-10054267D01*
X6747876Y-10054267D02*
X6766924Y-10063790D01*
X6766924Y-10063790D02*
X6776448Y-10073314D01*
X6776448Y-10073314D02*
X6785971Y-10092362D01*
X6785971Y-10092362D02*
X6785971Y-10139981D01*
X6785971Y-10139981D02*
X6776448Y-10159029D01*
X6776448Y-10159029D02*
X6766924Y-10168552D01*
X6766924Y-10168552D02*
X6747876Y-10178076D01*
X6747876Y-10178076D02*
X6690733Y-10178076D01*
X6690733Y-10178076D02*
X6671686Y-10168552D01*
X6671686Y-10168552D02*
X6662162Y-10159029D01*
X6976448Y-10178076D02*
X6862162Y-10178076D01*
X6919305Y-10178076D02*
X6919305Y-9978076D01*
X6919305Y-9978076D02*
X6900257Y-10006648D01*
X6900257Y-10006648D02*
X6881210Y-10025695D01*
X6881210Y-10025695D02*
X6862162Y-10035219D01*
X7157400Y-9978076D02*
X7062162Y-9978076D01*
X7062162Y-9978076D02*
X7052638Y-10073314D01*
X7052638Y-10073314D02*
X7062162Y-10063790D01*
X7062162Y-10063790D02*
X7081210Y-10054267D01*
X7081210Y-10054267D02*
X7128829Y-10054267D01*
X7128829Y-10054267D02*
X7147876Y-10063790D01*
X7147876Y-10063790D02*
X7157400Y-10073314D01*
X7157400Y-10073314D02*
X7166924Y-10092362D01*
X7166924Y-10092362D02*
X7166924Y-10139981D01*
X7166924Y-10139981D02*
X7157400Y-10159029D01*
X7157400Y-10159029D02*
X7147876Y-10168552D01*
X7147876Y-10168552D02*
X7128829Y-10178076D01*
X7128829Y-10178076D02*
X7081210Y-10178076D01*
X7081210Y-10178076D02*
X7062162Y-10168552D01*
X7062162Y-10168552D02*
X7052638Y-10159029D01*
X7243114Y-9978076D02*
X7243114Y-10016171D01*
X7319305Y-9978076D02*
X7319305Y-10016171D01*
X7582162Y-10254267D02*
X7572638Y-10244743D01*
X7572638Y-10244743D02*
X7553591Y-10216171D01*
X7553591Y-10216171D02*
X7544067Y-10197124D01*
X7544067Y-10197124D02*
X7534543Y-10168552D01*
X7534543Y-10168552D02*
X7525019Y-10120933D01*
X7525019Y-10120933D02*
X7525019Y-10082838D01*
X7525019Y-10082838D02*
X7534543Y-10035219D01*
X7534543Y-10035219D02*
X7544067Y-10006648D01*
X7544067Y-10006648D02*
X7553591Y-9987600D01*
X7553591Y-9987600D02*
X7572638Y-9959029D01*
X7572638Y-9959029D02*
X7582162Y-9949505D01*
X7648829Y-9997124D02*
X7658352Y-9987600D01*
X7658352Y-9987600D02*
X7677400Y-9978076D01*
X7677400Y-9978076D02*
X7725019Y-9978076D01*
X7725019Y-9978076D02*
X7744067Y-9987600D01*
X7744067Y-9987600D02*
X7753591Y-9997124D01*
X7753591Y-9997124D02*
X7763114Y-10016171D01*
X7763114Y-10016171D02*
X7763114Y-10035219D01*
X7763114Y-10035219D02*
X7753591Y-10063790D01*
X7753591Y-10063790D02*
X7639305Y-10178076D01*
X7639305Y-10178076D02*
X7763114Y-10178076D01*
X7839305Y-9997124D02*
X7848829Y-9987600D01*
X7848829Y-9987600D02*
X7867876Y-9978076D01*
X7867876Y-9978076D02*
X7915495Y-9978076D01*
X7915495Y-9978076D02*
X7934543Y-9987600D01*
X7934543Y-9987600D02*
X7944067Y-9997124D01*
X7944067Y-9997124D02*
X7953591Y-10016171D01*
X7953591Y-10016171D02*
X7953591Y-10035219D01*
X7953591Y-10035219D02*
X7944067Y-10063790D01*
X7944067Y-10063790D02*
X7829781Y-10178076D01*
X7829781Y-10178076D02*
X7953591Y-10178076D01*
X8159305Y-10178076D02*
X8159305Y-9978076D01*
X8245019Y-10178076D02*
X8245019Y-10073314D01*
X8245019Y-10073314D02*
X8235495Y-10054267D01*
X8235495Y-10054267D02*
X8216448Y-10044743D01*
X8216448Y-10044743D02*
X8187876Y-10044743D01*
X8187876Y-10044743D02*
X8168829Y-10054267D01*
X8168829Y-10054267D02*
X8159305Y-10063790D01*
X8368829Y-10178076D02*
X8349781Y-10168552D01*
X8349781Y-10168552D02*
X8340257Y-10159029D01*
X8340257Y-10159029D02*
X8330733Y-10139981D01*
X8330733Y-10139981D02*
X8330733Y-10082838D01*
X8330733Y-10082838D02*
X8340257Y-10063790D01*
X8340257Y-10063790D02*
X8349781Y-10054267D01*
X8349781Y-10054267D02*
X8368829Y-10044743D01*
X8368829Y-10044743D02*
X8397400Y-10044743D01*
X8397400Y-10044743D02*
X8416448Y-10054267D01*
X8416448Y-10054267D02*
X8425972Y-10063790D01*
X8425972Y-10063790D02*
X8435495Y-10082838D01*
X8435495Y-10082838D02*
X8435495Y-10139981D01*
X8435495Y-10139981D02*
X8425972Y-10159029D01*
X8425972Y-10159029D02*
X8416448Y-10168552D01*
X8416448Y-10168552D02*
X8397400Y-10178076D01*
X8397400Y-10178076D02*
X8368829Y-10178076D01*
X8549781Y-10178076D02*
X8530734Y-10168552D01*
X8530734Y-10168552D02*
X8521210Y-10149505D01*
X8521210Y-10149505D02*
X8521210Y-9978076D01*
X8702162Y-10168552D02*
X8683115Y-10178076D01*
X8683115Y-10178076D02*
X8645019Y-10178076D01*
X8645019Y-10178076D02*
X8625972Y-10168552D01*
X8625972Y-10168552D02*
X8616448Y-10149505D01*
X8616448Y-10149505D02*
X8616448Y-10073314D01*
X8616448Y-10073314D02*
X8625972Y-10054267D01*
X8625972Y-10054267D02*
X8645019Y-10044743D01*
X8645019Y-10044743D02*
X8683115Y-10044743D01*
X8683115Y-10044743D02*
X8702162Y-10054267D01*
X8702162Y-10054267D02*
X8711686Y-10073314D01*
X8711686Y-10073314D02*
X8711686Y-10092362D01*
X8711686Y-10092362D02*
X8616448Y-10111410D01*
X8787876Y-10168552D02*
X8806924Y-10178076D01*
X8806924Y-10178076D02*
X8845019Y-10178076D01*
X8845019Y-10178076D02*
X8864067Y-10168552D01*
X8864067Y-10168552D02*
X8873591Y-10149505D01*
X8873591Y-10149505D02*
X8873591Y-10139981D01*
X8873591Y-10139981D02*
X8864067Y-10120933D01*
X8864067Y-10120933D02*
X8845019Y-10111410D01*
X8845019Y-10111410D02*
X8816448Y-10111410D01*
X8816448Y-10111410D02*
X8797400Y-10101886D01*
X8797400Y-10101886D02*
X8787876Y-10082838D01*
X8787876Y-10082838D02*
X8787876Y-10073314D01*
X8787876Y-10073314D02*
X8797400Y-10054267D01*
X8797400Y-10054267D02*
X8816448Y-10044743D01*
X8816448Y-10044743D02*
X8845019Y-10044743D01*
X8845019Y-10044743D02*
X8864067Y-10054267D01*
X8940257Y-10254267D02*
X8949781Y-10244743D01*
X8949781Y-10244743D02*
X8968829Y-10216171D01*
X8968829Y-10216171D02*
X8978353Y-10197124D01*
X8978353Y-10197124D02*
X8987876Y-10168552D01*
X8987876Y-10168552D02*
X8997400Y-10120933D01*
X8997400Y-10120933D02*
X8997400Y-10082838D01*
X8997400Y-10082838D02*
X8987876Y-10035219D01*
X8987876Y-10035219D02*
X8978353Y-10006648D01*
X8978353Y-10006648D02*
X8968829Y-9987600D01*
X8968829Y-9987600D02*
X8949781Y-9959029D01*
X8949781Y-9959029D02*
X8940257Y-9949505D01*
D16*
X4027400Y-10323600D02*
X4117400Y-10413600D01*
X4117400Y-10323600D02*
X4027400Y-10413600D01*
X4117400Y-10368600D02*
G75*
G03*
X4117400Y-10368600I-45000J0D01*
G01*
D11*
X4403114Y-10242076D02*
X4422162Y-10242076D01*
X4422162Y-10242076D02*
X4441210Y-10251600D01*
X4441210Y-10251600D02*
X4450733Y-10261124D01*
X4450733Y-10261124D02*
X4460257Y-10280171D01*
X4460257Y-10280171D02*
X4469781Y-10318267D01*
X4469781Y-10318267D02*
X4469781Y-10365886D01*
X4469781Y-10365886D02*
X4460257Y-10403981D01*
X4460257Y-10403981D02*
X4450733Y-10423029D01*
X4450733Y-10423029D02*
X4441210Y-10432552D01*
X4441210Y-10432552D02*
X4422162Y-10442076D01*
X4422162Y-10442076D02*
X4403114Y-10442076D01*
X4403114Y-10442076D02*
X4384067Y-10432552D01*
X4384067Y-10432552D02*
X4374543Y-10423029D01*
X4374543Y-10423029D02*
X4365019Y-10403981D01*
X4365019Y-10403981D02*
X4355495Y-10365886D01*
X4355495Y-10365886D02*
X4355495Y-10318267D01*
X4355495Y-10318267D02*
X4365019Y-10280171D01*
X4365019Y-10280171D02*
X4374543Y-10261124D01*
X4374543Y-10261124D02*
X4384067Y-10251600D01*
X4384067Y-10251600D02*
X4403114Y-10242076D01*
X4555495Y-10423029D02*
X4565019Y-10432552D01*
X4565019Y-10432552D02*
X4555495Y-10442076D01*
X4555495Y-10442076D02*
X4545971Y-10432552D01*
X4545971Y-10432552D02*
X4555495Y-10423029D01*
X4555495Y-10423029D02*
X4555495Y-10442076D01*
X4660257Y-10442076D02*
X4698352Y-10442076D01*
X4698352Y-10442076D02*
X4717400Y-10432552D01*
X4717400Y-10432552D02*
X4726924Y-10423029D01*
X4726924Y-10423029D02*
X4745971Y-10394457D01*
X4745971Y-10394457D02*
X4755495Y-10356362D01*
X4755495Y-10356362D02*
X4755495Y-10280171D01*
X4755495Y-10280171D02*
X4745971Y-10261124D01*
X4745971Y-10261124D02*
X4736448Y-10251600D01*
X4736448Y-10251600D02*
X4717400Y-10242076D01*
X4717400Y-10242076D02*
X4679305Y-10242076D01*
X4679305Y-10242076D02*
X4660257Y-10251600D01*
X4660257Y-10251600D02*
X4650733Y-10261124D01*
X4650733Y-10261124D02*
X4641210Y-10280171D01*
X4641210Y-10280171D02*
X4641210Y-10327790D01*
X4641210Y-10327790D02*
X4650733Y-10346838D01*
X4650733Y-10346838D02*
X4660257Y-10356362D01*
X4660257Y-10356362D02*
X4679305Y-10365886D01*
X4679305Y-10365886D02*
X4717400Y-10365886D01*
X4717400Y-10365886D02*
X4736448Y-10356362D01*
X4736448Y-10356362D02*
X4745971Y-10346838D01*
X4745971Y-10346838D02*
X4755495Y-10327790D01*
X4879305Y-10242076D02*
X4898352Y-10242076D01*
X4898352Y-10242076D02*
X4917400Y-10251600D01*
X4917400Y-10251600D02*
X4926924Y-10261124D01*
X4926924Y-10261124D02*
X4936448Y-10280171D01*
X4936448Y-10280171D02*
X4945971Y-10318267D01*
X4945971Y-10318267D02*
X4945971Y-10365886D01*
X4945971Y-10365886D02*
X4936448Y-10403981D01*
X4936448Y-10403981D02*
X4926924Y-10423029D01*
X4926924Y-10423029D02*
X4917400Y-10432552D01*
X4917400Y-10432552D02*
X4898352Y-10442076D01*
X4898352Y-10442076D02*
X4879305Y-10442076D01*
X4879305Y-10442076D02*
X4860257Y-10432552D01*
X4860257Y-10432552D02*
X4850733Y-10423029D01*
X4850733Y-10423029D02*
X4841210Y-10403981D01*
X4841210Y-10403981D02*
X4831686Y-10365886D01*
X4831686Y-10365886D02*
X4831686Y-10318267D01*
X4831686Y-10318267D02*
X4841210Y-10280171D01*
X4841210Y-10280171D02*
X4850733Y-10261124D01*
X4850733Y-10261124D02*
X4860257Y-10251600D01*
X4860257Y-10251600D02*
X4879305Y-10242076D01*
X5069781Y-10242076D02*
X5088829Y-10242076D01*
X5088829Y-10242076D02*
X5107876Y-10251600D01*
X5107876Y-10251600D02*
X5117400Y-10261124D01*
X5117400Y-10261124D02*
X5126924Y-10280171D01*
X5126924Y-10280171D02*
X5136448Y-10318267D01*
X5136448Y-10318267D02*
X5136448Y-10365886D01*
X5136448Y-10365886D02*
X5126924Y-10403981D01*
X5126924Y-10403981D02*
X5117400Y-10423029D01*
X5117400Y-10423029D02*
X5107876Y-10432552D01*
X5107876Y-10432552D02*
X5088829Y-10442076D01*
X5088829Y-10442076D02*
X5069781Y-10442076D01*
X5069781Y-10442076D02*
X5050733Y-10432552D01*
X5050733Y-10432552D02*
X5041210Y-10423029D01*
X5041210Y-10423029D02*
X5031686Y-10403981D01*
X5031686Y-10403981D02*
X5022162Y-10365886D01*
X5022162Y-10365886D02*
X5022162Y-10318267D01*
X5022162Y-10318267D02*
X5031686Y-10280171D01*
X5031686Y-10280171D02*
X5041210Y-10261124D01*
X5041210Y-10261124D02*
X5050733Y-10251600D01*
X5050733Y-10251600D02*
X5069781Y-10242076D01*
X5222162Y-10442076D02*
X5222162Y-10308743D01*
X5222162Y-10327790D02*
X5231686Y-10318267D01*
X5231686Y-10318267D02*
X5250733Y-10308743D01*
X5250733Y-10308743D02*
X5279305Y-10308743D01*
X5279305Y-10308743D02*
X5298352Y-10318267D01*
X5298352Y-10318267D02*
X5307876Y-10337314D01*
X5307876Y-10337314D02*
X5307876Y-10442076D01*
X5307876Y-10337314D02*
X5317400Y-10318267D01*
X5317400Y-10318267D02*
X5336448Y-10308743D01*
X5336448Y-10308743D02*
X5365019Y-10308743D01*
X5365019Y-10308743D02*
X5384067Y-10318267D01*
X5384067Y-10318267D02*
X5393591Y-10337314D01*
X5393591Y-10337314D02*
X5393591Y-10442076D01*
X5488829Y-10442076D02*
X5488829Y-10308743D01*
X5488829Y-10327790D02*
X5498352Y-10318267D01*
X5498352Y-10318267D02*
X5517400Y-10308743D01*
X5517400Y-10308743D02*
X5545972Y-10308743D01*
X5545972Y-10308743D02*
X5565019Y-10318267D01*
X5565019Y-10318267D02*
X5574543Y-10337314D01*
X5574543Y-10337314D02*
X5574543Y-10442076D01*
X5574543Y-10337314D02*
X5584067Y-10318267D01*
X5584067Y-10318267D02*
X5603114Y-10308743D01*
X5603114Y-10308743D02*
X5631686Y-10308743D01*
X5631686Y-10308743D02*
X5650733Y-10318267D01*
X5650733Y-10318267D02*
X5660257Y-10337314D01*
X5660257Y-10337314D02*
X5660257Y-10442076D01*
X6018352Y-10232552D02*
X5846924Y-10489695D01*
X6243114Y-10242076D02*
X6262162Y-10242076D01*
X6262162Y-10242076D02*
X6281210Y-10251600D01*
X6281210Y-10251600D02*
X6290733Y-10261124D01*
X6290733Y-10261124D02*
X6300257Y-10280171D01*
X6300257Y-10280171D02*
X6309781Y-10318267D01*
X6309781Y-10318267D02*
X6309781Y-10365886D01*
X6309781Y-10365886D02*
X6300257Y-10403981D01*
X6300257Y-10403981D02*
X6290733Y-10423029D01*
X6290733Y-10423029D02*
X6281210Y-10432552D01*
X6281210Y-10432552D02*
X6262162Y-10442076D01*
X6262162Y-10442076D02*
X6243114Y-10442076D01*
X6243114Y-10442076D02*
X6224067Y-10432552D01*
X6224067Y-10432552D02*
X6214543Y-10423029D01*
X6214543Y-10423029D02*
X6205019Y-10403981D01*
X6205019Y-10403981D02*
X6195495Y-10365886D01*
X6195495Y-10365886D02*
X6195495Y-10318267D01*
X6195495Y-10318267D02*
X6205019Y-10280171D01*
X6205019Y-10280171D02*
X6214543Y-10261124D01*
X6214543Y-10261124D02*
X6224067Y-10251600D01*
X6224067Y-10251600D02*
X6243114Y-10242076D01*
X6395495Y-10423029D02*
X6405019Y-10432552D01*
X6405019Y-10432552D02*
X6395495Y-10442076D01*
X6395495Y-10442076D02*
X6385971Y-10432552D01*
X6385971Y-10432552D02*
X6395495Y-10423029D01*
X6395495Y-10423029D02*
X6395495Y-10442076D01*
X6528829Y-10242076D02*
X6547876Y-10242076D01*
X6547876Y-10242076D02*
X6566924Y-10251600D01*
X6566924Y-10251600D02*
X6576448Y-10261124D01*
X6576448Y-10261124D02*
X6585971Y-10280171D01*
X6585971Y-10280171D02*
X6595495Y-10318267D01*
X6595495Y-10318267D02*
X6595495Y-10365886D01*
X6595495Y-10365886D02*
X6585971Y-10403981D01*
X6585971Y-10403981D02*
X6576448Y-10423029D01*
X6576448Y-10423029D02*
X6566924Y-10432552D01*
X6566924Y-10432552D02*
X6547876Y-10442076D01*
X6547876Y-10442076D02*
X6528829Y-10442076D01*
X6528829Y-10442076D02*
X6509781Y-10432552D01*
X6509781Y-10432552D02*
X6500257Y-10423029D01*
X6500257Y-10423029D02*
X6490733Y-10403981D01*
X6490733Y-10403981D02*
X6481210Y-10365886D01*
X6481210Y-10365886D02*
X6481210Y-10318267D01*
X6481210Y-10318267D02*
X6490733Y-10280171D01*
X6490733Y-10280171D02*
X6500257Y-10261124D01*
X6500257Y-10261124D02*
X6509781Y-10251600D01*
X6509781Y-10251600D02*
X6528829Y-10242076D01*
X6662162Y-10242076D02*
X6785971Y-10242076D01*
X6785971Y-10242076D02*
X6719305Y-10318267D01*
X6719305Y-10318267D02*
X6747876Y-10318267D01*
X6747876Y-10318267D02*
X6766924Y-10327790D01*
X6766924Y-10327790D02*
X6776448Y-10337314D01*
X6776448Y-10337314D02*
X6785971Y-10356362D01*
X6785971Y-10356362D02*
X6785971Y-10403981D01*
X6785971Y-10403981D02*
X6776448Y-10423029D01*
X6776448Y-10423029D02*
X6766924Y-10432552D01*
X6766924Y-10432552D02*
X6747876Y-10442076D01*
X6747876Y-10442076D02*
X6690733Y-10442076D01*
X6690733Y-10442076D02*
X6671686Y-10432552D01*
X6671686Y-10432552D02*
X6662162Y-10423029D01*
X6966924Y-10242076D02*
X6871686Y-10242076D01*
X6871686Y-10242076D02*
X6862162Y-10337314D01*
X6862162Y-10337314D02*
X6871686Y-10327790D01*
X6871686Y-10327790D02*
X6890733Y-10318267D01*
X6890733Y-10318267D02*
X6938352Y-10318267D01*
X6938352Y-10318267D02*
X6957400Y-10327790D01*
X6957400Y-10327790D02*
X6966924Y-10337314D01*
X6966924Y-10337314D02*
X6976448Y-10356362D01*
X6976448Y-10356362D02*
X6976448Y-10403981D01*
X6976448Y-10403981D02*
X6966924Y-10423029D01*
X6966924Y-10423029D02*
X6957400Y-10432552D01*
X6957400Y-10432552D02*
X6938352Y-10442076D01*
X6938352Y-10442076D02*
X6890733Y-10442076D01*
X6890733Y-10442076D02*
X6871686Y-10432552D01*
X6871686Y-10432552D02*
X6862162Y-10423029D01*
X7147876Y-10308743D02*
X7147876Y-10442076D01*
X7100257Y-10232552D02*
X7052638Y-10375410D01*
X7052638Y-10375410D02*
X7176448Y-10375410D01*
X7243114Y-10242076D02*
X7243114Y-10280171D01*
X7319305Y-10242076D02*
X7319305Y-10280171D01*
X7582162Y-10518267D02*
X7572638Y-10508743D01*
X7572638Y-10508743D02*
X7553591Y-10480171D01*
X7553591Y-10480171D02*
X7544067Y-10461124D01*
X7544067Y-10461124D02*
X7534543Y-10432552D01*
X7534543Y-10432552D02*
X7525019Y-10384933D01*
X7525019Y-10384933D02*
X7525019Y-10346838D01*
X7525019Y-10346838D02*
X7534543Y-10299219D01*
X7534543Y-10299219D02*
X7544067Y-10270648D01*
X7544067Y-10270648D02*
X7553591Y-10251600D01*
X7553591Y-10251600D02*
X7572638Y-10223029D01*
X7572638Y-10223029D02*
X7582162Y-10213505D01*
X7696448Y-10242076D02*
X7715495Y-10242076D01*
X7715495Y-10242076D02*
X7734543Y-10251600D01*
X7734543Y-10251600D02*
X7744067Y-10261124D01*
X7744067Y-10261124D02*
X7753591Y-10280171D01*
X7753591Y-10280171D02*
X7763114Y-10318267D01*
X7763114Y-10318267D02*
X7763114Y-10365886D01*
X7763114Y-10365886D02*
X7753591Y-10403981D01*
X7753591Y-10403981D02*
X7744067Y-10423029D01*
X7744067Y-10423029D02*
X7734543Y-10432552D01*
X7734543Y-10432552D02*
X7715495Y-10442076D01*
X7715495Y-10442076D02*
X7696448Y-10442076D01*
X7696448Y-10442076D02*
X7677400Y-10432552D01*
X7677400Y-10432552D02*
X7667876Y-10423029D01*
X7667876Y-10423029D02*
X7658352Y-10403981D01*
X7658352Y-10403981D02*
X7648829Y-10365886D01*
X7648829Y-10365886D02*
X7648829Y-10318267D01*
X7648829Y-10318267D02*
X7658352Y-10280171D01*
X7658352Y-10280171D02*
X7667876Y-10261124D01*
X7667876Y-10261124D02*
X7677400Y-10251600D01*
X7677400Y-10251600D02*
X7696448Y-10242076D01*
X7968829Y-10442076D02*
X7968829Y-10242076D01*
X8054543Y-10442076D02*
X8054543Y-10337314D01*
X8054543Y-10337314D02*
X8045019Y-10318267D01*
X8045019Y-10318267D02*
X8025972Y-10308743D01*
X8025972Y-10308743D02*
X7997400Y-10308743D01*
X7997400Y-10308743D02*
X7978352Y-10318267D01*
X7978352Y-10318267D02*
X7968829Y-10327790D01*
X8178352Y-10442076D02*
X8159305Y-10432552D01*
X8159305Y-10432552D02*
X8149781Y-10423029D01*
X8149781Y-10423029D02*
X8140257Y-10403981D01*
X8140257Y-10403981D02*
X8140257Y-10346838D01*
X8140257Y-10346838D02*
X8149781Y-10327790D01*
X8149781Y-10327790D02*
X8159305Y-10318267D01*
X8159305Y-10318267D02*
X8178352Y-10308743D01*
X8178352Y-10308743D02*
X8206924Y-10308743D01*
X8206924Y-10308743D02*
X8225972Y-10318267D01*
X8225972Y-10318267D02*
X8235495Y-10327790D01*
X8235495Y-10327790D02*
X8245019Y-10346838D01*
X8245019Y-10346838D02*
X8245019Y-10403981D01*
X8245019Y-10403981D02*
X8235495Y-10423029D01*
X8235495Y-10423029D02*
X8225972Y-10432552D01*
X8225972Y-10432552D02*
X8206924Y-10442076D01*
X8206924Y-10442076D02*
X8178352Y-10442076D01*
X8359305Y-10442076D02*
X8340257Y-10432552D01*
X8340257Y-10432552D02*
X8330733Y-10413505D01*
X8330733Y-10413505D02*
X8330733Y-10242076D01*
X8511686Y-10432552D02*
X8492638Y-10442076D01*
X8492638Y-10442076D02*
X8454543Y-10442076D01*
X8454543Y-10442076D02*
X8435495Y-10432552D01*
X8435495Y-10432552D02*
X8425972Y-10413505D01*
X8425972Y-10413505D02*
X8425972Y-10337314D01*
X8425972Y-10337314D02*
X8435495Y-10318267D01*
X8435495Y-10318267D02*
X8454543Y-10308743D01*
X8454543Y-10308743D02*
X8492638Y-10308743D01*
X8492638Y-10308743D02*
X8511686Y-10318267D01*
X8511686Y-10318267D02*
X8521210Y-10337314D01*
X8521210Y-10337314D02*
X8521210Y-10356362D01*
X8521210Y-10356362D02*
X8425972Y-10375410D01*
X8597400Y-10432552D02*
X8616448Y-10442076D01*
X8616448Y-10442076D02*
X8654543Y-10442076D01*
X8654543Y-10442076D02*
X8673591Y-10432552D01*
X8673591Y-10432552D02*
X8683115Y-10413505D01*
X8683115Y-10413505D02*
X8683115Y-10403981D01*
X8683115Y-10403981D02*
X8673591Y-10384933D01*
X8673591Y-10384933D02*
X8654543Y-10375410D01*
X8654543Y-10375410D02*
X8625972Y-10375410D01*
X8625972Y-10375410D02*
X8606924Y-10365886D01*
X8606924Y-10365886D02*
X8597400Y-10346838D01*
X8597400Y-10346838D02*
X8597400Y-10337314D01*
X8597400Y-10337314D02*
X8606924Y-10318267D01*
X8606924Y-10318267D02*
X8625972Y-10308743D01*
X8625972Y-10308743D02*
X8654543Y-10308743D01*
X8654543Y-10308743D02*
X8673591Y-10318267D01*
X8888829Y-10365886D02*
X9041210Y-10365886D01*
X8965019Y-10442076D02*
X8965019Y-10289695D01*
X9342162Y-10308743D02*
X9342162Y-10442076D01*
X9294543Y-10232552D02*
X9246924Y-10375410D01*
X9246924Y-10375410D02*
X9370734Y-10375410D01*
X9557400Y-10432552D02*
X9576448Y-10442076D01*
X9576448Y-10442076D02*
X9614543Y-10442076D01*
X9614543Y-10442076D02*
X9633591Y-10432552D01*
X9633591Y-10432552D02*
X9643115Y-10413505D01*
X9643115Y-10413505D02*
X9643115Y-10403981D01*
X9643115Y-10403981D02*
X9633591Y-10384933D01*
X9633591Y-10384933D02*
X9614543Y-10375410D01*
X9614543Y-10375410D02*
X9585972Y-10375410D01*
X9585972Y-10375410D02*
X9566924Y-10365886D01*
X9566924Y-10365886D02*
X9557400Y-10346838D01*
X9557400Y-10346838D02*
X9557400Y-10337314D01*
X9557400Y-10337314D02*
X9566924Y-10318267D01*
X9566924Y-10318267D02*
X9585972Y-10308743D01*
X9585972Y-10308743D02*
X9614543Y-10308743D01*
X9614543Y-10308743D02*
X9633591Y-10318267D01*
X9757400Y-10442076D02*
X9738353Y-10432552D01*
X9738353Y-10432552D02*
X9728829Y-10413505D01*
X9728829Y-10413505D02*
X9728829Y-10242076D01*
X9862162Y-10442076D02*
X9843115Y-10432552D01*
X9843115Y-10432552D02*
X9833591Y-10423029D01*
X9833591Y-10423029D02*
X9824067Y-10403981D01*
X9824067Y-10403981D02*
X9824067Y-10346838D01*
X9824067Y-10346838D02*
X9833591Y-10327790D01*
X9833591Y-10327790D02*
X9843115Y-10318267D01*
X9843115Y-10318267D02*
X9862162Y-10308743D01*
X9862162Y-10308743D02*
X9890734Y-10308743D01*
X9890734Y-10308743D02*
X9909781Y-10318267D01*
X9909781Y-10318267D02*
X9919305Y-10327790D01*
X9919305Y-10327790D02*
X9928829Y-10346838D01*
X9928829Y-10346838D02*
X9928829Y-10403981D01*
X9928829Y-10403981D02*
X9919305Y-10423029D01*
X9919305Y-10423029D02*
X9909781Y-10432552D01*
X9909781Y-10432552D02*
X9890734Y-10442076D01*
X9890734Y-10442076D02*
X9862162Y-10442076D01*
X9985972Y-10308743D02*
X10062162Y-10308743D01*
X10014543Y-10242076D02*
X10014543Y-10413505D01*
X10014543Y-10413505D02*
X10024067Y-10432552D01*
X10024067Y-10432552D02*
X10043115Y-10442076D01*
X10043115Y-10442076D02*
X10062162Y-10442076D01*
X10119305Y-10432552D02*
X10138353Y-10442076D01*
X10138353Y-10442076D02*
X10176448Y-10442076D01*
X10176448Y-10442076D02*
X10195496Y-10432552D01*
X10195496Y-10432552D02*
X10205019Y-10413505D01*
X10205019Y-10413505D02*
X10205019Y-10403981D01*
X10205019Y-10403981D02*
X10195496Y-10384933D01*
X10195496Y-10384933D02*
X10176448Y-10375410D01*
X10176448Y-10375410D02*
X10147876Y-10375410D01*
X10147876Y-10375410D02*
X10128829Y-10365886D01*
X10128829Y-10365886D02*
X10119305Y-10346838D01*
X10119305Y-10346838D02*
X10119305Y-10337314D01*
X10119305Y-10337314D02*
X10128829Y-10318267D01*
X10128829Y-10318267D02*
X10147876Y-10308743D01*
X10147876Y-10308743D02*
X10176448Y-10308743D01*
X10176448Y-10308743D02*
X10195496Y-10318267D01*
X10271686Y-10518267D02*
X10281210Y-10508743D01*
X10281210Y-10508743D02*
X10300257Y-10480171D01*
X10300257Y-10480171D02*
X10309781Y-10461124D01*
X10309781Y-10461124D02*
X10319305Y-10432552D01*
X10319305Y-10432552D02*
X10328829Y-10384933D01*
X10328829Y-10384933D02*
X10328829Y-10346838D01*
X10328829Y-10346838D02*
X10319305Y-10299219D01*
X10319305Y-10299219D02*
X10309781Y-10270648D01*
X10309781Y-10270648D02*
X10300257Y-10251600D01*
X10300257Y-10251600D02*
X10281210Y-10223029D01*
X10281210Y-10223029D02*
X10271686Y-10213505D01*
D17*
X4025400Y-10586600D02*
X4117400Y-10678600D01*
X4117400Y-10586600D02*
X4025400Y-10678600D01*
X4071400Y-10586600D02*
X4071400Y-10678600D01*
X4025400Y-10632600D02*
X4117400Y-10632600D01*
D11*
X4403114Y-10506076D02*
X4422162Y-10506076D01*
X4422162Y-10506076D02*
X4441210Y-10515600D01*
X4441210Y-10515600D02*
X4450733Y-10525124D01*
X4450733Y-10525124D02*
X4460257Y-10544171D01*
X4460257Y-10544171D02*
X4469781Y-10582267D01*
X4469781Y-10582267D02*
X4469781Y-10629886D01*
X4469781Y-10629886D02*
X4460257Y-10667981D01*
X4460257Y-10667981D02*
X4450733Y-10687029D01*
X4450733Y-10687029D02*
X4441210Y-10696552D01*
X4441210Y-10696552D02*
X4422162Y-10706076D01*
X4422162Y-10706076D02*
X4403114Y-10706076D01*
X4403114Y-10706076D02*
X4384067Y-10696552D01*
X4384067Y-10696552D02*
X4374543Y-10687029D01*
X4374543Y-10687029D02*
X4365019Y-10667981D01*
X4365019Y-10667981D02*
X4355495Y-10629886D01*
X4355495Y-10629886D02*
X4355495Y-10582267D01*
X4355495Y-10582267D02*
X4365019Y-10544171D01*
X4365019Y-10544171D02*
X4374543Y-10525124D01*
X4374543Y-10525124D02*
X4384067Y-10515600D01*
X4384067Y-10515600D02*
X4403114Y-10506076D01*
X4555495Y-10687029D02*
X4565019Y-10696552D01*
X4565019Y-10696552D02*
X4555495Y-10706076D01*
X4555495Y-10706076D02*
X4545971Y-10696552D01*
X4545971Y-10696552D02*
X4555495Y-10687029D01*
X4555495Y-10687029D02*
X4555495Y-10706076D01*
X4660257Y-10706076D02*
X4698352Y-10706076D01*
X4698352Y-10706076D02*
X4717400Y-10696552D01*
X4717400Y-10696552D02*
X4726924Y-10687029D01*
X4726924Y-10687029D02*
X4745971Y-10658457D01*
X4745971Y-10658457D02*
X4755495Y-10620362D01*
X4755495Y-10620362D02*
X4755495Y-10544171D01*
X4755495Y-10544171D02*
X4745971Y-10525124D01*
X4745971Y-10525124D02*
X4736448Y-10515600D01*
X4736448Y-10515600D02*
X4717400Y-10506076D01*
X4717400Y-10506076D02*
X4679305Y-10506076D01*
X4679305Y-10506076D02*
X4660257Y-10515600D01*
X4660257Y-10515600D02*
X4650733Y-10525124D01*
X4650733Y-10525124D02*
X4641210Y-10544171D01*
X4641210Y-10544171D02*
X4641210Y-10591790D01*
X4641210Y-10591790D02*
X4650733Y-10610838D01*
X4650733Y-10610838D02*
X4660257Y-10620362D01*
X4660257Y-10620362D02*
X4679305Y-10629886D01*
X4679305Y-10629886D02*
X4717400Y-10629886D01*
X4717400Y-10629886D02*
X4736448Y-10620362D01*
X4736448Y-10620362D02*
X4745971Y-10610838D01*
X4745971Y-10610838D02*
X4755495Y-10591790D01*
X4831686Y-10525124D02*
X4841210Y-10515600D01*
X4841210Y-10515600D02*
X4860257Y-10506076D01*
X4860257Y-10506076D02*
X4907876Y-10506076D01*
X4907876Y-10506076D02*
X4926924Y-10515600D01*
X4926924Y-10515600D02*
X4936448Y-10525124D01*
X4936448Y-10525124D02*
X4945971Y-10544171D01*
X4945971Y-10544171D02*
X4945971Y-10563219D01*
X4945971Y-10563219D02*
X4936448Y-10591790D01*
X4936448Y-10591790D02*
X4822162Y-10706076D01*
X4822162Y-10706076D02*
X4945971Y-10706076D01*
X5069781Y-10506076D02*
X5088829Y-10506076D01*
X5088829Y-10506076D02*
X5107876Y-10515600D01*
X5107876Y-10515600D02*
X5117400Y-10525124D01*
X5117400Y-10525124D02*
X5126924Y-10544171D01*
X5126924Y-10544171D02*
X5136448Y-10582267D01*
X5136448Y-10582267D02*
X5136448Y-10629886D01*
X5136448Y-10629886D02*
X5126924Y-10667981D01*
X5126924Y-10667981D02*
X5117400Y-10687029D01*
X5117400Y-10687029D02*
X5107876Y-10696552D01*
X5107876Y-10696552D02*
X5088829Y-10706076D01*
X5088829Y-10706076D02*
X5069781Y-10706076D01*
X5069781Y-10706076D02*
X5050733Y-10696552D01*
X5050733Y-10696552D02*
X5041210Y-10687029D01*
X5041210Y-10687029D02*
X5031686Y-10667981D01*
X5031686Y-10667981D02*
X5022162Y-10629886D01*
X5022162Y-10629886D02*
X5022162Y-10582267D01*
X5022162Y-10582267D02*
X5031686Y-10544171D01*
X5031686Y-10544171D02*
X5041210Y-10525124D01*
X5041210Y-10525124D02*
X5050733Y-10515600D01*
X5050733Y-10515600D02*
X5069781Y-10506076D01*
X5222162Y-10706076D02*
X5222162Y-10572743D01*
X5222162Y-10591790D02*
X5231686Y-10582267D01*
X5231686Y-10582267D02*
X5250733Y-10572743D01*
X5250733Y-10572743D02*
X5279305Y-10572743D01*
X5279305Y-10572743D02*
X5298352Y-10582267D01*
X5298352Y-10582267D02*
X5307876Y-10601314D01*
X5307876Y-10601314D02*
X5307876Y-10706076D01*
X5307876Y-10601314D02*
X5317400Y-10582267D01*
X5317400Y-10582267D02*
X5336448Y-10572743D01*
X5336448Y-10572743D02*
X5365019Y-10572743D01*
X5365019Y-10572743D02*
X5384067Y-10582267D01*
X5384067Y-10582267D02*
X5393591Y-10601314D01*
X5393591Y-10601314D02*
X5393591Y-10706076D01*
X5488829Y-10706076D02*
X5488829Y-10572743D01*
X5488829Y-10591790D02*
X5498352Y-10582267D01*
X5498352Y-10582267D02*
X5517400Y-10572743D01*
X5517400Y-10572743D02*
X5545972Y-10572743D01*
X5545972Y-10572743D02*
X5565019Y-10582267D01*
X5565019Y-10582267D02*
X5574543Y-10601314D01*
X5574543Y-10601314D02*
X5574543Y-10706076D01*
X5574543Y-10601314D02*
X5584067Y-10582267D01*
X5584067Y-10582267D02*
X5603114Y-10572743D01*
X5603114Y-10572743D02*
X5631686Y-10572743D01*
X5631686Y-10572743D02*
X5650733Y-10582267D01*
X5650733Y-10582267D02*
X5660257Y-10601314D01*
X5660257Y-10601314D02*
X5660257Y-10706076D01*
X6018352Y-10496552D02*
X5846924Y-10753695D01*
X6243114Y-10506076D02*
X6262162Y-10506076D01*
X6262162Y-10506076D02*
X6281210Y-10515600D01*
X6281210Y-10515600D02*
X6290733Y-10525124D01*
X6290733Y-10525124D02*
X6300257Y-10544171D01*
X6300257Y-10544171D02*
X6309781Y-10582267D01*
X6309781Y-10582267D02*
X6309781Y-10629886D01*
X6309781Y-10629886D02*
X6300257Y-10667981D01*
X6300257Y-10667981D02*
X6290733Y-10687029D01*
X6290733Y-10687029D02*
X6281210Y-10696552D01*
X6281210Y-10696552D02*
X6262162Y-10706076D01*
X6262162Y-10706076D02*
X6243114Y-10706076D01*
X6243114Y-10706076D02*
X6224067Y-10696552D01*
X6224067Y-10696552D02*
X6214543Y-10687029D01*
X6214543Y-10687029D02*
X6205019Y-10667981D01*
X6205019Y-10667981D02*
X6195495Y-10629886D01*
X6195495Y-10629886D02*
X6195495Y-10582267D01*
X6195495Y-10582267D02*
X6205019Y-10544171D01*
X6205019Y-10544171D02*
X6214543Y-10525124D01*
X6214543Y-10525124D02*
X6224067Y-10515600D01*
X6224067Y-10515600D02*
X6243114Y-10506076D01*
X6395495Y-10687029D02*
X6405019Y-10696552D01*
X6405019Y-10696552D02*
X6395495Y-10706076D01*
X6395495Y-10706076D02*
X6385971Y-10696552D01*
X6385971Y-10696552D02*
X6395495Y-10687029D01*
X6395495Y-10687029D02*
X6395495Y-10706076D01*
X6528829Y-10506076D02*
X6547876Y-10506076D01*
X6547876Y-10506076D02*
X6566924Y-10515600D01*
X6566924Y-10515600D02*
X6576448Y-10525124D01*
X6576448Y-10525124D02*
X6585971Y-10544171D01*
X6585971Y-10544171D02*
X6595495Y-10582267D01*
X6595495Y-10582267D02*
X6595495Y-10629886D01*
X6595495Y-10629886D02*
X6585971Y-10667981D01*
X6585971Y-10667981D02*
X6576448Y-10687029D01*
X6576448Y-10687029D02*
X6566924Y-10696552D01*
X6566924Y-10696552D02*
X6547876Y-10706076D01*
X6547876Y-10706076D02*
X6528829Y-10706076D01*
X6528829Y-10706076D02*
X6509781Y-10696552D01*
X6509781Y-10696552D02*
X6500257Y-10687029D01*
X6500257Y-10687029D02*
X6490733Y-10667981D01*
X6490733Y-10667981D02*
X6481210Y-10629886D01*
X6481210Y-10629886D02*
X6481210Y-10582267D01*
X6481210Y-10582267D02*
X6490733Y-10544171D01*
X6490733Y-10544171D02*
X6500257Y-10525124D01*
X6500257Y-10525124D02*
X6509781Y-10515600D01*
X6509781Y-10515600D02*
X6528829Y-10506076D01*
X6662162Y-10506076D02*
X6785971Y-10506076D01*
X6785971Y-10506076D02*
X6719305Y-10582267D01*
X6719305Y-10582267D02*
X6747876Y-10582267D01*
X6747876Y-10582267D02*
X6766924Y-10591790D01*
X6766924Y-10591790D02*
X6776448Y-10601314D01*
X6776448Y-10601314D02*
X6785971Y-10620362D01*
X6785971Y-10620362D02*
X6785971Y-10667981D01*
X6785971Y-10667981D02*
X6776448Y-10687029D01*
X6776448Y-10687029D02*
X6766924Y-10696552D01*
X6766924Y-10696552D02*
X6747876Y-10706076D01*
X6747876Y-10706076D02*
X6690733Y-10706076D01*
X6690733Y-10706076D02*
X6671686Y-10696552D01*
X6671686Y-10696552D02*
X6662162Y-10687029D01*
X6957400Y-10506076D02*
X6919305Y-10506076D01*
X6919305Y-10506076D02*
X6900257Y-10515600D01*
X6900257Y-10515600D02*
X6890733Y-10525124D01*
X6890733Y-10525124D02*
X6871686Y-10553695D01*
X6871686Y-10553695D02*
X6862162Y-10591790D01*
X6862162Y-10591790D02*
X6862162Y-10667981D01*
X6862162Y-10667981D02*
X6871686Y-10687029D01*
X6871686Y-10687029D02*
X6881210Y-10696552D01*
X6881210Y-10696552D02*
X6900257Y-10706076D01*
X6900257Y-10706076D02*
X6938352Y-10706076D01*
X6938352Y-10706076D02*
X6957400Y-10696552D01*
X6957400Y-10696552D02*
X6966924Y-10687029D01*
X6966924Y-10687029D02*
X6976448Y-10667981D01*
X6976448Y-10667981D02*
X6976448Y-10620362D01*
X6976448Y-10620362D02*
X6966924Y-10601314D01*
X6966924Y-10601314D02*
X6957400Y-10591790D01*
X6957400Y-10591790D02*
X6938352Y-10582267D01*
X6938352Y-10582267D02*
X6900257Y-10582267D01*
X6900257Y-10582267D02*
X6881210Y-10591790D01*
X6881210Y-10591790D02*
X6871686Y-10601314D01*
X6871686Y-10601314D02*
X6862162Y-10620362D01*
X7052638Y-10525124D02*
X7062162Y-10515600D01*
X7062162Y-10515600D02*
X7081210Y-10506076D01*
X7081210Y-10506076D02*
X7128829Y-10506076D01*
X7128829Y-10506076D02*
X7147876Y-10515600D01*
X7147876Y-10515600D02*
X7157400Y-10525124D01*
X7157400Y-10525124D02*
X7166924Y-10544171D01*
X7166924Y-10544171D02*
X7166924Y-10563219D01*
X7166924Y-10563219D02*
X7157400Y-10591790D01*
X7157400Y-10591790D02*
X7043114Y-10706076D01*
X7043114Y-10706076D02*
X7166924Y-10706076D01*
X7243114Y-10506076D02*
X7243114Y-10544171D01*
X7319305Y-10506076D02*
X7319305Y-10544171D01*
X7582162Y-10782267D02*
X7572638Y-10772743D01*
X7572638Y-10772743D02*
X7553591Y-10744171D01*
X7553591Y-10744171D02*
X7544067Y-10725124D01*
X7544067Y-10725124D02*
X7534543Y-10696552D01*
X7534543Y-10696552D02*
X7525019Y-10648933D01*
X7525019Y-10648933D02*
X7525019Y-10610838D01*
X7525019Y-10610838D02*
X7534543Y-10563219D01*
X7534543Y-10563219D02*
X7544067Y-10534648D01*
X7544067Y-10534648D02*
X7553591Y-10515600D01*
X7553591Y-10515600D02*
X7572638Y-10487029D01*
X7572638Y-10487029D02*
X7582162Y-10477505D01*
X7744067Y-10572743D02*
X7744067Y-10706076D01*
X7696448Y-10496552D02*
X7648829Y-10639410D01*
X7648829Y-10639410D02*
X7772638Y-10639410D01*
X7968829Y-10706076D02*
X7968829Y-10506076D01*
X8054543Y-10706076D02*
X8054543Y-10601314D01*
X8054543Y-10601314D02*
X8045019Y-10582267D01*
X8045019Y-10582267D02*
X8025972Y-10572743D01*
X8025972Y-10572743D02*
X7997400Y-10572743D01*
X7997400Y-10572743D02*
X7978352Y-10582267D01*
X7978352Y-10582267D02*
X7968829Y-10591790D01*
X8178352Y-10706076D02*
X8159305Y-10696552D01*
X8159305Y-10696552D02*
X8149781Y-10687029D01*
X8149781Y-10687029D02*
X8140257Y-10667981D01*
X8140257Y-10667981D02*
X8140257Y-10610838D01*
X8140257Y-10610838D02*
X8149781Y-10591790D01*
X8149781Y-10591790D02*
X8159305Y-10582267D01*
X8159305Y-10582267D02*
X8178352Y-10572743D01*
X8178352Y-10572743D02*
X8206924Y-10572743D01*
X8206924Y-10572743D02*
X8225972Y-10582267D01*
X8225972Y-10582267D02*
X8235495Y-10591790D01*
X8235495Y-10591790D02*
X8245019Y-10610838D01*
X8245019Y-10610838D02*
X8245019Y-10667981D01*
X8245019Y-10667981D02*
X8235495Y-10687029D01*
X8235495Y-10687029D02*
X8225972Y-10696552D01*
X8225972Y-10696552D02*
X8206924Y-10706076D01*
X8206924Y-10706076D02*
X8178352Y-10706076D01*
X8359305Y-10706076D02*
X8340257Y-10696552D01*
X8340257Y-10696552D02*
X8330733Y-10677505D01*
X8330733Y-10677505D02*
X8330733Y-10506076D01*
X8511686Y-10696552D02*
X8492638Y-10706076D01*
X8492638Y-10706076D02*
X8454543Y-10706076D01*
X8454543Y-10706076D02*
X8435495Y-10696552D01*
X8435495Y-10696552D02*
X8425972Y-10677505D01*
X8425972Y-10677505D02*
X8425972Y-10601314D01*
X8425972Y-10601314D02*
X8435495Y-10582267D01*
X8435495Y-10582267D02*
X8454543Y-10572743D01*
X8454543Y-10572743D02*
X8492638Y-10572743D01*
X8492638Y-10572743D02*
X8511686Y-10582267D01*
X8511686Y-10582267D02*
X8521210Y-10601314D01*
X8521210Y-10601314D02*
X8521210Y-10620362D01*
X8521210Y-10620362D02*
X8425972Y-10639410D01*
X8597400Y-10696552D02*
X8616448Y-10706076D01*
X8616448Y-10706076D02*
X8654543Y-10706076D01*
X8654543Y-10706076D02*
X8673591Y-10696552D01*
X8673591Y-10696552D02*
X8683115Y-10677505D01*
X8683115Y-10677505D02*
X8683115Y-10667981D01*
X8683115Y-10667981D02*
X8673591Y-10648933D01*
X8673591Y-10648933D02*
X8654543Y-10639410D01*
X8654543Y-10639410D02*
X8625972Y-10639410D01*
X8625972Y-10639410D02*
X8606924Y-10629886D01*
X8606924Y-10629886D02*
X8597400Y-10610838D01*
X8597400Y-10610838D02*
X8597400Y-10601314D01*
X8597400Y-10601314D02*
X8606924Y-10582267D01*
X8606924Y-10582267D02*
X8625972Y-10572743D01*
X8625972Y-10572743D02*
X8654543Y-10572743D01*
X8654543Y-10572743D02*
X8673591Y-10582267D01*
X8749781Y-10782267D02*
X8759305Y-10772743D01*
X8759305Y-10772743D02*
X8778353Y-10744171D01*
X8778353Y-10744171D02*
X8787876Y-10725124D01*
X8787876Y-10725124D02*
X8797400Y-10696552D01*
X8797400Y-10696552D02*
X8806924Y-10648933D01*
X8806924Y-10648933D02*
X8806924Y-10610838D01*
X8806924Y-10610838D02*
X8797400Y-10563219D01*
X8797400Y-10563219D02*
X8787876Y-10534648D01*
X8787876Y-10534648D02*
X8778353Y-10515600D01*
X8778353Y-10515600D02*
X8759305Y-10487029D01*
X8759305Y-10487029D02*
X8749781Y-10477505D01*
D18*
X3942400Y-10809100D02*
X4117400Y-10984100D01*
X4117400Y-10809100D02*
X3942400Y-10984100D01*
X4091772Y-10958472D02*
X4091772Y-10834728D01*
X3968028Y-10834728D01*
X3968028Y-10958472D01*
X4091772Y-10958472D01*
D11*
X4469781Y-10970076D02*
X4355495Y-10970076D01*
X4412638Y-10970076D02*
X4412638Y-10770076D01*
X4412638Y-10770076D02*
X4393590Y-10798648D01*
X4393590Y-10798648D02*
X4374543Y-10817695D01*
X4374543Y-10817695D02*
X4355495Y-10827219D01*
X4555495Y-10951029D02*
X4565019Y-10960552D01*
X4565019Y-10960552D02*
X4555495Y-10970076D01*
X4555495Y-10970076D02*
X4545971Y-10960552D01*
X4545971Y-10960552D02*
X4555495Y-10951029D01*
X4555495Y-10951029D02*
X4555495Y-10970076D01*
X4631686Y-10770076D02*
X4765019Y-10770076D01*
X4765019Y-10770076D02*
X4679305Y-10970076D01*
X4936448Y-10770076D02*
X4841210Y-10770076D01*
X4841210Y-10770076D02*
X4831686Y-10865314D01*
X4831686Y-10865314D02*
X4841210Y-10855790D01*
X4841210Y-10855790D02*
X4860257Y-10846267D01*
X4860257Y-10846267D02*
X4907876Y-10846267D01*
X4907876Y-10846267D02*
X4926924Y-10855790D01*
X4926924Y-10855790D02*
X4936448Y-10865314D01*
X4936448Y-10865314D02*
X4945971Y-10884362D01*
X4945971Y-10884362D02*
X4945971Y-10931981D01*
X4945971Y-10931981D02*
X4936448Y-10951029D01*
X4936448Y-10951029D02*
X4926924Y-10960552D01*
X4926924Y-10960552D02*
X4907876Y-10970076D01*
X4907876Y-10970076D02*
X4860257Y-10970076D01*
X4860257Y-10970076D02*
X4841210Y-10960552D01*
X4841210Y-10960552D02*
X4831686Y-10951029D01*
X5069781Y-10770076D02*
X5088829Y-10770076D01*
X5088829Y-10770076D02*
X5107876Y-10779600D01*
X5107876Y-10779600D02*
X5117400Y-10789124D01*
X5117400Y-10789124D02*
X5126924Y-10808171D01*
X5126924Y-10808171D02*
X5136448Y-10846267D01*
X5136448Y-10846267D02*
X5136448Y-10893886D01*
X5136448Y-10893886D02*
X5126924Y-10931981D01*
X5126924Y-10931981D02*
X5117400Y-10951029D01*
X5117400Y-10951029D02*
X5107876Y-10960552D01*
X5107876Y-10960552D02*
X5088829Y-10970076D01*
X5088829Y-10970076D02*
X5069781Y-10970076D01*
X5069781Y-10970076D02*
X5050733Y-10960552D01*
X5050733Y-10960552D02*
X5041210Y-10951029D01*
X5041210Y-10951029D02*
X5031686Y-10931981D01*
X5031686Y-10931981D02*
X5022162Y-10893886D01*
X5022162Y-10893886D02*
X5022162Y-10846267D01*
X5022162Y-10846267D02*
X5031686Y-10808171D01*
X5031686Y-10808171D02*
X5041210Y-10789124D01*
X5041210Y-10789124D02*
X5050733Y-10779600D01*
X5050733Y-10779600D02*
X5069781Y-10770076D01*
X5222162Y-10970076D02*
X5222162Y-10836743D01*
X5222162Y-10855790D02*
X5231686Y-10846267D01*
X5231686Y-10846267D02*
X5250733Y-10836743D01*
X5250733Y-10836743D02*
X5279305Y-10836743D01*
X5279305Y-10836743D02*
X5298352Y-10846267D01*
X5298352Y-10846267D02*
X5307876Y-10865314D01*
X5307876Y-10865314D02*
X5307876Y-10970076D01*
X5307876Y-10865314D02*
X5317400Y-10846267D01*
X5317400Y-10846267D02*
X5336448Y-10836743D01*
X5336448Y-10836743D02*
X5365019Y-10836743D01*
X5365019Y-10836743D02*
X5384067Y-10846267D01*
X5384067Y-10846267D02*
X5393591Y-10865314D01*
X5393591Y-10865314D02*
X5393591Y-10970076D01*
X5488829Y-10970076D02*
X5488829Y-10836743D01*
X5488829Y-10855790D02*
X5498352Y-10846267D01*
X5498352Y-10846267D02*
X5517400Y-10836743D01*
X5517400Y-10836743D02*
X5545972Y-10836743D01*
X5545972Y-10836743D02*
X5565019Y-10846267D01*
X5565019Y-10846267D02*
X5574543Y-10865314D01*
X5574543Y-10865314D02*
X5574543Y-10970076D01*
X5574543Y-10865314D02*
X5584067Y-10846267D01*
X5584067Y-10846267D02*
X5603114Y-10836743D01*
X5603114Y-10836743D02*
X5631686Y-10836743D01*
X5631686Y-10836743D02*
X5650733Y-10846267D01*
X5650733Y-10846267D02*
X5660257Y-10865314D01*
X5660257Y-10865314D02*
X5660257Y-10970076D01*
X6018352Y-10760552D02*
X5846924Y-11017695D01*
X6243114Y-10770076D02*
X6262162Y-10770076D01*
X6262162Y-10770076D02*
X6281210Y-10779600D01*
X6281210Y-10779600D02*
X6290733Y-10789124D01*
X6290733Y-10789124D02*
X6300257Y-10808171D01*
X6300257Y-10808171D02*
X6309781Y-10846267D01*
X6309781Y-10846267D02*
X6309781Y-10893886D01*
X6309781Y-10893886D02*
X6300257Y-10931981D01*
X6300257Y-10931981D02*
X6290733Y-10951029D01*
X6290733Y-10951029D02*
X6281210Y-10960552D01*
X6281210Y-10960552D02*
X6262162Y-10970076D01*
X6262162Y-10970076D02*
X6243114Y-10970076D01*
X6243114Y-10970076D02*
X6224067Y-10960552D01*
X6224067Y-10960552D02*
X6214543Y-10951029D01*
X6214543Y-10951029D02*
X6205019Y-10931981D01*
X6205019Y-10931981D02*
X6195495Y-10893886D01*
X6195495Y-10893886D02*
X6195495Y-10846267D01*
X6195495Y-10846267D02*
X6205019Y-10808171D01*
X6205019Y-10808171D02*
X6214543Y-10789124D01*
X6214543Y-10789124D02*
X6224067Y-10779600D01*
X6224067Y-10779600D02*
X6243114Y-10770076D01*
X6395495Y-10951029D02*
X6405019Y-10960552D01*
X6405019Y-10960552D02*
X6395495Y-10970076D01*
X6395495Y-10970076D02*
X6385971Y-10960552D01*
X6385971Y-10960552D02*
X6395495Y-10951029D01*
X6395495Y-10951029D02*
X6395495Y-10970076D01*
X6528829Y-10770076D02*
X6547876Y-10770076D01*
X6547876Y-10770076D02*
X6566924Y-10779600D01*
X6566924Y-10779600D02*
X6576448Y-10789124D01*
X6576448Y-10789124D02*
X6585971Y-10808171D01*
X6585971Y-10808171D02*
X6595495Y-10846267D01*
X6595495Y-10846267D02*
X6595495Y-10893886D01*
X6595495Y-10893886D02*
X6585971Y-10931981D01*
X6585971Y-10931981D02*
X6576448Y-10951029D01*
X6576448Y-10951029D02*
X6566924Y-10960552D01*
X6566924Y-10960552D02*
X6547876Y-10970076D01*
X6547876Y-10970076D02*
X6528829Y-10970076D01*
X6528829Y-10970076D02*
X6509781Y-10960552D01*
X6509781Y-10960552D02*
X6500257Y-10951029D01*
X6500257Y-10951029D02*
X6490733Y-10931981D01*
X6490733Y-10931981D02*
X6481210Y-10893886D01*
X6481210Y-10893886D02*
X6481210Y-10846267D01*
X6481210Y-10846267D02*
X6490733Y-10808171D01*
X6490733Y-10808171D02*
X6500257Y-10789124D01*
X6500257Y-10789124D02*
X6509781Y-10779600D01*
X6509781Y-10779600D02*
X6528829Y-10770076D01*
X6766924Y-10770076D02*
X6728829Y-10770076D01*
X6728829Y-10770076D02*
X6709781Y-10779600D01*
X6709781Y-10779600D02*
X6700257Y-10789124D01*
X6700257Y-10789124D02*
X6681210Y-10817695D01*
X6681210Y-10817695D02*
X6671686Y-10855790D01*
X6671686Y-10855790D02*
X6671686Y-10931981D01*
X6671686Y-10931981D02*
X6681210Y-10951029D01*
X6681210Y-10951029D02*
X6690733Y-10960552D01*
X6690733Y-10960552D02*
X6709781Y-10970076D01*
X6709781Y-10970076D02*
X6747876Y-10970076D01*
X6747876Y-10970076D02*
X6766924Y-10960552D01*
X6766924Y-10960552D02*
X6776448Y-10951029D01*
X6776448Y-10951029D02*
X6785971Y-10931981D01*
X6785971Y-10931981D02*
X6785971Y-10884362D01*
X6785971Y-10884362D02*
X6776448Y-10865314D01*
X6776448Y-10865314D02*
X6766924Y-10855790D01*
X6766924Y-10855790D02*
X6747876Y-10846267D01*
X6747876Y-10846267D02*
X6709781Y-10846267D01*
X6709781Y-10846267D02*
X6690733Y-10855790D01*
X6690733Y-10855790D02*
X6681210Y-10865314D01*
X6681210Y-10865314D02*
X6671686Y-10884362D01*
X6900257Y-10855790D02*
X6881210Y-10846267D01*
X6881210Y-10846267D02*
X6871686Y-10836743D01*
X6871686Y-10836743D02*
X6862162Y-10817695D01*
X6862162Y-10817695D02*
X6862162Y-10808171D01*
X6862162Y-10808171D02*
X6871686Y-10789124D01*
X6871686Y-10789124D02*
X6881210Y-10779600D01*
X6881210Y-10779600D02*
X6900257Y-10770076D01*
X6900257Y-10770076D02*
X6938352Y-10770076D01*
X6938352Y-10770076D02*
X6957400Y-10779600D01*
X6957400Y-10779600D02*
X6966924Y-10789124D01*
X6966924Y-10789124D02*
X6976448Y-10808171D01*
X6976448Y-10808171D02*
X6976448Y-10817695D01*
X6976448Y-10817695D02*
X6966924Y-10836743D01*
X6966924Y-10836743D02*
X6957400Y-10846267D01*
X6957400Y-10846267D02*
X6938352Y-10855790D01*
X6938352Y-10855790D02*
X6900257Y-10855790D01*
X6900257Y-10855790D02*
X6881210Y-10865314D01*
X6881210Y-10865314D02*
X6871686Y-10874838D01*
X6871686Y-10874838D02*
X6862162Y-10893886D01*
X6862162Y-10893886D02*
X6862162Y-10931981D01*
X6862162Y-10931981D02*
X6871686Y-10951029D01*
X6871686Y-10951029D02*
X6881210Y-10960552D01*
X6881210Y-10960552D02*
X6900257Y-10970076D01*
X6900257Y-10970076D02*
X6938352Y-10970076D01*
X6938352Y-10970076D02*
X6957400Y-10960552D01*
X6957400Y-10960552D02*
X6966924Y-10951029D01*
X6966924Y-10951029D02*
X6976448Y-10931981D01*
X6976448Y-10931981D02*
X6976448Y-10893886D01*
X6976448Y-10893886D02*
X6966924Y-10874838D01*
X6966924Y-10874838D02*
X6957400Y-10865314D01*
X6957400Y-10865314D02*
X6938352Y-10855790D01*
X7071686Y-10970076D02*
X7109781Y-10970076D01*
X7109781Y-10970076D02*
X7128829Y-10960552D01*
X7128829Y-10960552D02*
X7138352Y-10951029D01*
X7138352Y-10951029D02*
X7157400Y-10922457D01*
X7157400Y-10922457D02*
X7166924Y-10884362D01*
X7166924Y-10884362D02*
X7166924Y-10808171D01*
X7166924Y-10808171D02*
X7157400Y-10789124D01*
X7157400Y-10789124D02*
X7147876Y-10779600D01*
X7147876Y-10779600D02*
X7128829Y-10770076D01*
X7128829Y-10770076D02*
X7090733Y-10770076D01*
X7090733Y-10770076D02*
X7071686Y-10779600D01*
X7071686Y-10779600D02*
X7062162Y-10789124D01*
X7062162Y-10789124D02*
X7052638Y-10808171D01*
X7052638Y-10808171D02*
X7052638Y-10855790D01*
X7052638Y-10855790D02*
X7062162Y-10874838D01*
X7062162Y-10874838D02*
X7071686Y-10884362D01*
X7071686Y-10884362D02*
X7090733Y-10893886D01*
X7090733Y-10893886D02*
X7128829Y-10893886D01*
X7128829Y-10893886D02*
X7147876Y-10884362D01*
X7147876Y-10884362D02*
X7157400Y-10874838D01*
X7157400Y-10874838D02*
X7166924Y-10855790D01*
X7243114Y-10770076D02*
X7243114Y-10808171D01*
X7319305Y-10770076D02*
X7319305Y-10808171D01*
X7582162Y-11046267D02*
X7572638Y-11036743D01*
X7572638Y-11036743D02*
X7553591Y-11008171D01*
X7553591Y-11008171D02*
X7544067Y-10989124D01*
X7544067Y-10989124D02*
X7534543Y-10960552D01*
X7534543Y-10960552D02*
X7525019Y-10912933D01*
X7525019Y-10912933D02*
X7525019Y-10874838D01*
X7525019Y-10874838D02*
X7534543Y-10827219D01*
X7534543Y-10827219D02*
X7544067Y-10798648D01*
X7544067Y-10798648D02*
X7553591Y-10779600D01*
X7553591Y-10779600D02*
X7572638Y-10751029D01*
X7572638Y-10751029D02*
X7582162Y-10741505D01*
X7648829Y-10789124D02*
X7658352Y-10779600D01*
X7658352Y-10779600D02*
X7677400Y-10770076D01*
X7677400Y-10770076D02*
X7725019Y-10770076D01*
X7725019Y-10770076D02*
X7744067Y-10779600D01*
X7744067Y-10779600D02*
X7753591Y-10789124D01*
X7753591Y-10789124D02*
X7763114Y-10808171D01*
X7763114Y-10808171D02*
X7763114Y-10827219D01*
X7763114Y-10827219D02*
X7753591Y-10855790D01*
X7753591Y-10855790D02*
X7639305Y-10970076D01*
X7639305Y-10970076D02*
X7763114Y-10970076D01*
X7968829Y-10970076D02*
X7968829Y-10770076D01*
X8054543Y-10970076D02*
X8054543Y-10865314D01*
X8054543Y-10865314D02*
X8045019Y-10846267D01*
X8045019Y-10846267D02*
X8025972Y-10836743D01*
X8025972Y-10836743D02*
X7997400Y-10836743D01*
X7997400Y-10836743D02*
X7978352Y-10846267D01*
X7978352Y-10846267D02*
X7968829Y-10855790D01*
X8178352Y-10970076D02*
X8159305Y-10960552D01*
X8159305Y-10960552D02*
X8149781Y-10951029D01*
X8149781Y-10951029D02*
X8140257Y-10931981D01*
X8140257Y-10931981D02*
X8140257Y-10874838D01*
X8140257Y-10874838D02*
X8149781Y-10855790D01*
X8149781Y-10855790D02*
X8159305Y-10846267D01*
X8159305Y-10846267D02*
X8178352Y-10836743D01*
X8178352Y-10836743D02*
X8206924Y-10836743D01*
X8206924Y-10836743D02*
X8225972Y-10846267D01*
X8225972Y-10846267D02*
X8235495Y-10855790D01*
X8235495Y-10855790D02*
X8245019Y-10874838D01*
X8245019Y-10874838D02*
X8245019Y-10931981D01*
X8245019Y-10931981D02*
X8235495Y-10951029D01*
X8235495Y-10951029D02*
X8225972Y-10960552D01*
X8225972Y-10960552D02*
X8206924Y-10970076D01*
X8206924Y-10970076D02*
X8178352Y-10970076D01*
X8359305Y-10970076D02*
X8340257Y-10960552D01*
X8340257Y-10960552D02*
X8330733Y-10941505D01*
X8330733Y-10941505D02*
X8330733Y-10770076D01*
X8511686Y-10960552D02*
X8492638Y-10970076D01*
X8492638Y-10970076D02*
X8454543Y-10970076D01*
X8454543Y-10970076D02*
X8435495Y-10960552D01*
X8435495Y-10960552D02*
X8425972Y-10941505D01*
X8425972Y-10941505D02*
X8425972Y-10865314D01*
X8425972Y-10865314D02*
X8435495Y-10846267D01*
X8435495Y-10846267D02*
X8454543Y-10836743D01*
X8454543Y-10836743D02*
X8492638Y-10836743D01*
X8492638Y-10836743D02*
X8511686Y-10846267D01*
X8511686Y-10846267D02*
X8521210Y-10865314D01*
X8521210Y-10865314D02*
X8521210Y-10884362D01*
X8521210Y-10884362D02*
X8425972Y-10903410D01*
X8597400Y-10960552D02*
X8616448Y-10970076D01*
X8616448Y-10970076D02*
X8654543Y-10970076D01*
X8654543Y-10970076D02*
X8673591Y-10960552D01*
X8673591Y-10960552D02*
X8683115Y-10941505D01*
X8683115Y-10941505D02*
X8683115Y-10931981D01*
X8683115Y-10931981D02*
X8673591Y-10912933D01*
X8673591Y-10912933D02*
X8654543Y-10903410D01*
X8654543Y-10903410D02*
X8625972Y-10903410D01*
X8625972Y-10903410D02*
X8606924Y-10893886D01*
X8606924Y-10893886D02*
X8597400Y-10874838D01*
X8597400Y-10874838D02*
X8597400Y-10865314D01*
X8597400Y-10865314D02*
X8606924Y-10846267D01*
X8606924Y-10846267D02*
X8625972Y-10836743D01*
X8625972Y-10836743D02*
X8654543Y-10836743D01*
X8654543Y-10836743D02*
X8673591Y-10846267D01*
X8749781Y-11046267D02*
X8759305Y-11036743D01*
X8759305Y-11036743D02*
X8778353Y-11008171D01*
X8778353Y-11008171D02*
X8787876Y-10989124D01*
X8787876Y-10989124D02*
X8797400Y-10960552D01*
X8797400Y-10960552D02*
X8806924Y-10912933D01*
X8806924Y-10912933D02*
X8806924Y-10874838D01*
X8806924Y-10874838D02*
X8797400Y-10827219D01*
X8797400Y-10827219D02*
X8787876Y-10798648D01*
X8787876Y-10798648D02*
X8778353Y-10779600D01*
X8778353Y-10779600D02*
X8759305Y-10751029D01*
X8759305Y-10751029D02*
X8749781Y-10741505D01*
X3917400Y-11091600D02*
X4117400Y-11291600D01*
X4117400Y-11091600D02*
X3917400Y-11291600D01*
X4017400Y-11291600D02*
X4117400Y-11191600D01*
X4017400Y-11091600D01*
X3917400Y-11191600D01*
X4017400Y-11291600D01*
X4355495Y-11084124D02*
X4365019Y-11074600D01*
X4365019Y-11074600D02*
X4384067Y-11065076D01*
X4384067Y-11065076D02*
X4431686Y-11065076D01*
X4431686Y-11065076D02*
X4450733Y-11074600D01*
X4450733Y-11074600D02*
X4460257Y-11084124D01*
X4460257Y-11084124D02*
X4469781Y-11103171D01*
X4469781Y-11103171D02*
X4469781Y-11122219D01*
X4469781Y-11122219D02*
X4460257Y-11150790D01*
X4460257Y-11150790D02*
X4345971Y-11265076D01*
X4345971Y-11265076D02*
X4469781Y-11265076D01*
X4555495Y-11246028D02*
X4565019Y-11255552D01*
X4565019Y-11255552D02*
X4555495Y-11265076D01*
X4555495Y-11265076D02*
X4545971Y-11255552D01*
X4545971Y-11255552D02*
X4555495Y-11246028D01*
X4555495Y-11246028D02*
X4555495Y-11265076D01*
X4631686Y-11065076D02*
X4755495Y-11065076D01*
X4755495Y-11065076D02*
X4688829Y-11141267D01*
X4688829Y-11141267D02*
X4717400Y-11141267D01*
X4717400Y-11141267D02*
X4736448Y-11150790D01*
X4736448Y-11150790D02*
X4745971Y-11160314D01*
X4745971Y-11160314D02*
X4755495Y-11179362D01*
X4755495Y-11179362D02*
X4755495Y-11226981D01*
X4755495Y-11226981D02*
X4745971Y-11246028D01*
X4745971Y-11246028D02*
X4736448Y-11255552D01*
X4736448Y-11255552D02*
X4717400Y-11265076D01*
X4717400Y-11265076D02*
X4660257Y-11265076D01*
X4660257Y-11265076D02*
X4641210Y-11255552D01*
X4641210Y-11255552D02*
X4631686Y-11246028D01*
X4879305Y-11065076D02*
X4898352Y-11065076D01*
X4898352Y-11065076D02*
X4917400Y-11074600D01*
X4917400Y-11074600D02*
X4926924Y-11084124D01*
X4926924Y-11084124D02*
X4936448Y-11103171D01*
X4936448Y-11103171D02*
X4945971Y-11141267D01*
X4945971Y-11141267D02*
X4945971Y-11188886D01*
X4945971Y-11188886D02*
X4936448Y-11226981D01*
X4936448Y-11226981D02*
X4926924Y-11246028D01*
X4926924Y-11246028D02*
X4917400Y-11255552D01*
X4917400Y-11255552D02*
X4898352Y-11265076D01*
X4898352Y-11265076D02*
X4879305Y-11265076D01*
X4879305Y-11265076D02*
X4860257Y-11255552D01*
X4860257Y-11255552D02*
X4850733Y-11246028D01*
X4850733Y-11246028D02*
X4841210Y-11226981D01*
X4841210Y-11226981D02*
X4831686Y-11188886D01*
X4831686Y-11188886D02*
X4831686Y-11141267D01*
X4831686Y-11141267D02*
X4841210Y-11103171D01*
X4841210Y-11103171D02*
X4850733Y-11084124D01*
X4850733Y-11084124D02*
X4860257Y-11074600D01*
X4860257Y-11074600D02*
X4879305Y-11065076D01*
X5069781Y-11065076D02*
X5088829Y-11065076D01*
X5088829Y-11065076D02*
X5107876Y-11074600D01*
X5107876Y-11074600D02*
X5117400Y-11084124D01*
X5117400Y-11084124D02*
X5126924Y-11103171D01*
X5126924Y-11103171D02*
X5136448Y-11141267D01*
X5136448Y-11141267D02*
X5136448Y-11188886D01*
X5136448Y-11188886D02*
X5126924Y-11226981D01*
X5126924Y-11226981D02*
X5117400Y-11246028D01*
X5117400Y-11246028D02*
X5107876Y-11255552D01*
X5107876Y-11255552D02*
X5088829Y-11265076D01*
X5088829Y-11265076D02*
X5069781Y-11265076D01*
X5069781Y-11265076D02*
X5050733Y-11255552D01*
X5050733Y-11255552D02*
X5041210Y-11246028D01*
X5041210Y-11246028D02*
X5031686Y-11226981D01*
X5031686Y-11226981D02*
X5022162Y-11188886D01*
X5022162Y-11188886D02*
X5022162Y-11141267D01*
X5022162Y-11141267D02*
X5031686Y-11103171D01*
X5031686Y-11103171D02*
X5041210Y-11084124D01*
X5041210Y-11084124D02*
X5050733Y-11074600D01*
X5050733Y-11074600D02*
X5069781Y-11065076D01*
X5222162Y-11265076D02*
X5222162Y-11131743D01*
X5222162Y-11150790D02*
X5231686Y-11141267D01*
X5231686Y-11141267D02*
X5250733Y-11131743D01*
X5250733Y-11131743D02*
X5279305Y-11131743D01*
X5279305Y-11131743D02*
X5298352Y-11141267D01*
X5298352Y-11141267D02*
X5307876Y-11160314D01*
X5307876Y-11160314D02*
X5307876Y-11265076D01*
X5307876Y-11160314D02*
X5317400Y-11141267D01*
X5317400Y-11141267D02*
X5336448Y-11131743D01*
X5336448Y-11131743D02*
X5365019Y-11131743D01*
X5365019Y-11131743D02*
X5384067Y-11141267D01*
X5384067Y-11141267D02*
X5393591Y-11160314D01*
X5393591Y-11160314D02*
X5393591Y-11265076D01*
X5488829Y-11265076D02*
X5488829Y-11131743D01*
X5488829Y-11150790D02*
X5498352Y-11141267D01*
X5498352Y-11141267D02*
X5517400Y-11131743D01*
X5517400Y-11131743D02*
X5545972Y-11131743D01*
X5545972Y-11131743D02*
X5565019Y-11141267D01*
X5565019Y-11141267D02*
X5574543Y-11160314D01*
X5574543Y-11160314D02*
X5574543Y-11265076D01*
X5574543Y-11160314D02*
X5584067Y-11141267D01*
X5584067Y-11141267D02*
X5603114Y-11131743D01*
X5603114Y-11131743D02*
X5631686Y-11131743D01*
X5631686Y-11131743D02*
X5650733Y-11141267D01*
X5650733Y-11141267D02*
X5660257Y-11160314D01*
X5660257Y-11160314D02*
X5660257Y-11265076D01*
X6018352Y-11055552D02*
X5846924Y-11312695D01*
X6243114Y-11065076D02*
X6262162Y-11065076D01*
X6262162Y-11065076D02*
X6281210Y-11074600D01*
X6281210Y-11074600D02*
X6290733Y-11084124D01*
X6290733Y-11084124D02*
X6300257Y-11103171D01*
X6300257Y-11103171D02*
X6309781Y-11141267D01*
X6309781Y-11141267D02*
X6309781Y-11188886D01*
X6309781Y-11188886D02*
X6300257Y-11226981D01*
X6300257Y-11226981D02*
X6290733Y-11246028D01*
X6290733Y-11246028D02*
X6281210Y-11255552D01*
X6281210Y-11255552D02*
X6262162Y-11265076D01*
X6262162Y-11265076D02*
X6243114Y-11265076D01*
X6243114Y-11265076D02*
X6224067Y-11255552D01*
X6224067Y-11255552D02*
X6214543Y-11246028D01*
X6214543Y-11246028D02*
X6205019Y-11226981D01*
X6205019Y-11226981D02*
X6195495Y-11188886D01*
X6195495Y-11188886D02*
X6195495Y-11141267D01*
X6195495Y-11141267D02*
X6205019Y-11103171D01*
X6205019Y-11103171D02*
X6214543Y-11084124D01*
X6214543Y-11084124D02*
X6224067Y-11074600D01*
X6224067Y-11074600D02*
X6243114Y-11065076D01*
X6395495Y-11246028D02*
X6405019Y-11255552D01*
X6405019Y-11255552D02*
X6395495Y-11265076D01*
X6395495Y-11265076D02*
X6385971Y-11255552D01*
X6385971Y-11255552D02*
X6395495Y-11246028D01*
X6395495Y-11246028D02*
X6395495Y-11265076D01*
X6528829Y-11065076D02*
X6547876Y-11065076D01*
X6547876Y-11065076D02*
X6566924Y-11074600D01*
X6566924Y-11074600D02*
X6576448Y-11084124D01*
X6576448Y-11084124D02*
X6585971Y-11103171D01*
X6585971Y-11103171D02*
X6595495Y-11141267D01*
X6595495Y-11141267D02*
X6595495Y-11188886D01*
X6595495Y-11188886D02*
X6585971Y-11226981D01*
X6585971Y-11226981D02*
X6576448Y-11246028D01*
X6576448Y-11246028D02*
X6566924Y-11255552D01*
X6566924Y-11255552D02*
X6547876Y-11265076D01*
X6547876Y-11265076D02*
X6528829Y-11265076D01*
X6528829Y-11265076D02*
X6509781Y-11255552D01*
X6509781Y-11255552D02*
X6500257Y-11246028D01*
X6500257Y-11246028D02*
X6490733Y-11226981D01*
X6490733Y-11226981D02*
X6481210Y-11188886D01*
X6481210Y-11188886D02*
X6481210Y-11141267D01*
X6481210Y-11141267D02*
X6490733Y-11103171D01*
X6490733Y-11103171D02*
X6500257Y-11084124D01*
X6500257Y-11084124D02*
X6509781Y-11074600D01*
X6509781Y-11074600D02*
X6528829Y-11065076D01*
X6690733Y-11265076D02*
X6728829Y-11265076D01*
X6728829Y-11265076D02*
X6747876Y-11255552D01*
X6747876Y-11255552D02*
X6757400Y-11246028D01*
X6757400Y-11246028D02*
X6776448Y-11217457D01*
X6776448Y-11217457D02*
X6785971Y-11179362D01*
X6785971Y-11179362D02*
X6785971Y-11103171D01*
X6785971Y-11103171D02*
X6776448Y-11084124D01*
X6776448Y-11084124D02*
X6766924Y-11074600D01*
X6766924Y-11074600D02*
X6747876Y-11065076D01*
X6747876Y-11065076D02*
X6709781Y-11065076D01*
X6709781Y-11065076D02*
X6690733Y-11074600D01*
X6690733Y-11074600D02*
X6681210Y-11084124D01*
X6681210Y-11084124D02*
X6671686Y-11103171D01*
X6671686Y-11103171D02*
X6671686Y-11150790D01*
X6671686Y-11150790D02*
X6681210Y-11169838D01*
X6681210Y-11169838D02*
X6690733Y-11179362D01*
X6690733Y-11179362D02*
X6709781Y-11188886D01*
X6709781Y-11188886D02*
X6747876Y-11188886D01*
X6747876Y-11188886D02*
X6766924Y-11179362D01*
X6766924Y-11179362D02*
X6776448Y-11169838D01*
X6776448Y-11169838D02*
X6785971Y-11150790D01*
X6909781Y-11065076D02*
X6928829Y-11065076D01*
X6928829Y-11065076D02*
X6947876Y-11074600D01*
X6947876Y-11074600D02*
X6957400Y-11084124D01*
X6957400Y-11084124D02*
X6966924Y-11103171D01*
X6966924Y-11103171D02*
X6976448Y-11141267D01*
X6976448Y-11141267D02*
X6976448Y-11188886D01*
X6976448Y-11188886D02*
X6966924Y-11226981D01*
X6966924Y-11226981D02*
X6957400Y-11246028D01*
X6957400Y-11246028D02*
X6947876Y-11255552D01*
X6947876Y-11255552D02*
X6928829Y-11265076D01*
X6928829Y-11265076D02*
X6909781Y-11265076D01*
X6909781Y-11265076D02*
X6890733Y-11255552D01*
X6890733Y-11255552D02*
X6881210Y-11246028D01*
X6881210Y-11246028D02*
X6871686Y-11226981D01*
X6871686Y-11226981D02*
X6862162Y-11188886D01*
X6862162Y-11188886D02*
X6862162Y-11141267D01*
X6862162Y-11141267D02*
X6871686Y-11103171D01*
X6871686Y-11103171D02*
X6881210Y-11084124D01*
X6881210Y-11084124D02*
X6890733Y-11074600D01*
X6890733Y-11074600D02*
X6909781Y-11065076D01*
X7147876Y-11065076D02*
X7109781Y-11065076D01*
X7109781Y-11065076D02*
X7090733Y-11074600D01*
X7090733Y-11074600D02*
X7081210Y-11084124D01*
X7081210Y-11084124D02*
X7062162Y-11112695D01*
X7062162Y-11112695D02*
X7052638Y-11150790D01*
X7052638Y-11150790D02*
X7052638Y-11226981D01*
X7052638Y-11226981D02*
X7062162Y-11246028D01*
X7062162Y-11246028D02*
X7071686Y-11255552D01*
X7071686Y-11255552D02*
X7090733Y-11265076D01*
X7090733Y-11265076D02*
X7128829Y-11265076D01*
X7128829Y-11265076D02*
X7147876Y-11255552D01*
X7147876Y-11255552D02*
X7157400Y-11246028D01*
X7157400Y-11246028D02*
X7166924Y-11226981D01*
X7166924Y-11226981D02*
X7166924Y-11179362D01*
X7166924Y-11179362D02*
X7157400Y-11160314D01*
X7157400Y-11160314D02*
X7147876Y-11150790D01*
X7147876Y-11150790D02*
X7128829Y-11141267D01*
X7128829Y-11141267D02*
X7090733Y-11141267D01*
X7090733Y-11141267D02*
X7071686Y-11150790D01*
X7071686Y-11150790D02*
X7062162Y-11160314D01*
X7062162Y-11160314D02*
X7052638Y-11179362D01*
X7243114Y-11065076D02*
X7243114Y-11103171D01*
X7319305Y-11065076D02*
X7319305Y-11103171D01*
X7582162Y-11341267D02*
X7572638Y-11331743D01*
X7572638Y-11331743D02*
X7553591Y-11303171D01*
X7553591Y-11303171D02*
X7544067Y-11284124D01*
X7544067Y-11284124D02*
X7534543Y-11255552D01*
X7534543Y-11255552D02*
X7525019Y-11207933D01*
X7525019Y-11207933D02*
X7525019Y-11169838D01*
X7525019Y-11169838D02*
X7534543Y-11122219D01*
X7534543Y-11122219D02*
X7544067Y-11093648D01*
X7544067Y-11093648D02*
X7553591Y-11074600D01*
X7553591Y-11074600D02*
X7572638Y-11046029D01*
X7572638Y-11046029D02*
X7582162Y-11036505D01*
X7648829Y-11084124D02*
X7658352Y-11074600D01*
X7658352Y-11074600D02*
X7677400Y-11065076D01*
X7677400Y-11065076D02*
X7725019Y-11065076D01*
X7725019Y-11065076D02*
X7744067Y-11074600D01*
X7744067Y-11074600D02*
X7753591Y-11084124D01*
X7753591Y-11084124D02*
X7763114Y-11103171D01*
X7763114Y-11103171D02*
X7763114Y-11122219D01*
X7763114Y-11122219D02*
X7753591Y-11150790D01*
X7753591Y-11150790D02*
X7639305Y-11265076D01*
X7639305Y-11265076D02*
X7763114Y-11265076D01*
X7968829Y-11265076D02*
X7968829Y-11065076D01*
X8054543Y-11265076D02*
X8054543Y-11160314D01*
X8054543Y-11160314D02*
X8045019Y-11141267D01*
X8045019Y-11141267D02*
X8025972Y-11131743D01*
X8025972Y-11131743D02*
X7997400Y-11131743D01*
X7997400Y-11131743D02*
X7978352Y-11141267D01*
X7978352Y-11141267D02*
X7968829Y-11150790D01*
X8178352Y-11265076D02*
X8159305Y-11255552D01*
X8159305Y-11255552D02*
X8149781Y-11246028D01*
X8149781Y-11246028D02*
X8140257Y-11226981D01*
X8140257Y-11226981D02*
X8140257Y-11169838D01*
X8140257Y-11169838D02*
X8149781Y-11150790D01*
X8149781Y-11150790D02*
X8159305Y-11141267D01*
X8159305Y-11141267D02*
X8178352Y-11131743D01*
X8178352Y-11131743D02*
X8206924Y-11131743D01*
X8206924Y-11131743D02*
X8225972Y-11141267D01*
X8225972Y-11141267D02*
X8235495Y-11150790D01*
X8235495Y-11150790D02*
X8245019Y-11169838D01*
X8245019Y-11169838D02*
X8245019Y-11226981D01*
X8245019Y-11226981D02*
X8235495Y-11246028D01*
X8235495Y-11246028D02*
X8225972Y-11255552D01*
X8225972Y-11255552D02*
X8206924Y-11265076D01*
X8206924Y-11265076D02*
X8178352Y-11265076D01*
X8359305Y-11265076D02*
X8340257Y-11255552D01*
X8340257Y-11255552D02*
X8330733Y-11236505D01*
X8330733Y-11236505D02*
X8330733Y-11065076D01*
X8511686Y-11255552D02*
X8492638Y-11265076D01*
X8492638Y-11265076D02*
X8454543Y-11265076D01*
X8454543Y-11265076D02*
X8435495Y-11255552D01*
X8435495Y-11255552D02*
X8425972Y-11236505D01*
X8425972Y-11236505D02*
X8425972Y-11160314D01*
X8425972Y-11160314D02*
X8435495Y-11141267D01*
X8435495Y-11141267D02*
X8454543Y-11131743D01*
X8454543Y-11131743D02*
X8492638Y-11131743D01*
X8492638Y-11131743D02*
X8511686Y-11141267D01*
X8511686Y-11141267D02*
X8521210Y-11160314D01*
X8521210Y-11160314D02*
X8521210Y-11179362D01*
X8521210Y-11179362D02*
X8425972Y-11198409D01*
X8597400Y-11255552D02*
X8616448Y-11265076D01*
X8616448Y-11265076D02*
X8654543Y-11265076D01*
X8654543Y-11265076D02*
X8673591Y-11255552D01*
X8673591Y-11255552D02*
X8683115Y-11236505D01*
X8683115Y-11236505D02*
X8683115Y-11226981D01*
X8683115Y-11226981D02*
X8673591Y-11207933D01*
X8673591Y-11207933D02*
X8654543Y-11198409D01*
X8654543Y-11198409D02*
X8625972Y-11198409D01*
X8625972Y-11198409D02*
X8606924Y-11188886D01*
X8606924Y-11188886D02*
X8597400Y-11169838D01*
X8597400Y-11169838D02*
X8597400Y-11160314D01*
X8597400Y-11160314D02*
X8606924Y-11141267D01*
X8606924Y-11141267D02*
X8625972Y-11131743D01*
X8625972Y-11131743D02*
X8654543Y-11131743D01*
X8654543Y-11131743D02*
X8673591Y-11141267D01*
X8749781Y-11341267D02*
X8759305Y-11331743D01*
X8759305Y-11331743D02*
X8778353Y-11303171D01*
X8778353Y-11303171D02*
X8787876Y-11284124D01*
X8787876Y-11284124D02*
X8797400Y-11255552D01*
X8797400Y-11255552D02*
X8806924Y-11207933D01*
X8806924Y-11207933D02*
X8806924Y-11169838D01*
X8806924Y-11169838D02*
X8797400Y-11122219D01*
X8797400Y-11122219D02*
X8787876Y-11093648D01*
X8787876Y-11093648D02*
X8778353Y-11074600D01*
X8778353Y-11074600D02*
X8759305Y-11046029D01*
X8759305Y-11046029D02*
X8749781Y-11036505D01*
M02*
